<svg style="width: 100%; aspect-ratio: 1/1;" viewBox="0 0 663 663" fill="none" xmlns="http://www.w3.org/2000/svg">
<rect x="0" y="o" width="663" height="663" fill="#00918e"></rect>
<path d="M562.999 359.013L603.334 419.791L426.644 549.835L156.478 422.497L401.533 396.039L520.128 480.783L511.837 430.612L562.999 359.013Z" fill="white" fill-opacity="0.3"></path>
<path d="M447.121 124.985L517.388 105.406L586.467 313.634L381.875 531.228L432.438 289.991L549.683 203.387L499.405 195.769L447.121 124.985Z" fill="white" fill-opacity="0.7"></path>
<path d="M188.738 162.873L191.831 89.9946L411.214 88.6427L554.936 350.461L341.131 227.827L294.997 89.5586L272.214 135.021L188.738 162.873Z" fill="white" fill-opacity="0.6"></path>
<path d="M144.928 420.317L76.5717 394.855L143.079 185.792L436.496 130.01L253.794 295.455L108.037 296.604L144.234 332.32L144.928 420.317Z" fill="white" fill-opacity="0.5"></path>
<path d="M376.233 541.539L330.894 598.681L152.615 470.824L190.234 174.531L291.124 399.416L247.175 538.394L292.329 515.006L376.233 541.539Z" fill="white" fill-opacity="0.4"></path>
</svg>