<svg width="1362" height="846" viewBox="0 0 1362 846" fill="none" xmlns="http://www.w3.org/2000/svg">
<g clip-path="url(#clip0_99_102)">
<rect width="1362" height="846" fill="#4D4962"/>
<line x1="779.701" y1="593.599" x2="1456.7" y2="89.5989" stroke="black" stroke-opacity="0.28"/>
<line x1="727.51" y1="568.903" x2="840.51" y2="-0.0973942" stroke="black" stroke-opacity="0.28"/>
<line x1="725.126" y1="275.918" x2="205.777" y2="17.4483" stroke="black" stroke-opacity="0.28"/>
<line x1="767.341" y1="171.366" x2="43.341" y2="846.366" stroke="black" stroke-opacity="0.28"/>
<line x1="531.459" y1="240.802" x2="828.459" y2="927.802" stroke="black" stroke-opacity="0.28"/>
<line x1="779.635" y1="593.658" x2="1377.64" y2="-43.3422" stroke="black" stroke-opacity="0.28"/>
<line x1="871.596" y1="497.705" x2="1306.6" y2="-97.2951" stroke="black" stroke-opacity="0.28"/>
<line x1="938.851" y1="348.909" x2="687.663" y2="-456.852" stroke="black" stroke-opacity="0.28"/>
<line x1="938.885" y1="348.99" x2="536.033" y2="-426.305" stroke="black" stroke-opacity="0.28"/>
<line x1="878.826" y1="230.428" x2="461.588" y2="-377.16" stroke="black" stroke-opacity="0.28"/>
<line x1="755.397" y1="130.5" x2="-88.601" y2="134.099" stroke="black" stroke-opacity="0.28"/>
<line x1="755.485" y1="130.492" x2="-103.91" y2="288.016" stroke="black" stroke-opacity="0.28"/>
<line x1="624.517" y1="153.104" x2="-78.7801" y2="373.61" stroke="black" stroke-opacity="0.28"/>
<line x1="482.054" y1="232.904" x2="205.776" y2="1030.41" stroke="black" stroke-opacity="0.28"/>
<line x1="482.076" y1="232.818" x2="345.924" y2="1095.86" stroke="black" stroke-opacity="0.28"/>
<line x1="460.01" y1="363.878" x2="435.007" y2="1100.51" stroke="black" stroke-opacity="0.28"/>
<line x1="498.292" y1="516.594" x2="1183.9" y2="1008.83" stroke="black" stroke-opacity="0.28"/>
<line x1="498.216" y1="516.549" x2="1286.59" y2="893.161" stroke="black" stroke-opacity="0.28"/>
<line x1="617.541" y1="575.069" x2="1316.45" y2="809.099" stroke="black" stroke-opacity="0.28"/>
<line x1="497.958" y1="474.502" x2="1453.96" y2="394.579" stroke="black" stroke-opacity="0.28"/>
<path d="M499.713 733.48C494.806 733.48 490.299 732.28 486.193 729.88C482.086 727.48 478.833 724.227 476.433 720.12C474.033 716.013 472.833 711.507 472.833 706.6C472.833 701.693 474.033 697.187 476.433 693.08C478.833 688.92 482.086 685.64 486.193 683.24C490.353 680.787 494.859 679.56 499.713 679.56C503.659 679.56 507.419 680.387 510.993 682.04C514.566 683.64 517.606 685.96 520.113 689L515.953 692.52C513.926 690.173 511.473 688.36 508.593 687.08C505.766 685.747 502.806 685.08 499.713 685.08C495.873 685.08 492.299 686.067 488.993 688.04C485.739 689.96 483.153 692.573 481.233 695.88C479.313 699.187 478.353 702.76 478.353 706.6C478.353 710.44 479.313 714.013 481.233 717.32C483.153 720.573 485.739 723.16 488.993 725.08C492.299 727 495.873 727.96 499.713 727.96C502.806 727.96 505.766 727.32 508.593 726.04C511.473 724.707 513.926 722.867 515.953 720.52L520.113 724.04C517.606 727.027 514.566 729.347 510.993 731C507.419 732.653 503.659 733.48 499.713 733.48ZM547.582 733.4C542.729 733.4 538.276 732.2 534.222 729.8C530.169 727.4 526.942 724.173 524.542 720.12C522.142 716.067 520.942 711.613 520.942 706.76C520.942 701.907 522.142 697.453 524.542 693.4C526.942 689.293 530.169 686.04 534.222 683.64C538.329 681.24 542.782 680.04 547.582 680.04C552.382 680.04 556.836 681.24 560.942 683.64C565.049 686.04 568.302 689.293 570.702 693.4C573.102 697.507 574.302 701.96 574.302 706.76C574.302 711.56 573.102 716.013 570.702 720.12C568.302 724.173 565.049 727.4 560.942 729.8C556.889 732.2 552.436 733.4 547.582 733.4ZM547.582 727.96C551.422 727.96 554.969 727.027 558.222 725.16C561.476 723.24 564.036 720.653 565.902 717.4C567.822 714.147 568.782 710.6 568.782 706.76C568.782 702.92 567.822 699.373 565.902 696.12C564.036 692.867 561.476 690.307 558.222 688.44C554.969 686.52 551.422 685.56 547.582 685.56C543.742 685.56 540.196 686.52 536.942 688.44C533.689 690.307 531.102 692.867 529.182 696.12C527.316 699.373 526.382 702.92 526.382 706.76C526.382 710.6 527.316 714.147 529.182 717.4C531.102 720.653 533.689 723.24 536.942 725.16C540.196 727.027 543.742 727.96 547.582 727.96ZM628.948 679.8V732.84H623.428V687.56L605.508 713.48H600.868L582.948 687.56V733H577.508V679.8H584.228L603.188 707.24L622.148 679.8H628.948ZM647.841 679.8C650.934 679.8 653.788 680.573 656.401 682.12C659.014 683.667 661.094 685.747 662.641 688.36C664.188 690.973 664.961 693.8 664.961 696.84C664.961 699.88 664.188 702.707 662.641 705.32C661.094 707.933 659.014 710.013 656.401 711.56C653.788 713.053 650.934 713.8 647.841 713.8H638.481V733H632.961V679.8H647.841ZM647.841 708.44C649.921 708.44 651.841 707.933 653.601 706.92C655.414 705.853 656.828 704.44 657.841 702.68C658.908 700.867 659.441 698.92 659.441 696.84C659.441 694.76 658.908 692.84 657.841 691.08C656.828 689.32 655.414 687.933 653.601 686.92C651.841 685.853 649.921 685.32 647.841 685.32H638.481V708.44H647.841ZM694.02 733.4C689.166 733.4 684.713 732.2 680.66 729.8C676.606 727.4 673.38 724.173 670.98 720.12C668.58 716.067 667.38 711.613 667.38 706.76C667.38 701.907 668.58 697.453 670.98 693.4C673.38 689.293 676.606 686.04 680.66 683.64C684.766 681.24 689.22 680.04 694.02 680.04C698.82 680.04 703.273 681.24 707.38 683.64C711.486 686.04 714.74 689.293 717.14 693.4C719.54 697.507 720.74 701.96 720.74 706.76C720.74 711.56 719.54 716.013 717.14 720.12C714.74 724.173 711.486 727.4 707.38 729.8C703.326 732.2 698.873 733.4 694.02 733.4ZM694.02 727.96C697.86 727.96 701.406 727.027 704.66 725.16C707.913 723.24 710.473 720.653 712.34 717.4C714.26 714.147 715.22 710.6 715.22 706.76C715.22 702.92 714.26 699.373 712.34 696.12C710.473 692.867 707.913 690.307 704.66 688.44C701.406 686.52 697.86 685.56 694.02 685.56C690.18 685.56 686.633 686.52 683.38 688.44C680.126 690.307 677.54 692.867 675.62 696.12C673.753 699.373 672.82 702.92 672.82 706.76C672.82 710.6 673.753 714.147 675.62 717.4C677.54 720.653 680.126 723.24 683.38 725.16C686.633 727.027 690.18 727.96 694.02 727.96ZM729.385 685.24V703.88H745.305V709H729.385V727.56H753.065V733H723.945V679.8H753.065V685.24H729.385ZM747.865 664.92L744.265 675.88H739.305L742.425 664.92H747.865ZM789.055 685.16H775.375V733H769.935V685.16H756.255V679.8H789.055V685.16ZM797.713 679.8V733H792.273V679.8H797.713ZM827.791 733.48C822.884 733.48 818.378 732.28 814.271 729.88C810.164 727.48 806.911 724.227 804.511 720.12C802.111 716.013 800.911 711.507 800.911 706.6C800.911 701.693 802.111 697.187 804.511 693.08C806.911 688.92 810.164 685.64 814.271 683.24C818.431 680.787 822.938 679.56 827.791 679.56C831.738 679.56 835.498 680.387 839.071 682.04C842.644 683.64 845.684 685.96 848.191 689L844.031 692.52C842.004 690.173 839.551 688.36 836.671 687.08C833.844 685.747 830.884 685.08 827.791 685.08C823.951 685.08 820.378 686.067 817.071 688.04C813.818 689.96 811.231 692.573 809.311 695.88C807.391 699.187 806.431 702.76 806.431 706.6C806.431 710.44 807.391 714.013 809.311 717.32C811.231 720.573 813.818 723.16 817.071 725.08C820.378 727 823.951 727.96 827.791 727.96C830.884 727.96 833.844 727.32 836.671 726.04C839.551 724.707 842.004 722.867 844.031 720.52L848.191 724.04C845.684 727.027 842.644 729.347 839.071 731C835.498 732.653 831.738 733.48 827.791 733.48ZM880.46 713.4H861.74L854.86 733H849.02L867.66 679.88H874.54L893.18 733H887.34L880.46 713.4ZM878.7 708.28L871.1 686.52L863.5 708.28H878.7Z" fill="white"/>
<path d="M907.349 401.992L947.926 463.134L770.175 593.958L498.385 465.857L744.912 439.239L864.219 524.492L855.88 474.02L907.349 401.992Z" fill="#FF006B" fill-opacity="0.6"/>
<path d="M790.775 166.561L861.464 146.863L930.957 356.339L725.137 575.237L776.003 332.555L893.953 245.432L843.373 237.768L790.775 166.561Z" fill="#FF8A00" fill-opacity="0.6"/>
<path d="M530.84 204.676L533.951 131.36L754.652 130L899.237 393.387L684.148 270.018L637.737 130.922L614.817 176.656L530.84 204.676Z" fill="#80FF00" fill-opacity="0.6"/>
<path d="M486.767 463.662L418 438.047L484.907 227.731L780.086 171.615L596.287 338.052L449.654 339.208L486.069 375.138L486.767 463.662Z" fill="#00D1FF" fill-opacity="0.6"/>
<path d="M719.461 585.611L673.85 643.095L494.5 514.473L532.346 216.404L633.841 442.637L589.628 582.448L635.053 558.919L719.461 585.611Z" fill="#BD00FF" fill-opacity="0.6"/>
<path d="M956.762 471.148L780.071 601.192L736.928 580.857L819.231 493.322L873.556 532.141L865.265 481.97L916.427 410.371L956.762 471.148ZM762.508 452.79L735.779 580.315L620.734 526.091L641.754 459.618L754.96 447.396L762.508 452.79ZM512.05 474.865L509.905 473.854L512.21 473.605L512.05 474.865Z" fill="white"/>
<path d="M739.928 561.857L738.304 563.586L738.779 561.316L739.928 561.857ZM909.354 381.665L822.232 474.322L765.508 433.789L788.866 322.349L796.328 316.836L909.354 381.665ZM942.896 345.992L910.223 380.74L852.405 275.414L906.111 235.745L855.834 228.127L803.549 157.343L873.816 137.764L942.896 345.992Z" fill="white"/>
<path d="M897.365 381.818L895.353 380.664L896.223 379.738L897.365 381.818ZM838.406 274.414L782.329 315.835L683.559 259.184L680.623 250.383L777.205 162.924L838.406 274.414ZM776.593 161.811L658.557 184.25L637.425 120.916L614.642 166.378L531.167 194.23L534.259 121.352L753.642 120L776.593 161.811Z" fill="white"/>
<path d="M604.735 529.091L584.604 592.752L629.757 569.363L713.662 595.896L668.323 653.038L490.043 525.182L496.05 477.865L604.735 529.091ZM628.552 453.773L625.754 462.618L496.21 476.605L512.23 350.435L581.945 349.885L628.552 453.773ZM528.611 231.004L527.364 231.241L527.663 228.889L528.611 231.004Z" fill="white"/>
<path d="M505.229 337.435L438.465 337.961L474.662 373.677L475.355 461.674L407 436.212L473.508 227.148L520.364 218.24L505.229 337.435ZM668.622 260.383L584.222 336.812L574.945 336.885L521.611 218.003L646.556 194.249L668.622 260.383ZM765.204 172.923L764.593 171.81L766.924 171.367L765.204 172.923Z" fill="white"/>
</g>
<defs>
<clipPath id="clip0_99_102">
<rect width="1362" height="846" fill="white"/>
</clipPath>
</defs>
</svg>
