<svg width="21817" height="11960" viewBox="0 0 21817 11960" fill="none" xmlns="http://www.w3.org/2000/svg">
<rect width="21817" height="11960" fill="#6EACBD"/>
<g clip-path="url(#clip0_1413_574)">
<path d="M5515.78 9332.91C5508.97 9365.86 5511.75 9464.18 5520.5 9499.87C5533.54 9553.05 5563.89 9656.24 5575.84 9688.11C5604.2 9763.69 5639.91 9797.62 5696.66 9802.89C5731.34 9806.12 5761.67 9799.29 5850.24 9768.27C5932.58 9739.45 6140.5 9690.47 6229.09 9679.02C6248.55 9676.5 6324.93 9672.67 6398.83 9670.51C6530.22 9666.67 6560.65 9662.93 6556.65 9651.11C6554.44 9644.59 6557.95 9644.59 6369.71 9651.19C6262.5 9654.95 6216.86 9658.38 6179.55 9665.42C6084.38 9683.41 5945.88 9716.14 5890.53 9733.76C5737.8 9782.38 5738.4 9782.22 5706.61 9782.22C5679.15 9782.22 5672.94 9780.55 5654.07 9768.05C5626.31 9749.66 5608.28 9718.97 5585.86 9651.79C5543.21 9524.14 5525.28 9431.77 5532.4 9376.59C5538.9 9326.27 5538.16 9316.08 5528 9316.08C5521.49 9316.1 5518.36 9320.4 5515.78 9332.91ZM5152.86 9729.56C5148.67 9763.07 5125.54 9816.08 5103.23 9843.29C5064.98 9889.95 5005.36 9919.6 4954.57 9917.23C4886.13 9914.03 4900.01 9854.02 4981.35 9801.38C5005.77 9785.59 5146.72 9710.72 5152.32 9710.58C5153.93 9710.54 5154.18 9719.08 5152.86 9729.56ZM5153.76 9070.86C5083.67 9107.36 5016.12 9163.26 4969.35 9223.43C4923.86 9281.99 4911.04 9354.21 4935.18 9415.83C4945.01 9440.91 4951.94 9450.5 4974.37 9470.03C4989.36 9483.08 5013.7 9500.52 5028.47 9508.79C5107.24 9552.89 5137.75 9587.19 5150.49 9646C5154.93 9666.44 5156.11 9680.82 5153.55 9683.23C5151.25 9685.39 5113.11 9706.17 5068.77 9729.41C4969.46 9781.46 4944.62 9797.36 4918.11 9825.76C4901.94 9843.08 4896.07 9853.6 4891.71 9873.06C4886.15 9897.93 4886.2 9898.19 4900.12 9915.77C4920.3 9941.27 4958.98 9946.54 5010.64 9930.82C5096.9 9904.57 5164.74 9819.38 5173.36 9726.47L5176.26 9695.37L5203.13 9679.79C5234.17 9661.79 5238.63 9656.73 5230.5 9648.6C5225.64 9643.73 5220.62 9645.06 5201.69 9656.25L5178.73 9669.79L5174.13 9652.06C5171.61 9642.29 5167.55 9626.66 5165.13 9617.28C5162.71 9607.92 5152.09 9587.84 5141.54 9572.67C5121.43 9543.74 5094 9521.93 5038.09 9490.4C4993.83 9465.44 4966.42 9437.46 4952.75 9403.27C4942.68 9378.06 4941.97 9372.23 4945.33 9340.2C4950.08 9294.6 4959.38 9272.17 4990.69 9230.93C5032.88 9175.36 5100.09 9121 5171.75 9084.52C5200.98 9069.63 5214.29 9060.41 5214.3 9055.02C5214.34 9042.55 5201.9 9045.8 5153.76 9070.86ZM3985.4 9117.77C3979.38 9282.69 3966.99 9402.41 3941.88 9537.96C3921.1 9650.12 3906.85 9700.83 3877.93 9765.55C3864.15 9796.39 3863.48 9804.65 3874.82 9804.65C3881.21 9804.65 3887.74 9794.46 3901.43 9763.2C3959.58 9630.24 4005.18 9340.06 4005.18 9102.88C4005.18 9038.4 4004.62 9033.77 3996.82 9033.77C3989.07 9033.73 3988.24 9039.81 3985.4 9117.77ZM3705.1 9052.79C3705.03 9094.64 3695.61 9250.52 3689.29 9313.87C3677.09 9436.41 3660.05 9505.4 3619.65 9595.71C3598.1 9643.91 3596.52 9652.27 3609.06 9652.27C3624.92 9652.27 3681.32 9508.54 3694.36 9434.9C3709.84 9347.56 3723.04 9188.25 3723.04 9088.74C3723.04 9036.75 3722.55 9033.77 3714.09 9033.77C3706.54 9033.73 3705.14 9036.73 3705.1 9052.79ZM4525.64 9046.06C4573.74 9095.89 4560.84 9191.45 4494.2 9279.08C4440.54 9349.63 4384.28 9391.01 4305.48 9417.86C4274.82 9428.31 4249.02 9436.13 4248.13 9435.23C4245.78 9432.88 4284.81 9291.02 4303.71 9233.18C4330.14 9152.27 4360.27 9099.93 4399.28 9067.21C4427.27 9043.72 4459.56 9029.81 4486.82 9029.51C4507.21 9029.29 4511 9030.88 4525.64 9046.06ZM4437.05 9019.03C4385.49 9042.7 4340.67 9090.57 4311.99 9152.51C4305.15 9167.3 4291.7 9202.6 4282.12 9230.95C4272.54 9259.3 4265.63 9277.46 4266.75 9271.29C4267.89 9265.13 4270.21 9245.48 4271.93 9227.6C4274.87 9196.81 4274.56 9195.1 4265.85 9195.1C4254.69 9195.1 4255.82 9189.85 4237.86 9327.32C4227.05 9410.13 4220.4 9445.33 4208.92 9480.28C4176.32 9579.69 4165.59 9634.02 4175.05 9651.72C4192.78 9684.88 4219.59 9621.71 4233.77 9513.32C4236.84 9489.91 4239.85 9470.11 4240.46 9469.34C4243.67 9465.34 4338 9530.45 4394.67 9575.76C4495.66 9656.55 4550.8 9688.34 4638.85 9716.57C4709.27 9739.14 4749.34 9747.53 4755.81 9741.05C4765.36 9731.5 4757.36 9726.31 4719.45 9717.58C4699.74 9713.04 4660.69 9701.43 4632.67 9691.78C4545.83 9661.89 4509.61 9640.8 4415.32 9565.17C4378.15 9535.36 4329.1 9499.22 4306.3 9484.85C4283.53 9470.48 4264.94 9457.4 4265.01 9455.76C4265.08 9454.13 4286.75 9445.75 4313.15 9437.13C4372.24 9417.85 4423.6 9385.14 4469.06 9337.91C4535.25 9269.12 4564.93 9216.32 4573.53 9152.02C4577.63 9121.37 4577.11 9112.2 4569.58 9083.33C4562.38 9055.72 4557.59 9046.73 4541.64 9030.85C4523.9 9013.2 4520.09 9011.48 4493.26 9009.12C4467.81 9006.88 4460.84 9008.09 4437.05 9019.03ZM3111.11 9582.78C3116.1 9711.26 3104.27 9837.54 3080.79 9906.64C3052.66 9989.42 2994.92 10060.3 2951.48 10065.3C2936.37 10067.1 2933.32 10065.6 2922.49 10051.4C2910.72 10036 2910.4 10034 2910.84 9977.24C2911.91 9837.28 2982.62 9645.03 3074.33 9532.71C3093.65 9509.05 3102.88 9500.75 3105.11 9505C3106.88 9508.33 3109.59 9543.34 3111.11 9582.78ZM2970.33 8789.37C2912.42 8819.14 2821.2 8929.98 2732.35 9078.55C2632.47 9245.56 2606.97 9330.5 2636.58 9397.49C2646.64 9420.27 2648.76 9422.18 2671.66 9429.42C2695.9 9437.06 2696.18 9437.04 2724.43 9425.56C2740.16 9419.16 2767.32 9402.16 2785.29 9387.46C2832.41 9348.93 2933.83 9239.26 2983.93 9172.68C3010.96 9136.76 3033.65 9115.31 3042.23 9117.56C3058.24 9121.76 3076.61 9216.62 3098.28 9407.18L3105.34 9469.13L3074.03 9502.68C3033.7 9545.9 3012.54 9578.18 2977.44 9650C2915.39 9777 2879.78 9923.55 2889.64 10011.4C2892.71 10038.8 2896.34 10049.9 2907.68 10066.3C2921.56 10086.5 2922.4 10087 2945.8 10087C2966.98 10087 2972.74 10084.8 2995.95 10067.6C3057.46 10022.2 3096.27 9951.5 3119.43 9842.73C3128.06 9802.14 3129.05 9782.57 3129.68 9635.72L3130.4 9473.54L3154.67 9453.92C3223.81 9398.03 3291.75 9362.19 3355.84 9347.75C3394.85 9338.97 3396.15 9338.37 3396.15 9329.24C3396.15 9318.08 3386.14 9318.15 3340.69 9329.61C3282.6 9344.25 3212.46 9382.54 3135.89 9441.42L3124.19 9450.41L3118.87 9402.3C3109.57 9318.1 3091.47 9193.84 3084.14 9163.7C3073.08 9118.35 3065.41 9102.09 3053.64 9099.14C3047.88 9097.7 3040.2 9095.36 3036.55 9093.96C3027.1 9090.32 3001.32 9114.43 2969.42 9156.73C2923.26 9217.9 2875.81 9271.14 2813.7 9331.34C2766.57 9377.06 2748.23 9391.76 2725.66 9402C2699.85 9413.72 2695.51 9414.44 2679.72 9409.7C2630.67 9394.99 2636.19 9303.7 2693 9190.57C2735.94 9105.07 2819.88 8974.63 2879.41 8900.93C2957.33 8804.46 3029.54 8770.45 3039.84 8825.43C3049.23 8875.46 2980.23 8991.03 2877.81 9096.84C2852.54 9122.94 2831.87 9147.65 2831.87 9151.74C2831.87 9168.62 2850.47 9157.39 2888.11 9117.79C2949.03 9053.72 2997.38 8990.38 3031.54 8929.89C3047.2 8902.2 3066.33 8841.87 3062.8 8831.43C3061.64 8828.04 3058.55 8816.82 3055.9 8806.51C3051.37 8788.82 3049.74 8787.35 3027 8780.74C3013.75 8776.93 3002.2 8773.88 3001.36 8774C3000.5 8774.12 2986.55 8781.04 2970.33 8789.37Z" fill="white"/>
</g>
<line x1="1291" y1="9932" x2="7767" y2="9936" stroke="white" stroke-width="10"/>
<path d="M3017.5 10192.8C3038.69 10192.8 3054.15 10197 3063.88 10205.3C3073.69 10213.5 3078.59 10225.3 3078.59 10240.8C3078.59 10247.7 3077.43 10254.4 3075.11 10260.6C3072.87 10266.9 3069.2 10272.4 3064.11 10277.2C3059.01 10281.9 3052.31 10285.6 3044 10288.4C3035.77 10291.1 3025.66 10292.4 3013.68 10292.4H2993.69V10357H2974.6V10192.8H3017.5ZM3015.7 10209.1H2993.69V10276H3011.55C3022.03 10276 3030.75 10274.9 3037.71 10272.7C3044.75 10270.4 3050.03 10266.8 3053.55 10261.8C3057.07 10256.7 3058.83 10249.9 3058.83 10241.6C3058.83 10230.6 3055.35 10222.5 3048.38 10217.2C3041.42 10211.8 3030.53 10209.1 3015.7 10209.1ZM3166.08 10231.7C3168.55 10231.7 3171.13 10231.8 3173.83 10232.1C3176.52 10232.3 3178.92 10232.7 3181.01 10233.1L3178.66 10250.4C3176.63 10249.9 3174.39 10249.5 3171.92 10249.2C3169.45 10248.9 3167.13 10248.7 3164.96 10248.7C3160.01 10248.7 3155.33 10249.7 3150.92 10251.8C3146.57 10253.7 3142.76 10256.6 3139.46 10260.3C3136.17 10264 3133.58 10268.4 3131.71 10273.7C3129.84 10278.8 3128.91 10284.6 3128.91 10291V10357H3110.15V10233.9H3125.65L3127.67 10256.6H3128.46C3131 10252 3134.07 10247.9 3137.67 10244.1C3141.26 10240.3 3145.41 10237.3 3150.13 10235C3154.92 10232.8 3160.24 10231.7 3166.08 10231.7ZM3310.39 10295.2C3310.39 10305.3 3309.08 10314.4 3306.46 10322.3C3303.84 10330.2 3300.06 10336.9 3295.12 10342.4C3290.17 10347.9 3284.19 10352.1 3277.15 10355C3270.18 10357.8 3262.29 10359.2 3253.45 10359.2C3245.22 10359.2 3237.65 10357.8 3230.77 10355C3223.95 10352.1 3218.04 10347.9 3213.02 10342.4C3208.08 10336.9 3204.22 10330.2 3201.45 10322.3C3198.76 10314.4 3197.41 10305.3 3197.41 10295.2C3197.41 10281.8 3199.69 10270.3 3204.26 10260.9C3208.83 10251.4 3215.34 10244.1 3223.8 10239.2C3232.34 10234.2 3242.48 10231.7 3254.24 10231.7C3265.47 10231.7 3275.28 10234.2 3283.66 10239.2C3292.12 10244.2 3298.67 10251.5 3303.31 10261C3308.03 10270.4 3310.39 10281.8 3310.39 10295.2ZM3216.73 10295.2C3216.73 10305.1 3218.04 10313.7 3220.66 10321C3223.28 10328.2 3227.32 10333.8 3232.79 10337.8C3238.25 10341.8 3245.29 10343.7 3253.9 10343.7C3262.44 10343.7 3269.44 10341.8 3274.9 10337.8C3280.44 10333.8 3284.52 10328.2 3287.14 10321C3289.76 10313.7 3291.07 10305.1 3291.07 10295.2C3291.07 10285.4 3289.76 10277 3287.14 10269.9C3284.52 10262.7 3280.48 10257.1 3275.01 10253.2C3269.55 10249.3 3262.47 10247.4 3253.79 10247.4C3240.99 10247.4 3231.59 10251.6 3225.6 10260.1C3219.68 10268.5 3216.73 10280.3 3216.73 10295.2ZM3397.43 10248.5H3366.77V10357H3348.12V10248.5H3326.34V10239.5L3348.12 10233.4V10225.2C3348.12 10214.8 3349.66 10206.4 3352.73 10200C3355.8 10193.5 3360.25 10188.7 3366.09 10185.6C3371.93 10182.6 3379.05 10181 3387.43 10181C3392.15 10181 3396.45 10181.4 3400.35 10182.3C3404.31 10183.1 3407.8 10184 3410.79 10185.1L3405.96 10199.8C3403.42 10198.9 3400.53 10198.2 3397.31 10197.5C3394.17 10196.8 3390.95 10196.4 3387.66 10196.4C3380.54 10196.4 3375.26 10198.7 3371.82 10203.4C3368.45 10207.9 3366.77 10215.1 3366.77 10224.9V10233.9H3397.43V10248.5ZM3417.3 10345.3C3417.3 10340.1 3418.58 10336.4 3421.12 10334.2C3423.67 10332 3426.77 10330.8 3430.44 10330.8C3434.26 10330.8 3437.48 10332 3440.1 10334.2C3442.72 10336.4 3444.03 10340.1 3444.03 10345.3C3444.03 10350.5 3442.72 10354.3 3440.1 10356.7C3437.48 10359 3434.26 10360.1 3430.44 10360.1C3426.77 10360.1 3423.67 10359 3421.12 10356.7C3418.58 10354.3 3417.3 10350.5 3417.3 10345.3ZM3673.47 10273.3C3673.47 10291.8 3670.1 10307.3 3663.36 10319.7C3656.62 10332.1 3646.85 10341.4 3634.05 10347.7C3621.32 10353.9 3605.86 10357 3587.67 10357H3543.08V10192.8H3592.61C3609.31 10192.8 3623.68 10195.9 3635.74 10202C3647.79 10208.1 3657.07 10217.1 3663.59 10229.1C3670.18 10241 3673.47 10255.7 3673.47 10273.3ZM3653.37 10274C3653.37 10259.3 3650.9 10247.1 3645.96 10237.5C3641.09 10227.9 3633.9 10220.8 3624.39 10216.2C3614.96 10211.5 3603.39 10209.1 3589.69 10209.1H3562.18V10340.6H3585.42C3608.03 10340.6 3624.99 10335 3636.3 10323.9C3647.68 10312.7 3653.37 10296.1 3653.37 10274ZM3763.09 10231.7C3765.56 10231.7 3768.14 10231.8 3770.84 10232.1C3773.53 10232.3 3775.93 10232.7 3778.03 10233.1L3775.67 10250.4C3773.65 10249.9 3771.4 10249.5 3768.93 10249.2C3766.46 10248.9 3764.14 10248.7 3761.97 10248.7C3757.03 10248.7 3752.35 10249.7 3747.93 10251.8C3743.59 10253.7 3739.77 10256.6 3736.47 10260.3C3733.18 10264 3730.6 10268.4 3728.72 10273.7C3726.85 10278.8 3725.92 10284.6 3725.92 10291V10357H3707.16V10233.9H3722.66L3724.68 10256.6H3725.47C3728.01 10252 3731.08 10247.9 3734.68 10244.1C3738.27 10240.3 3742.43 10237.3 3747.14 10235C3751.93 10232.8 3757.25 10231.7 3763.09 10231.7ZM3798.47 10345.3C3798.47 10340.1 3799.74 10336.4 3802.28 10334.2C3804.83 10332 3807.94 10330.8 3811.61 10330.8C3815.42 10330.8 3818.64 10332 3821.26 10334.2C3823.88 10336.4 3825.19 10340.1 3825.19 10345.3C3825.19 10350.5 3823.88 10354.3 3821.26 10356.7C3818.64 10359 3815.42 10360.1 3811.61 10360.1C3807.94 10360.1 3804.83 10359 3802.28 10356.7C3799.74 10354.3 3798.47 10350.5 3798.47 10345.3ZM3994.44 10271H4051.83V10350.6C4043.22 10353.5 4034.34 10355.7 4025.21 10357.1C4016.15 10358.5 4006 10359.2 3994.77 10359.2C3977.7 10359.2 3963.29 10355.8 3951.54 10349C3939.86 10342.2 3930.99 10332.5 3924.92 10319.9C3918.86 10307.3 3915.82 10292.3 3915.82 10274.9C3915.82 10257.9 3919.16 10243.1 3925.82 10230.4C3932.56 10217.8 3942.25 10208 3954.91 10201C3967.63 10194 3982.91 10190.5 4000.73 10190.5C4009.86 10190.5 4018.51 10191.3 4026.67 10193C4034.9 10194.7 4042.54 10197 4049.58 10200.1L4042.28 10216.7C4036.21 10214.1 4029.51 10211.9 4022.18 10210C4014.91 10208.1 4007.39 10207.2 3999.6 10207.2C3986.2 10207.2 3974.71 10210 3965.13 10215.5C3955.62 10221 3948.32 10228.9 3943.23 10239C3938.21 10249.1 3935.7 10261.1 3935.7 10274.9C3935.7 10288.6 3937.91 10300.5 3942.33 10310.7C3946.75 10320.8 3953.63 10328.7 3962.99 10334.3C3972.35 10339.9 3984.4 10342.7 3999.15 10342.7C4006.57 10342.7 4012.93 10342.3 4018.25 10341.5C4023.56 10340.6 4028.39 10339.6 4032.73 10338.4V10288H3994.44V10271ZM4190.41 10233.9V10357H4175.14L4172.44 10339.7H4171.43C4168.88 10344 4165.59 10347.6 4161.55 10350.5C4157.5 10353.4 4152.94 10355.6 4147.85 10357C4142.83 10358.5 4137.48 10359.2 4131.79 10359.2C4122.05 10359.2 4113.89 10357.7 4107.3 10354.5C4100.72 10351.4 4095.74 10346.5 4092.37 10339.9C4089.07 10333.3 4087.43 10324.9 4087.43 10314.5V10233.9H4106.29V10313.2C4106.29 10323.5 4108.61 10331.1 4113.26 10336.2C4117.9 10341.2 4124.97 10343.7 4134.48 10343.7C4143.62 10343.7 4150.88 10342 4156.27 10338.6C4161.73 10335.1 4165.66 10330.1 4168.06 10323.4C4170.46 10316.7 4171.65 10308.4 4171.65 10298.7V10233.9H4190.41ZM4248.47 10233.9V10357H4229.83V10233.9H4248.47ZM4239.37 10187.9C4242.44 10187.9 4245.06 10188.9 4247.24 10190.9C4249.48 10192.8 4250.6 10195.9 4250.6 10200.1C4250.6 10204.2 4249.48 10207.3 4247.24 10209.3C4245.06 10211.3 4242.44 10212.4 4239.37 10212.4C4236.15 10212.4 4233.46 10211.3 4231.29 10209.3C4229.19 10207.3 4228.14 10204.2 4228.14 10200.1C4228.14 10195.9 4229.19 10192.8 4231.29 10190.9C4233.46 10188.9 4236.15 10187.9 4239.37 10187.9ZM4306.76 10357H4288V10182.3H4306.76V10357ZM4364.82 10182.3V10234.5C4364.82 10237.5 4364.74 10240.5 4364.59 10243.6C4364.44 10246.6 4364.18 10249.3 4363.81 10251.9H4365.04C4367.59 10247.5 4370.81 10243.9 4374.7 10241C4378.67 10238 4383.16 10235.7 4388.18 10234.3C4393.19 10232.7 4398.51 10231.9 4404.12 10231.9C4414.01 10231.9 4422.24 10233.5 4428.83 10236.6C4435.5 10239.8 4440.47 10244.6 4443.77 10251.2C4447.14 10257.8 4448.82 10266.3 4448.82 10276.8V10357H4430.4V10278C4430.4 10267.8 4428.05 10260.1 4423.33 10255C4418.69 10249.9 4411.54 10247.4 4401.88 10247.4C4392.74 10247.4 4385.44 10249.2 4379.98 10252.7C4374.59 10256.1 4370.7 10261.2 4368.3 10267.9C4365.98 10274.7 4364.82 10282.9 4364.82 10292.6V10357H4346.18V10182.3H4364.82ZM4534.62 10231.7C4545.1 10231.7 4554.09 10234 4561.58 10238.6C4569.06 10243.3 4574.79 10249.8 4578.76 10258.2C4582.73 10266.5 4584.71 10276.2 4584.71 10287.4V10298.9H4499.7C4499.92 10313.4 4503.51 10324.4 4510.48 10332C4517.44 10339.5 4527.25 10343.3 4539.9 10343.3C4547.69 10343.3 4554.58 10342.6 4560.57 10341.2C4566.56 10339.7 4572.77 10337.6 4579.21 10334.9V10351.3C4572.99 10354 4566.82 10356.1 4560.68 10357.3C4554.61 10358.6 4547.43 10359.2 4539.12 10359.2C4527.29 10359.2 4516.95 10356.9 4508.12 10352.1C4499.36 10347.2 4492.55 10340.1 4487.68 10330.7C4482.81 10321.4 4480.38 10309.9 4480.38 10296.4C4480.38 10283.1 4482.59 10271.6 4487.01 10262C4491.5 10252.3 4497.79 10244.8 4505.87 10239.5C4514.03 10234.3 4523.62 10231.7 4534.62 10231.7ZM4534.4 10246.9C4524.44 10246.9 4516.5 10250.2 4510.59 10256.7C4504.68 10263.2 4501.16 10272.3 4500.03 10284H4565.17C4565.1 10276.7 4563.93 10270.2 4561.69 10264.7C4559.52 10259.1 4556.19 10254.7 4551.69 10251.7C4547.2 10248.5 4541.44 10246.9 4534.4 10246.9ZM4672.31 10231.7C4674.78 10231.7 4677.36 10231.8 4680.06 10232.1C4682.75 10232.3 4685.15 10232.7 4687.25 10233.1L4684.89 10250.4C4682.87 10249.9 4680.62 10249.5 4678.15 10249.2C4675.68 10248.9 4673.36 10248.7 4671.19 10248.7C4666.24 10248.7 4661.56 10249.7 4657.15 10251.8C4652.81 10253.7 4648.99 10256.6 4645.69 10260.3C4642.4 10264 4639.82 10268.4 4637.94 10273.7C4636.07 10278.8 4635.14 10284.6 4635.14 10291V10357H4616.38V10233.9H4631.88L4633.9 10256.6H4634.69C4637.23 10252 4640.3 10247.9 4643.9 10244.1C4647.49 10240.3 4651.64 10237.3 4656.36 10235C4661.15 10232.8 4666.47 10231.7 4672.31 10231.7ZM4844.13 10231.7C4857.69 10231.7 4867.91 10235.2 4874.79 10242.3C4881.68 10249.4 4885.13 10260.7 4885.13 10276.4V10357H4866.71V10277.3C4866.71 10267.3 4864.54 10259.9 4860.19 10254.9C4855.93 10249.9 4849.56 10247.4 4841.1 10247.4C4829.2 10247.4 4820.55 10250.8 4815.16 10257.7C4809.77 10264.6 4807.07 10274.8 4807.07 10288.2V10357H4788.54V10277.3C4788.54 10270.6 4787.57 10265.1 4785.62 10260.6C4783.75 10256.2 4780.91 10252.9 4777.09 10250.8C4773.35 10248.5 4768.59 10247.4 4762.83 10247.4C4754.67 10247.4 4748.11 10249.1 4743.17 10252.4C4738.23 10255.8 4734.64 10260.8 4732.39 10267.5C4730.22 10274.1 4729.13 10282.2 4729.13 10291.9V10357H4710.49V10233.9H4725.54L4728.35 10251.3H4729.36C4731.83 10247.1 4734.94 10243.5 4738.68 10240.5C4742.42 10237.6 4746.62 10235.4 4751.26 10233.9C4755.9 10232.4 4760.84 10231.7 4766.08 10231.7C4775.44 10231.7 4783.27 10233.4 4789.55 10236.9C4795.92 10240.4 4800.52 10245.7 4803.37 10252.8H4804.38C4808.42 10245.7 4813.96 10240.4 4821 10236.9C4828.04 10233.4 4835.75 10231.7 4844.13 10231.7ZM4970.81 10231.7C4981.3 10231.7 4990.28 10234 4997.77 10238.6C5005.25 10243.3 5010.98 10249.8 5014.95 10258.2C5018.92 10266.5 5020.9 10276.2 5020.9 10287.4V10298.9H4935.89C4936.11 10313.4 4939.71 10324.4 4946.67 10332C4953.63 10339.5 4963.44 10343.3 4976.09 10343.3C4983.88 10343.3 4990.77 10342.6 4996.76 10341.2C5002.75 10339.7 5008.96 10337.6 5015.4 10334.9V10351.3C5009.19 10354 5003.01 10356.1 4996.87 10357.3C4990.8 10358.6 4983.62 10359.2 4975.31 10359.2C4963.48 10359.2 4953.15 10356.9 4944.31 10352.1C4935.55 10347.2 4928.74 10340.1 4923.87 10330.7C4919 10321.4 4916.57 10309.9 4916.57 10296.4C4916.57 10283.1 4918.78 10271.6 4923.2 10262C4927.69 10252.3 4933.98 10244.8 4942.06 10239.5C4950.23 10234.3 4959.81 10231.7 4970.81 10231.7ZM4970.59 10246.9C4960.63 10246.9 4952.7 10250.2 4946.78 10256.7C4940.87 10263.2 4937.35 10272.3 4936.22 10284H5001.36C5001.29 10276.7 5000.13 10270.2 4997.88 10264.7C4995.71 10259.1 4992.38 10254.7 4987.88 10251.7C4983.39 10248.5 4977.63 10246.9 4970.59 10246.9ZM5159.49 10192.8C5172.96 10192.8 5184.08 10194.5 5192.84 10197.9C5201.68 10201.2 5208.26 10206.2 5212.61 10213C5216.95 10219.8 5219.12 10228.5 5219.12 10239.1C5219.12 10247.8 5217.55 10255 5214.4 10260.9C5211.26 10266.6 5207.14 10271.3 5202.05 10274.9C5196.96 10278.5 5191.53 10281.3 5185.77 10283.2L5230.8 10357H5208.56L5168.36 10288.5H5134.22V10357H5115.13V10192.8H5159.49ZM5158.36 10209.3H5134.22V10272.3H5160.27C5173.67 10272.3 5183.52 10269.6 5189.81 10264.1C5196.17 10258.7 5199.35 10250.6 5199.35 10240C5199.35 10228.8 5195.99 10220.9 5189.25 10216.3C5182.58 10211.6 5172.29 10209.3 5158.36 10209.3ZM5300.32 10231.9C5314.99 10231.9 5325.88 10235.2 5333 10241.8C5340.11 10248.4 5343.67 10258.9 5343.67 10273.3V10357H5330.08L5326.48 10338.8H5325.58C5322.14 10343.3 5318.55 10347.1 5314.8 10350.1C5311.06 10353.1 5306.72 10355.4 5301.78 10357C5296.91 10358.5 5290.92 10359.2 5283.81 10359.2C5276.32 10359.2 5269.66 10357.9 5263.82 10355.3C5258.05 10352.7 5253.49 10348.7 5250.12 10343.4C5246.82 10338.1 5245.17 10331.4 5245.17 10323.2C5245.17 10310.9 5250.04 10301.5 5259.77 10294.9C5269.51 10288.3 5284.33 10284.7 5304.25 10284.1L5325.47 10283.2V10275.7C5325.47 10265.1 5323.19 10257.6 5318.62 10253.3C5314.06 10249.1 5307.62 10246.9 5299.31 10246.9C5292.87 10246.9 5286.73 10247.9 5280.89 10249.7C5275.05 10251.6 5269.51 10253.8 5264.27 10256.4L5258.54 10242.2C5264.08 10239.4 5270.44 10236.9 5277.63 10234.9C5284.82 10232.9 5292.38 10231.9 5300.32 10231.9ZM5325.25 10296.4L5306.49 10297.1C5291.14 10297.7 5280.33 10300.2 5274.04 10304.7C5267.75 10309.1 5264.6 10315.3 5264.6 10323.4C5264.6 10330.5 5266.74 10335.7 5271 10339C5275.27 10342.4 5280.93 10344.1 5287.96 10344.1C5298.89 10344.1 5307.84 10341.1 5314.8 10335C5321.77 10328.9 5325.25 10319.8 5325.25 10307.7V10296.4ZM5440.36 10231.7C5454.96 10231.7 5466 10235.3 5473.49 10242.4C5480.98 10249.6 5484.72 10261 5484.72 10276.8V10357H5466.3V10278C5466.3 10267.8 5463.94 10260.1 5459.23 10255C5454.59 10249.9 5447.44 10247.4 5437.78 10247.4C5424.15 10247.4 5414.57 10251.2 5409.03 10259C5403.49 10266.7 5400.72 10277.9 5400.72 10292.5V10357H5382.07V10233.9H5397.12L5399.93 10251.7H5400.94C5403.56 10247.3 5406.89 10243.7 5410.94 10240.8C5414.98 10237.8 5419.51 10235.5 5424.53 10234C5429.54 10232.5 5434.82 10231.7 5440.36 10231.7ZM5629.26 10295.2C5629.26 10305.3 5627.95 10314.4 5625.33 10322.3C5622.71 10330.2 5618.92 10336.9 5613.98 10342.4C5609.04 10347.9 5603.05 10352.1 5596.01 10355C5589.05 10357.8 5581.15 10359.2 5572.32 10359.2C5564.08 10359.2 5556.52 10357.8 5549.63 10355C5542.82 10352.1 5536.9 10347.9 5531.89 10342.4C5526.95 10336.9 5523.09 10330.2 5520.32 10322.3C5517.63 10314.4 5516.28 10305.3 5516.28 10295.2C5516.28 10281.8 5518.56 10270.3 5523.13 10260.9C5527.7 10251.4 5534.21 10244.1 5542.67 10239.2C5551.21 10234.2 5561.35 10231.7 5573.1 10231.7C5584.33 10231.7 5594.14 10234.2 5602.53 10239.2C5610.99 10244.2 5617.54 10251.5 5622.18 10261C5626.9 10270.4 5629.26 10281.8 5629.26 10295.2ZM5535.59 10295.2C5535.59 10305.1 5536.9 10313.7 5539.53 10321C5542.15 10328.2 5546.19 10333.8 5551.65 10337.8C5557.12 10341.8 5564.16 10343.7 5572.77 10343.7C5581.3 10343.7 5588.3 10341.8 5593.77 10337.8C5599.31 10333.8 5603.39 10328.2 5606.01 10321C5608.63 10313.7 5609.94 10305.1 5609.94 10295.2C5609.94 10285.4 5608.63 10277 5606.01 10269.9C5603.39 10262.7 5599.35 10257.1 5593.88 10253.2C5588.42 10249.3 5581.34 10247.4 5572.66 10247.4C5559.85 10247.4 5550.46 10251.6 5544.47 10260.1C5538.55 10268.5 5535.59 10280.3 5535.59 10295.2ZM5642.06 10233.9H5662.05L5689.23 10305.3C5690.8 10309.5 5692.26 10313.6 5693.61 10317.5C5694.96 10321.3 5696.15 10325 5697.2 10328.5C5698.25 10332 5699.07 10335.4 5699.67 10338.7H5700.46C5701.51 10335 5703 10330 5704.95 10324C5706.9 10317.8 5708.99 10311.6 5711.24 10305.2L5736.96 10233.9H5757.06L5703.49 10375.1C5700.65 10382.6 5697.31 10389.2 5693.5 10394.8C5689.75 10400.5 5685.18 10404.8 5679.79 10407.8C5674.4 10410.8 5667.89 10412.4 5660.25 10412.4C5656.73 10412.4 5653.63 10412.1 5650.93 10411.7C5648.24 10411.3 5645.92 10410.9 5643.97 10410.3V10395.4C5645.62 10395.8 5647.6 10396.1 5649.92 10396.4C5652.32 10396.7 5654.79 10396.9 5657.33 10396.9C5661.97 10396.9 5665.98 10396 5669.35 10394.2C5672.79 10392.5 5675.75 10389.9 5678.22 10386.5C5680.69 10383.2 5682.83 10379.2 5684.62 10374.5L5691.36 10357.2L5642.06 10233.9ZM5822.76 10231.9C5837.43 10231.9 5848.33 10235.2 5855.44 10241.8C5862.55 10248.4 5866.11 10258.9 5866.11 10273.3V10357H5852.52L5848.92 10338.8H5848.03C5844.58 10343.3 5840.99 10347.1 5837.25 10350.1C5833.5 10353.1 5829.16 10355.4 5824.22 10357C5819.35 10358.5 5813.36 10359.2 5806.25 10359.2C5798.76 10359.2 5792.1 10357.9 5786.26 10355.3C5780.49 10352.7 5775.93 10348.7 5772.56 10343.4C5769.26 10338.1 5767.62 10331.4 5767.62 10323.2C5767.62 10310.9 5772.48 10301.5 5782.22 10294.9C5791.95 10288.3 5806.77 10284.7 5826.69 10284.1L5847.91 10283.2V10275.7C5847.91 10265.1 5845.63 10257.6 5841.06 10253.3C5836.5 10249.1 5830.06 10246.9 5821.75 10246.9C5815.31 10246.9 5809.17 10247.9 5803.33 10249.7C5797.49 10251.6 5791.95 10253.8 5786.71 10256.4L5780.98 10242.2C5786.52 10239.4 5792.88 10236.9 5800.07 10234.9C5807.26 10232.9 5814.82 10231.9 5822.76 10231.9ZM5847.69 10296.4L5828.93 10297.1C5813.59 10297.7 5802.77 10300.2 5796.48 10304.7C5790.19 10309.1 5787.04 10315.3 5787.04 10323.4C5787.04 10330.5 5789.18 10335.7 5793.45 10339C5797.71 10342.4 5803.37 10344.1 5810.4 10344.1C5821.34 10344.1 5830.28 10341.1 5837.25 10335C5844.21 10328.9 5847.69 10319.8 5847.69 10307.7V10296.4ZM2156.12 10520.3C2147.06 10520.3 2138.9 10521.9 2131.64 10525C2124.45 10528.1 2118.31 10532.6 2113.22 10538.5C2108.21 10544.3 2104.35 10551.4 2101.65 10559.7C2098.96 10568 2097.61 10577.4 2097.61 10587.8C2097.61 10601.6 2099.75 10613.5 2104.01 10623.7C2108.36 10633.8 2114.79 10641.7 2123.33 10647.2C2131.94 10652.7 2142.68 10655.5 2155.56 10655.5C2162.9 10655.5 2169.79 10654.9 2176.22 10653.7C2182.74 10652.4 2189.06 10650.9 2195.2 10649V10665.6C2189.21 10667.9 2182.93 10669.5 2176.34 10670.6C2169.75 10671.7 2161.92 10672.2 2152.87 10672.2C2136.17 10672.2 2122.21 10668.8 2110.98 10661.9C2099.82 10655 2091.43 10645.1 2085.82 10632.5C2080.28 10619.8 2077.51 10604.9 2077.51 10587.7C2077.51 10575.3 2079.23 10563.9 2082.67 10553.7C2086.19 10543.3 2091.28 10534.4 2097.95 10526.9C2104.69 10519.4 2112.92 10513.7 2122.66 10509.6C2132.46 10505.5 2143.69 10503.5 2156.35 10503.5C2164.66 10503.5 2172.67 10504.3 2180.38 10505.9C2188.09 10507.6 2195.05 10509.9 2201.27 10513L2193.63 10529.2C2188.39 10526.8 2182.63 10524.7 2176.34 10523C2170.12 10521.2 2163.38 10520.3 2156.12 10520.3ZM2334.12 10608.2C2334.12 10618.3 2332.81 10627.4 2330.19 10635.3C2327.57 10643.2 2323.79 10649.9 2318.85 10655.4C2313.91 10660.9 2307.92 10665.1 2300.88 10668C2293.92 10670.8 2286.02 10672.2 2277.19 10672.2C2268.95 10672.2 2261.39 10670.8 2254.5 10668C2247.69 10665.1 2241.77 10660.9 2236.76 10655.4C2231.82 10649.9 2227.96 10643.2 2225.19 10635.3C2222.49 10627.4 2221.15 10618.3 2221.15 10608.2C2221.15 10594.8 2223.43 10583.3 2228 10573.9C2232.56 10564.4 2239.08 10557.1 2247.54 10552.2C2256.07 10547.2 2266.22 10544.7 2277.97 10544.7C2289.2 10544.7 2299.01 10547.2 2307.4 10552.2C2315.86 10557.2 2322.41 10564.5 2327.05 10574C2331.77 10583.4 2334.12 10594.8 2334.12 10608.2ZM2240.46 10608.2C2240.46 10618.1 2241.77 10626.7 2244.39 10634C2247.01 10641.2 2251.06 10646.8 2256.52 10650.8C2261.99 10654.8 2269.03 10656.7 2277.64 10656.7C2286.17 10656.7 2293.17 10654.8 2298.64 10650.8C2304.18 10646.8 2308.26 10641.2 2310.88 10634C2313.5 10626.7 2314.81 10618.1 2314.81 10608.2C2314.81 10598.4 2313.5 10590 2310.88 10582.9C2308.26 10575.7 2304.21 10570.1 2298.75 10566.2C2293.28 10562.3 2286.21 10560.4 2277.52 10560.4C2264.72 10560.4 2255.32 10564.6 2249.33 10573.1C2243.42 10581.5 2240.46 10593.3 2240.46 10608.2ZM2472.48 10608.2C2472.48 10618.3 2471.17 10627.4 2468.55 10635.3C2465.93 10643.2 2462.15 10649.9 2457.21 10655.4C2452.27 10660.9 2446.28 10665.1 2439.24 10668C2432.28 10670.8 2424.38 10672.2 2415.55 10672.2C2407.31 10672.2 2399.75 10670.8 2392.86 10668C2386.05 10665.1 2380.13 10660.9 2375.12 10655.4C2370.17 10649.9 2366.32 10643.2 2363.55 10635.3C2360.85 10627.4 2359.51 10618.3 2359.51 10608.2C2359.51 10594.8 2361.79 10583.3 2366.36 10573.9C2370.92 10564.4 2377.44 10557.1 2385.9 10552.2C2394.43 10547.2 2404.58 10544.7 2416.33 10544.7C2427.56 10544.7 2437.37 10547.2 2445.76 10552.2C2454.22 10557.2 2460.77 10564.5 2465.41 10574C2470.13 10583.4 2472.48 10594.8 2472.48 10608.2ZM2378.82 10608.2C2378.82 10618.1 2380.13 10626.7 2382.75 10634C2385.37 10641.2 2389.42 10646.8 2394.88 10650.8C2400.35 10654.8 2407.39 10656.7 2416 10656.7C2424.53 10656.7 2431.53 10654.8 2437 10650.8C2442.54 10646.8 2446.62 10641.2 2449.24 10634C2451.86 10626.7 2453.17 10618.1 2453.17 10608.2C2453.17 10598.4 2451.86 10590 2449.24 10582.9C2446.62 10575.7 2442.57 10570.1 2437.11 10566.2C2431.64 10562.3 2424.57 10560.4 2415.88 10560.4C2403.08 10560.4 2393.68 10564.6 2387.69 10573.1C2381.78 10581.5 2378.82 10593.3 2378.82 10608.2ZM2560.64 10544.7C2563.11 10544.7 2565.7 10544.8 2568.39 10545.1C2571.09 10545.3 2573.48 10545.7 2575.58 10546.1L2573.22 10563.4C2571.2 10562.9 2568.95 10562.5 2566.48 10562.2C2564.01 10561.9 2561.69 10561.7 2559.52 10561.7C2554.58 10561.7 2549.9 10562.7 2545.48 10564.8C2541.14 10566.7 2537.32 10569.6 2534.03 10573.3C2530.73 10577 2528.15 10581.4 2526.28 10586.7C2524.41 10591.8 2523.47 10597.6 2523.47 10604V10670H2504.72V10546.9H2520.21L2522.24 10569.6H2523.02C2525.57 10565 2528.64 10560.9 2532.23 10557.1C2535.82 10553.3 2539.98 10550.3 2544.7 10548C2549.49 10545.8 2554.8 10544.7 2560.64 10544.7ZM2642.63 10672.2C2627.05 10672.2 2614.7 10666.9 2605.57 10656.3C2596.51 10645.7 2591.98 10629.9 2591.98 10608.9C2591.98 10587.7 2596.62 10571.7 2605.9 10561C2615.19 10550.1 2627.54 10544.7 2642.96 10544.7C2649.48 10544.7 2655.17 10545.5 2660.03 10547.3C2664.9 10549 2669.09 10551.3 2672.61 10554.2C2676.13 10557.1 2679.09 10560.3 2681.48 10564H2682.83C2682.53 10561.7 2682.23 10558.5 2681.93 10554.4C2681.63 10550.4 2681.48 10547.1 2681.48 10544.6V10495.3H2700.13V10670H2685.08L2682.27 10652.5H2681.48C2679.16 10656.1 2676.21 10659.5 2672.61 10662.5C2669.09 10665.5 2664.86 10667.9 2659.92 10669.7C2655.05 10671.4 2649.29 10672.2 2642.63 10672.2ZM2645.55 10656.7C2658.72 10656.7 2668.04 10653 2673.51 10645.5C2678.98 10638 2681.71 10626.9 2681.71 10612.2V10608.8C2681.71 10593.1 2679.09 10581.1 2673.85 10572.7C2668.68 10564.4 2659.25 10560.2 2645.55 10560.2C2634.09 10560.2 2625.52 10564.6 2619.83 10573.4C2614.14 10582.2 2611.29 10594.2 2611.29 10609.4C2611.29 10624.5 2614.1 10636.2 2619.72 10644.4C2625.41 10652.6 2634.02 10656.7 2645.55 10656.7ZM2787.05 10544.7C2797.53 10544.7 2806.52 10547 2814 10551.6C2821.49 10556.3 2827.22 10562.8 2831.19 10571.2C2835.15 10579.5 2837.14 10589.2 2837.14 10600.4V10611.9H2752.12C2752.35 10626.4 2755.94 10637.4 2762.9 10645C2769.87 10652.5 2779.68 10656.3 2792.33 10656.3C2800.11 10656.3 2807 10655.6 2812.99 10654.2C2818.98 10652.7 2825.2 10650.6 2831.63 10647.9V10664.3C2825.42 10667 2819.24 10669.1 2813.1 10670.3C2807.04 10671.6 2799.85 10672.2 2791.54 10672.2C2779.71 10672.2 2769.38 10669.9 2760.55 10665.1C2751.79 10660.2 2744.97 10653.1 2740.11 10643.7C2735.24 10634.4 2732.81 10622.9 2732.81 10609.4C2732.81 10596.1 2735.02 10584.6 2739.43 10575C2743.92 10565.3 2750.21 10557.8 2758.3 10552.5C2766.46 10547.3 2776.04 10544.7 2787.05 10544.7ZM2786.83 10559.9C2776.87 10559.9 2768.93 10563.2 2763.02 10569.7C2757.1 10576.2 2753.58 10585.3 2752.46 10597H2817.6C2817.52 10589.7 2816.36 10583.2 2814.12 10577.7C2811.94 10572.1 2808.61 10567.7 2804.12 10564.7C2799.63 10561.5 2793.86 10559.9 2786.83 10559.9ZM2927.09 10544.7C2941.69 10544.7 2952.74 10548.3 2960.22 10555.4C2967.71 10562.6 2971.45 10574 2971.45 10589.8V10670H2953.04V10591C2953.04 10580.8 2950.68 10573.1 2945.96 10568C2941.32 10562.9 2934.17 10560.4 2924.51 10560.4C2910.88 10560.4 2901.3 10564.2 2895.76 10572C2890.22 10579.7 2887.45 10590.9 2887.45 10605.5V10670H2868.81V10546.9H2883.86L2886.66 10564.7H2887.67C2890.3 10560.3 2893.63 10556.7 2897.67 10553.8C2901.71 10550.8 2906.24 10548.5 2911.26 10547C2916.28 10545.5 2921.55 10544.7 2927.09 10544.7ZM3055.91 10544.9C3070.58 10544.9 3081.48 10548.2 3088.59 10554.8C3095.7 10561.4 3099.26 10571.9 3099.26 10586.3V10670H3085.67L3082.07 10651.8H3081.18C3077.73 10656.3 3074.14 10660.1 3070.39 10663.1C3066.65 10666.1 3062.31 10668.4 3057.37 10670C3052.5 10671.5 3046.51 10672.2 3039.4 10672.2C3031.91 10672.2 3025.25 10670.9 3019.41 10668.3C3013.64 10665.7 3009.08 10661.7 3005.71 10656.4C3002.41 10651.1 3000.77 10644.4 3000.77 10636.2C3000.77 10623.9 3005.63 10614.5 3015.37 10607.9C3025.1 10601.3 3039.92 10597.7 3059.84 10597.1L3081.06 10596.2V10588.7C3081.06 10578.1 3078.78 10570.6 3074.21 10566.3C3069.65 10562.1 3063.21 10559.9 3054.9 10559.9C3048.46 10559.9 3042.32 10560.9 3036.48 10562.7C3030.64 10564.6 3025.1 10566.8 3019.86 10569.4L3014.13 10555.2C3019.67 10552.4 3026.03 10549.9 3033.22 10547.9C3040.41 10545.9 3047.97 10544.9 3055.91 10544.9ZM3080.84 10609.4L3062.08 10610.1C3046.74 10610.7 3035.92 10613.2 3029.63 10617.7C3023.34 10622.1 3020.19 10628.3 3020.19 10636.4C3020.19 10643.5 3022.33 10648.7 3026.6 10652C3030.86 10655.4 3036.52 10657.1 3043.55 10657.1C3054.48 10657.1 3063.43 10654.1 3070.39 10648C3077.36 10641.9 3080.84 10632.8 3080.84 10620.7V10609.4ZM3181.46 10672.2C3165.89 10672.2 3153.54 10666.9 3144.4 10656.3C3135.34 10645.7 3130.81 10629.9 3130.81 10608.9C3130.81 10587.7 3135.46 10571.7 3144.74 10561C3154.02 10550.1 3166.38 10544.7 3181.8 10544.7C3188.31 10544.7 3194 10545.5 3198.87 10547.3C3203.74 10549 3207.93 10551.3 3211.45 10554.2C3214.97 10557.1 3217.93 10560.3 3220.32 10564H3221.67C3221.37 10561.7 3221.07 10558.5 3220.77 10554.4C3220.47 10550.4 3220.32 10547.1 3220.32 10544.6V10495.3H3238.96V10670H3223.92L3221.11 10652.5H3220.32C3218 10656.1 3215.04 10659.5 3211.45 10662.5C3207.93 10665.5 3203.7 10667.9 3198.76 10669.7C3193.89 10671.4 3188.13 10672.2 3181.46 10672.2ZM3184.38 10656.7C3197.56 10656.7 3206.88 10653 3212.35 10645.5C3217.81 10638 3220.55 10626.9 3220.55 10612.2V10608.8C3220.55 10593.1 3217.93 10581.1 3212.68 10572.7C3207.52 10564.4 3198.08 10560.2 3184.38 10560.2C3172.93 10560.2 3164.36 10564.6 3158.67 10573.4C3152.98 10582.2 3150.13 10594.2 3150.13 10609.4C3150.13 10624.5 3152.94 10636.2 3158.55 10644.4C3164.24 10652.6 3172.85 10656.7 3184.38 10656.7ZM3384.62 10608.2C3384.62 10618.3 3383.31 10627.4 3380.69 10635.3C3378.07 10643.2 3374.29 10649.9 3369.35 10655.4C3364.41 10660.9 3358.42 10665.1 3351.38 10668C3344.42 10670.8 3336.52 10672.2 3327.68 10672.2C3319.45 10672.2 3311.89 10670.8 3305 10668C3298.19 10665.1 3292.27 10660.9 3287.25 10655.4C3282.31 10649.9 3278.46 10643.2 3275.69 10635.3C3272.99 10627.4 3271.64 10618.3 3271.64 10608.2C3271.64 10594.8 3273.93 10583.3 3278.5 10573.9C3283.06 10564.4 3289.58 10557.1 3298.04 10552.2C3306.57 10547.2 3316.72 10544.7 3328.47 10544.7C3339.7 10544.7 3349.51 10547.2 3357.89 10552.2C3366.35 10557.2 3372.91 10564.5 3377.55 10574C3382.26 10583.4 3384.62 10594.8 3384.62 10608.2ZM3290.96 10608.2C3290.96 10618.1 3292.27 10626.7 3294.89 10634C3297.51 10641.2 3301.56 10646.8 3307.02 10650.8C3312.49 10654.8 3319.52 10656.7 3328.13 10656.7C3336.67 10656.7 3343.67 10654.8 3349.13 10650.8C3354.68 10646.8 3358.76 10641.2 3361.38 10634C3364 10626.7 3365.31 10618.1 3365.31 10608.2C3365.31 10598.4 3364 10590 3361.38 10582.9C3358.76 10575.7 3354.71 10570.1 3349.25 10566.2C3343.78 10562.3 3336.71 10560.4 3328.02 10560.4C3315.22 10560.4 3305.82 10564.6 3299.83 10573.1C3293.92 10581.5 3290.96 10593.3 3290.96 10608.2ZM3472.78 10544.7C3475.25 10544.7 3477.84 10544.8 3480.53 10545.1C3483.23 10545.3 3485.62 10545.7 3487.72 10546.1L3485.36 10563.4C3483.34 10562.9 3481.09 10562.5 3478.62 10562.2C3476.15 10561.9 3473.83 10561.7 3471.66 10561.7C3466.72 10561.7 3462.04 10562.7 3457.62 10564.8C3453.28 10566.7 3449.46 10569.6 3446.17 10573.3C3442.87 10577 3440.29 10581.4 3438.42 10586.7C3436.55 10591.8 3435.61 10597.6 3435.61 10604V10670H3416.85V10546.9H3432.35L3434.37 10569.6H3435.16C3437.71 10565 3440.78 10560.9 3444.37 10557.1C3447.96 10553.3 3452.12 10550.3 3456.83 10548C3461.63 10545.8 3466.94 10544.7 3472.78 10544.7ZM3676.5 10670L3656.29 10617.9H3590.48L3570.38 10670H3551.06L3615.3 10505.1H3632.48L3696.27 10670H3676.5ZM3650.56 10600.9L3631.36 10549.2C3630.91 10547.8 3630.16 10545.6 3629.11 10542.5C3628.14 10539.5 3627.13 10536.3 3626.08 10533C3625.03 10529.7 3624.17 10527 3623.5 10525C3622.75 10528.1 3621.92 10531.2 3621.02 10534.2C3620.2 10537.2 3619.38 10540 3618.55 10542.6C3617.73 10545.2 3617.02 10547.4 3616.42 10549.2L3596.88 10600.9H3650.56ZM3760.06 10672.2C3744.48 10672.2 3732.13 10666.9 3723 10656.3C3713.94 10645.7 3709.41 10629.9 3709.41 10608.9C3709.41 10587.7 3714.05 10571.7 3723.33 10561C3732.62 10550.1 3744.97 10544.7 3760.39 10544.7C3766.91 10544.7 3772.6 10545.5 3777.46 10547.3C3782.33 10549 3786.52 10551.3 3790.04 10554.2C3793.56 10557.1 3796.52 10560.3 3798.92 10564H3800.26C3799.96 10561.7 3799.66 10558.5 3799.36 10554.4C3799.06 10550.4 3798.92 10547.1 3798.92 10544.6V10495.3H3817.56V10670H3802.51L3799.7 10652.5H3798.92C3796.59 10656.1 3793.64 10659.5 3790.04 10662.5C3786.52 10665.5 3782.29 10667.9 3777.35 10669.7C3772.49 10671.4 3766.72 10672.2 3760.06 10672.2ZM3762.98 10656.7C3776.15 10656.7 3785.48 10653 3790.94 10645.5C3796.41 10638 3799.14 10626.9 3799.14 10612.2V10608.8C3799.14 10593.1 3796.52 10581.1 3791.28 10572.7C3786.11 10564.4 3776.68 10560.2 3762.98 10560.2C3751.52 10560.2 3742.95 10564.6 3737.26 10573.4C3731.57 10582.2 3728.72 10594.2 3728.72 10609.4C3728.72 10624.5 3731.53 10636.2 3737.15 10644.4C3742.84 10652.6 3751.45 10656.7 3762.98 10656.7ZM3990.73 10544.7C4004.28 10544.7 4014.5 10548.2 4021.39 10555.3C4028.28 10562.4 4031.72 10573.7 4031.72 10589.4V10670H4013.3V10590.3C4013.3 10580.3 4011.13 10572.9 4006.79 10567.9C4002.52 10562.9 3996.16 10560.4 3987.7 10560.4C3975.79 10560.4 3967.15 10563.8 3961.76 10570.7C3956.37 10577.6 3953.67 10587.8 3953.67 10601.2V10670H3935.14V10590.3C3935.14 10583.6 3934.17 10578.1 3932.22 10573.6C3930.35 10569.2 3927.5 10565.9 3923.69 10563.8C3919.94 10561.5 3915.19 10560.4 3909.42 10560.4C3901.26 10560.4 3894.71 10562.1 3889.77 10565.4C3884.83 10568.8 3881.23 10573.8 3878.99 10580.5C3876.82 10587.1 3875.73 10595.2 3875.73 10604.9V10670H3857.09V10546.9H3872.14L3874.95 10564.3H3875.96C3878.43 10560.1 3881.53 10556.5 3885.28 10553.5C3889.02 10550.6 3893.21 10548.4 3897.86 10546.9C3902.5 10545.4 3907.44 10544.7 3912.68 10544.7C3922.04 10544.7 3929.86 10546.4 3936.15 10549.9C3942.52 10553.4 3947.12 10558.7 3949.96 10565.8H3950.98C3955.02 10558.7 3960.56 10553.4 3967.6 10549.9C3974.63 10546.4 3982.35 10544.7 3990.73 10544.7ZM4088.66 10546.9V10670H4070.02V10546.9H4088.66ZM4079.56 10500.9C4082.63 10500.9 4085.25 10501.9 4087.43 10503.9C4089.67 10505.8 4090.79 10508.9 4090.79 10513.1C4090.79 10517.2 4089.67 10520.3 4087.43 10522.3C4085.25 10524.3 4082.63 10525.4 4079.56 10525.4C4076.35 10525.4 4073.65 10524.3 4071.48 10522.3C4069.38 10520.3 4068.33 10517.2 4068.33 10513.1C4068.33 10508.9 4069.38 10505.8 4071.48 10503.9C4073.65 10501.9 4076.35 10500.9 4079.56 10500.9ZM4186.48 10544.7C4201.08 10544.7 4212.12 10548.3 4219.61 10555.4C4227.1 10562.6 4230.84 10574 4230.84 10589.8V10670H4212.42V10591C4212.42 10580.8 4210.06 10573.1 4205.35 10568C4200.7 10562.9 4193.55 10560.4 4183.9 10560.4C4170.27 10560.4 4160.69 10564.2 4155.15 10572C4149.61 10579.7 4146.83 10590.9 4146.83 10605.5V10670H4128.19V10546.9H4143.24L4146.05 10564.7H4147.06C4149.68 10560.3 4153.01 10556.7 4157.05 10553.8C4161.1 10550.8 4165.63 10548.5 4170.64 10547C4175.66 10545.5 4180.94 10544.7 4186.48 10544.7ZM4287.89 10546.9V10670H4269.25V10546.9H4287.89ZM4278.79 10500.9C4281.86 10500.9 4284.48 10501.9 4286.65 10503.9C4288.9 10505.8 4290.02 10508.9 4290.02 10513.1C4290.02 10517.2 4288.9 10520.3 4286.65 10522.3C4284.48 10524.3 4281.86 10525.4 4278.79 10525.4C4275.57 10525.4 4272.88 10524.3 4270.71 10522.3C4268.61 10520.3 4267.56 10517.2 4267.56 10513.1C4267.56 10508.9 4268.61 10505.8 4270.71 10503.9C4272.88 10501.9 4275.57 10500.9 4278.79 10500.9ZM4407.04 10636.3C4407.04 10644.2 4405.06 10650.8 4401.09 10656.2C4397.2 10661.5 4391.58 10665.5 4384.25 10668.2C4376.98 10670.9 4368.3 10672.2 4358.19 10672.2C4349.58 10672.2 4342.13 10671.6 4335.84 10670.2C4329.55 10668.9 4324.05 10667 4319.33 10664.5V10647.3C4324.35 10649.8 4330.34 10652 4337.3 10654.1C4344.27 10656.1 4351.38 10657.1 4358.64 10657.1C4369.27 10657.1 4376.98 10655.4 4381.78 10651.9C4386.57 10648.5 4388.96 10643.8 4388.96 10637.9C4388.96 10634.5 4387.99 10631.6 4386.04 10629C4384.17 10626.4 4380.99 10623.9 4376.5 10621.5C4372.01 10619 4365.79 10616.3 4357.86 10613.4C4349.99 10610.4 4343.18 10607.4 4337.42 10604.5C4331.73 10601.5 4327.31 10597.9 4324.16 10593.6C4321.09 10589.4 4319.56 10583.8 4319.56 10577C4319.56 10566.6 4323.75 10558.6 4332.14 10553.1C4340.6 10547.5 4351.68 10544.7 4365.38 10544.7C4372.79 10544.7 4379.72 10545.4 4386.16 10546.9C4392.67 10548.3 4398.73 10550.3 4404.35 10552.8L4398.06 10567.7C4392.97 10565.5 4387.54 10563.7 4381.78 10562.2C4376.01 10560.7 4370.13 10559.9 4364.14 10559.9C4355.53 10559.9 4348.91 10561.4 4344.27 10564.2C4339.7 10567.1 4337.42 10570.9 4337.42 10575.9C4337.42 10579.7 4338.46 10582.9 4340.56 10585.3C4342.73 10587.8 4346.18 10590.1 4350.89 10592.3C4355.61 10594.5 4361.82 10597 4369.54 10599.9C4377.25 10602.8 4383.91 10605.7 4389.53 10608.8C4395.14 10611.8 4399.45 10615.5 4402.44 10619.8C4405.51 10624.1 4407.04 10629.6 4407.04 10636.3ZM4476.79 10657C4479.86 10657 4483 10656.7 4486.22 10656.2C4489.44 10655.7 4492.06 10655 4494.08 10654.3V10668.8C4491.91 10669.7 4488.88 10670.6 4484.98 10671.2C4481.17 10671.9 4477.42 10672.2 4473.75 10672.2C4467.24 10672.2 4461.33 10671.1 4456.01 10668.9C4450.69 10666.6 4446.43 10662.7 4443.21 10657.2C4440.06 10651.7 4438.49 10644.2 4438.49 10634.5V10561.5H4420.97V10552.4L4438.6 10545.1L4446.01 10518.4H4457.25V10546.9H4493.29V10561.5H4457.25V10634C4457.25 10641.7 4459 10647.4 4462.52 10651.2C4466.12 10655.1 4470.87 10657 4476.79 10657ZM4574.94 10544.7C4577.41 10544.7 4579.99 10544.8 4582.69 10545.1C4585.38 10545.3 4587.78 10545.7 4589.88 10546.1L4587.52 10563.4C4585.5 10562.9 4583.25 10562.5 4580.78 10562.2C4578.31 10561.9 4575.99 10561.7 4573.82 10561.7C4568.88 10561.7 4564.2 10562.7 4559.78 10564.8C4555.44 10566.7 4551.62 10569.6 4548.32 10573.3C4545.03 10577 4542.45 10581.4 4540.58 10586.7C4538.7 10591.8 4537.77 10597.6 4537.77 10604V10670H4519.01V10546.9H4534.51L4536.53 10569.6H4537.32C4539.86 10565 4542.93 10560.9 4546.53 10557.1C4550.12 10553.3 4554.28 10550.3 4558.99 10548C4563.78 10545.8 4569.1 10544.7 4574.94 10544.7ZM4659.17 10544.9C4673.84 10544.9 4684.74 10548.2 4691.85 10554.8C4698.96 10561.4 4702.52 10571.9 4702.52 10586.3V10670H4688.93L4685.34 10651.8H4684.44C4680.99 10656.3 4677.4 10660.1 4673.66 10663.1C4669.91 10666.1 4665.57 10668.4 4660.63 10670C4655.76 10671.5 4649.77 10672.2 4642.66 10672.2C4635.17 10672.2 4628.51 10670.9 4622.67 10668.3C4616.9 10665.7 4612.34 10661.7 4608.97 10656.4C4605.67 10651.1 4604.03 10644.4 4604.03 10636.2C4604.03 10623.9 4608.89 10614.5 4618.63 10607.9C4628.36 10601.3 4643.18 10597.7 4663.1 10597.1L4684.33 10596.2V10588.7C4684.33 10578.1 4682.04 10570.6 4677.47 10566.3C4672.91 10562.1 4666.47 10559.9 4658.16 10559.9C4651.72 10559.9 4645.58 10560.9 4639.74 10562.7C4633.9 10564.6 4628.36 10566.8 4623.12 10569.4L4617.39 10555.2C4622.93 10552.4 4629.3 10549.9 4636.48 10547.9C4643.67 10545.9 4651.23 10544.9 4659.17 10544.9ZM4684.1 10609.4L4665.35 10610.1C4650 10610.7 4639.18 10613.2 4632.89 10617.7C4626.6 10622.1 4623.46 10628.3 4623.46 10636.4C4623.46 10643.5 4625.59 10648.7 4629.86 10652C4634.12 10655.4 4639.78 10657.1 4646.82 10657.1C4657.75 10657.1 4666.69 10654.1 4673.66 10648C4680.62 10641.9 4684.1 10632.8 4684.1 10620.7V10609.4ZM4780.68 10657C4783.75 10657 4786.9 10656.7 4790.12 10656.2C4793.34 10655.7 4795.96 10655 4797.98 10654.3V10668.8C4795.81 10669.7 4792.77 10670.6 4788.88 10671.2C4785.06 10671.9 4781.32 10672.2 4777.65 10672.2C4771.14 10672.2 4765.22 10671.1 4759.91 10668.9C4754.59 10666.6 4750.32 10662.7 4747.1 10657.2C4743.96 10651.7 4742.39 10644.2 4742.39 10634.5V10561.5H4724.87V10552.4L4742.5 10545.1L4749.91 10518.4H4761.14V10546.9H4797.19V10561.5H4761.14V10634C4761.14 10641.7 4762.9 10647.4 4766.42 10651.2C4770.01 10655.1 4774.77 10657 4780.68 10657ZM4841.55 10546.9V10670H4822.91V10546.9H4841.55ZM4832.46 10500.9C4835.52 10500.9 4838.15 10501.9 4840.32 10503.9C4842.56 10505.8 4843.69 10508.9 4843.69 10513.1C4843.69 10517.2 4842.56 10520.3 4840.32 10522.3C4838.15 10524.3 4835.52 10525.4 4832.46 10525.4C4829.24 10525.4 4826.54 10524.3 4824.37 10522.3C4822.27 10520.3 4821.22 10517.2 4821.22 10513.1C4821.22 10508.9 4822.27 10505.8 4824.37 10503.9C4826.54 10501.9 4829.24 10500.9 4832.46 10500.9ZM4908.15 10670L4861.43 10546.9H4881.42L4908.49 10621.4C4910.36 10626.5 4912.27 10632.1 4914.21 10638.2C4916.16 10644.4 4917.51 10649.3 4918.26 10653H4919.04C4919.94 10649.3 4921.44 10644.4 4923.53 10638.2C4925.63 10632 4927.54 10626.4 4929.26 10621.4L4956.33 10546.9H4976.32L4929.49 10670H4908.15ZM5102.21 10608.2C5102.21 10618.3 5100.9 10627.4 5098.28 10635.3C5095.66 10643.2 5091.88 10649.9 5086.94 10655.4C5082 10660.9 5076.01 10665.1 5068.97 10668C5062.01 10670.8 5054.11 10672.2 5045.27 10672.2C5037.04 10672.2 5029.47 10670.8 5022.59 10668C5015.77 10665.1 5009.86 10660.9 5004.84 10655.4C4999.9 10649.9 4996.05 10643.2 4993.28 10635.3C4990.58 10627.4 4989.23 10618.3 4989.23 10608.2C4989.23 10594.8 4991.52 10583.3 4996.08 10573.9C5000.65 10564.4 5007.16 10557.1 5015.62 10552.2C5024.16 10547.2 5034.3 10544.7 5046.06 10544.7C5057.29 10544.7 5067.1 10547.2 5075.48 10552.2C5083.94 10557.2 5090.49 10564.5 5095.14 10574C5099.85 10583.4 5102.21 10594.8 5102.21 10608.2ZM5008.55 10608.2C5008.55 10618.1 5009.86 10626.7 5012.48 10634C5015.1 10641.2 5019.14 10646.8 5024.61 10650.8C5030.07 10654.8 5037.11 10656.7 5045.72 10656.7C5054.26 10656.7 5061.26 10654.8 5066.72 10650.8C5072.26 10646.8 5076.34 10641.2 5078.96 10634C5081.58 10626.7 5082.89 10618.1 5082.89 10608.2C5082.89 10598.4 5081.58 10590 5078.96 10582.9C5076.34 10575.7 5072.3 10570.1 5066.83 10566.2C5061.37 10562.3 5054.29 10560.4 5045.61 10560.4C5032.81 10560.4 5023.41 10564.6 5017.42 10573.1C5011.51 10581.5 5008.55 10593.3 5008.55 10608.2ZM5237.99 10672.2C5222.41 10672.2 5210.06 10666.9 5200.93 10656.3C5191.87 10645.7 5187.34 10629.9 5187.34 10608.9C5187.34 10587.7 5191.98 10571.7 5201.26 10561C5210.55 10550.1 5222.9 10544.7 5238.32 10544.7C5244.84 10544.7 5250.53 10545.5 5255.39 10547.3C5260.26 10549 5264.45 10551.3 5267.97 10554.2C5271.49 10557.1 5274.45 10560.3 5276.84 10564H5278.19C5277.89 10561.7 5277.59 10558.5 5277.29 10554.4C5276.99 10550.4 5276.84 10547.1 5276.84 10544.6V10495.3H5295.49V10670H5280.44L5277.63 10652.5H5276.84C5274.52 10656.1 5271.57 10659.5 5267.97 10662.5C5264.45 10665.5 5260.22 10667.9 5255.28 10669.7C5250.42 10671.4 5244.65 10672.2 5237.99 10672.2ZM5240.91 10656.7C5254.08 10656.7 5263.41 10653 5268.87 10645.5C5274.34 10638 5277.07 10626.9 5277.07 10612.2V10608.8C5277.07 10593.1 5274.45 10581.1 5269.21 10572.7C5264.04 10564.4 5254.61 10560.2 5240.91 10560.2C5229.45 10560.2 5220.88 10564.6 5215.19 10573.4C5209.5 10582.2 5206.65 10594.2 5206.65 10609.4C5206.65 10624.5 5209.46 10636.2 5215.08 10644.4C5220.77 10652.6 5229.38 10656.7 5240.91 10656.7ZM5441.15 10608.2C5441.15 10618.3 5439.84 10627.4 5437.22 10635.3C5434.6 10643.2 5430.81 10649.9 5425.87 10655.4C5420.93 10660.9 5414.94 10665.1 5407.9 10668C5400.94 10670.8 5393.04 10672.2 5384.21 10672.2C5375.97 10672.2 5368.41 10670.8 5361.52 10668C5354.71 10665.1 5348.79 10660.9 5343.78 10655.4C5338.84 10649.9 5334.98 10643.2 5332.21 10635.3C5329.52 10627.4 5328.17 10618.3 5328.17 10608.2C5328.17 10594.8 5330.45 10583.3 5335.02 10573.9C5339.59 10564.4 5346.1 10557.1 5354.56 10552.2C5363.09 10547.2 5373.24 10544.7 5384.99 10544.7C5396.22 10544.7 5406.03 10547.2 5414.42 10552.2C5422.88 10557.2 5429.43 10564.5 5434.07 10574C5438.79 10583.4 5441.15 10594.8 5441.15 10608.2ZM5347.48 10608.2C5347.48 10618.1 5348.79 10626.7 5351.42 10634C5354.04 10641.2 5358.08 10646.8 5363.54 10650.8C5369.01 10654.8 5376.05 10656.7 5384.66 10656.7C5393.19 10656.7 5400.19 10654.8 5405.66 10650.8C5411.2 10646.8 5415.28 10641.2 5417.9 10634C5420.52 10626.7 5421.83 10618.1 5421.83 10608.2C5421.83 10598.4 5420.52 10590 5417.9 10582.9C5415.28 10575.7 5411.24 10570.1 5405.77 10566.2C5400.31 10562.3 5393.23 10560.4 5384.54 10560.4C5371.74 10560.4 5362.35 10564.6 5356.36 10573.1C5350.44 10581.5 5347.48 10593.3 5347.48 10608.2ZM5535.93 10670V10505.8H5555.02V10652.9H5627.91V10670H5535.93ZM5699.33 10544.9C5714.01 10544.9 5724.9 10548.2 5732.02 10554.8C5739.13 10561.4 5742.68 10571.9 5742.68 10586.3V10670H5729.1L5725.5 10651.8H5724.6C5721.16 10656.3 5717.57 10660.1 5713.82 10663.1C5710.08 10666.1 5705.74 10668.4 5700.79 10670C5695.93 10671.5 5689.94 10672.2 5682.83 10672.2C5675.34 10672.2 5668.68 10670.9 5662.84 10668.3C5657.07 10665.7 5652.5 10661.7 5649.13 10656.4C5645.84 10651.1 5644.19 10644.4 5644.19 10636.2C5644.19 10623.9 5649.06 10614.5 5658.79 10607.9C5668.53 10601.3 5683.35 10597.7 5703.27 10597.1L5724.49 10596.2V10588.7C5724.49 10578.1 5722.21 10570.6 5717.64 10566.3C5713.07 10562.1 5706.63 10559.9 5698.32 10559.9C5691.89 10559.9 5685.75 10560.9 5679.91 10562.7C5674.07 10564.6 5668.53 10566.8 5663.29 10569.4L5657.56 10555.2C5663.1 10552.4 5669.46 10549.9 5676.65 10547.9C5683.84 10545.9 5691.4 10544.9 5699.33 10544.9ZM5724.27 10609.4L5705.51 10610.1C5690.16 10610.7 5679.34 10613.2 5673.06 10617.7C5666.77 10622.1 5663.62 10628.3 5663.62 10636.4C5663.62 10643.5 5665.76 10648.7 5670.02 10652C5674.29 10655.4 5679.94 10657.1 5686.98 10657.1C5697.91 10657.1 5706.86 10654.1 5713.82 10648C5720.79 10641.9 5724.27 10632.8 5724.27 10620.7V10609.4ZM5799.74 10495.3V10538.9C5799.74 10544 5799.59 10548.8 5799.29 10553.5C5799.06 10558.3 5798.87 10561.9 5798.72 10564.5H5799.74C5803.1 10559 5807.97 10554.3 5814.33 10550.5C5820.7 10546.7 5828.82 10544.8 5838.71 10544.8C5854.13 10544.8 5866.41 10550.1 5875.54 10560.8C5884.75 10571.5 5889.35 10587.3 5889.35 10608.3C5889.35 10622.2 5887.26 10633.9 5883.07 10643.4C5878.87 10652.9 5872.96 10660.1 5865.32 10664.9C5857.68 10669.8 5848.66 10672.2 5838.26 10672.2C5828.52 10672.2 5820.51 10670.4 5814.22 10666.9C5808.01 10663.2 5803.22 10658.7 5799.85 10653.5H5798.39L5794.57 10670H5781.09V10495.3H5799.74ZM5835.67 10560.4C5826.76 10560.4 5819.69 10562.2 5814.45 10565.7C5809.21 10569.1 5805.43 10574.4 5803.1 10581.4C5800.86 10588.4 5799.74 10597.2 5799.74 10607.9V10608.9C5799.74 10624.4 5802.32 10636.3 5807.48 10644.5C5812.65 10652.7 5822.05 10656.7 5835.67 10656.7C5847.13 10656.7 5855.7 10652.6 5861.39 10644.2C5867.16 10635.8 5870.04 10623.8 5870.04 10608.2C5870.04 10592.4 5867.19 10580.4 5861.5 10572.4C5855.89 10564.4 5847.28 10560.4 5835.67 10560.4ZM6028.05 10608.2C6028.05 10618.3 6026.74 10627.4 6024.12 10635.3C6021.5 10643.2 6017.72 10649.9 6012.78 10655.4C6007.84 10660.9 6001.85 10665.1 5994.81 10668C5987.85 10670.8 5979.95 10672.2 5971.11 10672.2C5962.88 10672.2 5955.31 10670.8 5948.43 10668C5941.61 10665.1 5935.7 10660.9 5930.68 10655.4C5925.74 10649.9 5921.89 10643.2 5919.12 10635.3C5916.42 10627.4 5915.07 10618.3 5915.07 10608.2C5915.07 10594.8 5917.36 10583.3 5921.92 10573.9C5926.49 10564.4 5933 10557.1 5941.46 10552.2C5950 10547.2 5960.14 10544.7 5971.9 10544.7C5983.13 10544.7 5992.94 10547.2 6001.32 10552.2C6009.78 10557.2 6016.33 10564.5 6020.98 10574C6025.69 10583.4 6028.05 10594.8 6028.05 10608.2ZM5934.39 10608.2C5934.39 10618.1 5935.7 10626.7 5938.32 10634C5940.94 10641.2 5944.98 10646.8 5950.45 10650.8C5955.91 10654.8 5962.95 10656.7 5971.56 10656.7C5980.1 10656.7 5987.1 10654.8 5992.56 10650.8C5998.1 10646.8 6002.18 10641.2 6004.8 10634C6007.42 10626.7 6008.73 10618.1 6008.73 10608.2C6008.73 10598.4 6007.42 10590 6004.8 10582.9C6002.18 10575.7 5998.14 10570.1 5992.67 10566.2C5987.21 10562.3 5980.13 10560.4 5971.45 10560.4C5958.65 10560.4 5949.25 10564.6 5943.26 10573.1C5937.35 10581.5 5934.39 10593.3 5934.39 10608.2ZM6116.21 10544.7C6118.68 10544.7 6121.26 10544.8 6123.96 10545.1C6126.65 10545.3 6129.05 10545.7 6131.15 10546.1L6128.79 10563.4C6126.77 10562.9 6124.52 10562.5 6122.05 10562.2C6119.58 10561.9 6117.26 10561.7 6115.09 10561.7C6110.15 10561.7 6105.47 10562.7 6101.05 10564.8C6096.71 10566.7 6092.89 10569.6 6089.59 10573.3C6086.3 10577 6083.72 10581.4 6081.84 10586.7C6079.97 10591.8 6079.04 10597.6 6079.04 10604V10670H6060.28V10546.9H6075.78L6077.8 10569.6H6078.59C6081.13 10565 6084.2 10560.9 6087.8 10557.1C6091.39 10553.3 6095.55 10550.3 6100.26 10548C6105.05 10545.8 6110.37 10544.7 6116.21 10544.7ZM6200.44 10544.9C6215.11 10544.9 6226.01 10548.2 6233.12 10554.8C6240.23 10561.4 6243.79 10571.9 6243.79 10586.3V10670H6230.2L6226.61 10651.8H6225.71C6222.26 10656.3 6218.67 10660.1 6214.93 10663.1C6211.18 10666.1 6206.84 10668.4 6201.9 10670C6197.03 10671.5 6191.04 10672.2 6183.93 10672.2C6176.44 10672.2 6169.78 10670.9 6163.94 10668.3C6158.17 10665.7 6153.61 10661.7 6150.24 10656.4C6146.94 10651.1 6145.3 10644.4 6145.3 10636.2C6145.3 10623.9 6150.16 10614.5 6159.9 10607.9C6169.63 10601.3 6184.45 10597.7 6204.37 10597.1L6225.59 10596.2V10588.7C6225.59 10578.1 6223.31 10570.6 6218.74 10566.3C6214.18 10562.1 6207.74 10559.9 6199.43 10559.9C6192.99 10559.9 6186.85 10560.9 6181.01 10562.7C6175.17 10564.6 6169.63 10566.8 6164.39 10569.4L6158.66 10555.2C6164.2 10552.4 6170.57 10549.9 6177.75 10547.9C6184.94 10545.9 6192.5 10544.9 6200.44 10544.9ZM6225.37 10609.4L6206.62 10610.1C6191.27 10610.7 6180.45 10613.2 6174.16 10617.7C6167.87 10622.1 6164.73 10628.3 6164.73 10636.4C6164.73 10643.5 6166.86 10648.7 6171.13 10652C6175.39 10655.4 6181.05 10657.1 6188.08 10657.1C6199.02 10657.1 6207.96 10654.1 6214.93 10648C6221.89 10641.9 6225.37 10632.8 6225.37 10620.7V10609.4ZM6321.95 10657C6325.02 10657 6328.17 10656.7 6331.39 10656.2C6334.61 10655.7 6337.23 10655 6339.25 10654.3V10668.8C6337.08 10669.7 6334.04 10670.6 6330.15 10671.2C6326.33 10671.9 6322.59 10672.2 6318.92 10672.2C6312.41 10672.2 6306.49 10671.1 6301.18 10668.9C6295.86 10666.6 6291.59 10662.7 6288.37 10657.2C6285.23 10651.7 6283.66 10644.2 6283.66 10634.5V10561.5H6266.14V10552.4L6283.77 10545.1L6291.18 10518.4H6302.41V10546.9H6338.46V10561.5H6302.41V10634C6302.41 10641.7 6304.17 10647.4 6307.69 10651.2C6311.28 10655.1 6316.04 10657 6321.95 10657ZM6470.31 10608.2C6470.31 10618.3 6469 10627.4 6466.38 10635.3C6463.76 10643.2 6459.97 10649.9 6455.03 10655.4C6450.09 10660.9 6444.1 10665.1 6437.06 10668C6430.1 10670.8 6422.2 10672.2 6413.37 10672.2C6405.13 10672.2 6397.57 10670.8 6390.68 10668C6383.87 10665.1 6377.95 10660.9 6372.94 10655.4C6368 10649.9 6364.14 10643.2 6361.37 10635.3C6358.68 10627.4 6357.33 10618.3 6357.33 10608.2C6357.33 10594.8 6359.61 10583.3 6364.18 10573.9C6368.75 10564.4 6375.26 10557.1 6383.72 10552.2C6392.25 10547.2 6402.4 10544.7 6414.15 10544.7C6425.38 10544.7 6435.19 10547.2 6443.58 10552.2C6452.04 10557.2 6458.59 10564.5 6463.23 10574C6467.95 10583.4 6470.31 10594.8 6470.31 10608.2ZM6376.64 10608.2C6376.64 10618.1 6377.95 10626.7 6380.58 10634C6383.2 10641.2 6387.24 10646.8 6392.7 10650.8C6398.17 10654.8 6405.21 10656.7 6413.82 10656.7C6422.35 10656.7 6429.35 10654.8 6434.82 10650.8C6440.36 10646.8 6444.44 10641.2 6447.06 10634C6449.68 10626.7 6450.99 10618.1 6450.99 10608.2C6450.99 10598.4 6449.68 10590 6447.06 10582.9C6444.44 10575.7 6440.4 10570.1 6434.93 10566.2C6429.47 10562.3 6422.39 10560.4 6413.71 10560.4C6400.9 10560.4 6391.51 10564.6 6385.52 10573.1C6379.6 10581.5 6376.64 10593.3 6376.64 10608.2ZM6446.39 10493.8V10496C6444.89 10498.2 6442.83 10500.8 6440.21 10503.9C6437.66 10506.9 6434.82 10510.1 6431.67 10513.4C6428.53 10516.7 6425.35 10519.9 6422.13 10522.9C6418.98 10525.9 6416.06 10528.5 6413.37 10530.6H6400.9V10527.9C6403.3 10525.1 6405.92 10521.7 6408.76 10517.7C6411.61 10513.7 6414.38 10509.6 6417.07 10505.4C6419.77 10501.1 6422.02 10497.2 6423.81 10493.8H6446.39ZM6558.47 10544.7C6560.94 10544.7 6563.52 10544.8 6566.21 10545.1C6568.91 10545.3 6571.31 10545.7 6573.4 10546.1L6571.04 10563.4C6569.02 10562.9 6566.78 10562.5 6564.31 10562.2C6561.83 10561.9 6559.51 10561.7 6557.34 10561.7C6552.4 10561.7 6547.72 10562.7 6543.3 10564.8C6538.96 10566.7 6535.14 10569.6 6531.85 10573.3C6528.56 10577 6525.97 10581.4 6524.1 10586.7C6522.23 10591.8 6521.29 10597.6 6521.29 10604V10670H6502.54V10546.9H6518.04L6520.06 10569.6H6520.84C6523.39 10565 6526.46 10560.9 6530.05 10557.1C6533.65 10553.3 6537.8 10550.3 6542.52 10548C6547.31 10545.8 6552.63 10544.7 6558.47 10544.7ZM6615.29 10546.9V10670H6596.65V10546.9H6615.29ZM6606.2 10500.9C6609.26 10500.9 6611.89 10501.9 6614.06 10503.9C6616.3 10505.8 6617.43 10508.9 6617.43 10513.1C6617.43 10517.2 6616.3 10520.3 6614.06 10522.3C6611.89 10524.3 6609.26 10525.4 6606.2 10525.4C6602.98 10525.4 6600.28 10524.3 6598.11 10522.3C6596.01 10520.3 6594.96 10517.2 6594.96 10513.1C6594.96 10508.9 6596.01 10505.8 6598.11 10503.9C6600.28 10501.9 6602.98 10500.9 6606.2 10500.9ZM6760.95 10608.2C6760.95 10618.3 6759.64 10627.4 6757.02 10635.3C6754.4 10643.2 6750.62 10649.9 6745.68 10655.4C6740.74 10660.9 6734.75 10665.1 6727.71 10668C6720.75 10670.8 6712.85 10672.2 6704.01 10672.2C6695.78 10672.2 6688.22 10670.8 6681.33 10668C6674.51 10665.1 6668.6 10660.9 6663.58 10655.4C6658.64 10649.9 6654.79 10643.2 6652.02 10635.3C6649.32 10627.4 6647.97 10618.3 6647.97 10608.2C6647.97 10594.8 6650.26 10583.3 6654.82 10573.9C6659.39 10564.4 6665.9 10557.1 6674.36 10552.2C6682.9 10547.2 6693.04 10544.7 6704.8 10544.7C6716.03 10544.7 6725.84 10547.2 6734.22 10552.2C6742.68 10557.2 6749.23 10564.5 6753.88 10574C6758.59 10583.4 6760.95 10594.8 6760.95 10608.2ZM6667.29 10608.2C6667.29 10618.1 6668.6 10626.7 6671.22 10634C6673.84 10641.2 6677.88 10646.8 6683.35 10650.8C6688.81 10654.8 6695.85 10656.7 6704.46 10656.7C6713 10656.7 6720 10654.8 6725.46 10650.8C6731 10646.8 6735.08 10641.2 6737.7 10634C6740.32 10626.7 6741.63 10618.1 6741.63 10608.2C6741.63 10598.4 6740.32 10590 6737.7 10582.9C6735.08 10575.7 6731.04 10570.1 6725.58 10566.2C6720.11 10562.3 6713.03 10560.4 6704.35 10560.4C6691.55 10560.4 6682.15 10564.6 6676.16 10573.1C6670.25 10581.5 6667.29 10593.3 6667.29 10608.2ZM3751.97 10939.3C3751.97 10949 3749.54 10957.4 3744.67 10964.2C3739.88 10971.1 3733.14 10976.3 3724.46 10979.9C3715.77 10983.4 3705.55 10985.2 3693.8 10985.2C3687.58 10985.2 3681.71 10984.9 3676.17 10984.3C3670.63 10983.7 3665.53 10982.9 3660.89 10981.8C3656.25 10980.6 3652.17 10979.3 3648.65 10977.6V10959.3C3654.27 10961.6 3661.12 10963.8 3669.2 10965.8C3677.29 10967.8 3685.75 10968.7 3694.58 10968.7C3702.82 10968.7 3709.78 10967.7 3715.47 10965.5C3721.16 10963.2 3725.47 10960.1 3728.39 10955.9C3731.38 10951.7 3732.88 10946.7 3732.88 10940.9C3732.88 10935.3 3731.64 10930.6 3729.17 10926.8C3726.7 10923 3722.59 10919.6 3716.82 10916.5C3711.13 10913.4 3703.34 10910 3693.46 10906.5C3686.5 10904 3680.36 10901.4 3675.04 10898.4C3669.73 10895.4 3665.27 10892.1 3661.68 10888.3C3658.08 10884.6 3655.35 10880.2 3653.48 10875.3C3651.68 10870.4 3650.79 10864.7 3650.79 10858.3C3650.79 10849.6 3652.99 10842.1 3657.41 10835.9C3661.9 10829.6 3668.08 10824.8 3675.94 10821.5C3683.88 10818.1 3692.97 10816.5 3703.23 10816.5C3711.99 10816.5 3720.08 10817.3 3727.49 10818.9C3734.98 10820.6 3741.83 10822.8 3748.04 10825.5L3742.09 10841.9C3736.17 10839.5 3729.89 10837.4 3723.22 10835.8C3716.63 10834.1 3709.82 10833.3 3702.78 10833.3C3695.74 10833.3 3689.79 10834.3 3684.93 10836.4C3680.13 10838.5 3676.47 10841.3 3673.92 10845.1C3671.37 10848.8 3670.1 10853.3 3670.1 10858.5C3670.1 10864.2 3671.3 10869 3673.7 10872.8C3676.17 10876.6 3680.06 10880.1 3685.38 10883C3690.77 10886 3697.88 10889 3706.71 10892.3C3716.37 10895.8 3724.57 10899.5 3731.31 10903.5C3738.05 10907.4 3743.17 10912.2 3746.69 10917.9C3750.21 10923.5 3751.97 10930.6 3751.97 10939.3ZM3801.39 10859.9V10983H3782.74V10859.9H3801.39ZM3792.29 10813.9C3795.36 10813.9 3797.98 10814.9 3800.15 10816.9C3802.4 10818.8 3803.52 10821.9 3803.52 10826.1C3803.52 10830.2 3802.4 10833.3 3800.15 10835.3C3797.98 10837.3 3795.36 10838.4 3792.29 10838.4C3789.07 10838.4 3786.37 10837.3 3784.2 10835.3C3782.11 10833.3 3781.06 10830.2 3781.06 10826.1C3781.06 10821.9 3782.11 10818.8 3784.2 10816.9C3786.37 10814.9 3789.07 10813.9 3792.29 10813.9ZM3886.96 10857.9C3901.64 10857.9 3912.53 10861.2 3919.64 10867.8C3926.76 10874.4 3930.31 10884.9 3930.31 10899.3V10983H3916.72L3913.13 10964.8H3912.23C3908.79 10969.3 3905.19 10973.1 3901.45 10976.1C3897.71 10979.1 3893.36 10981.4 3888.42 10983C3883.56 10984.5 3877.57 10985.2 3870.45 10985.2C3862.97 10985.2 3856.3 10983.9 3850.46 10981.3C3844.7 10978.7 3840.13 10974.7 3836.76 10969.4C3833.47 10964.1 3831.82 10957.4 3831.82 10949.2C3831.82 10936.9 3836.69 10927.5 3846.42 10920.9C3856.15 10914.3 3870.98 10910.7 3890.89 10910.1L3912.12 10909.2V10901.7C3912.12 10891.1 3909.83 10883.6 3905.27 10879.3C3900.7 10875.1 3894.26 10872.9 3885.95 10872.9C3879.51 10872.9 3873.37 10873.9 3867.53 10875.7C3861.69 10877.6 3856.15 10879.8 3850.91 10882.4L3845.18 10868.2C3850.72 10865.4 3857.09 10862.9 3864.28 10860.9C3871.46 10858.9 3879.03 10857.9 3886.96 10857.9ZM3911.89 10922.4L3893.14 10923.1C3877.79 10923.7 3866.97 10926.2 3860.68 10930.7C3854.39 10935.1 3851.25 10941.3 3851.25 10949.4C3851.25 10956.5 3853.38 10961.7 3857.65 10965C3861.92 10968.4 3867.57 10970.1 3874.61 10970.1C3885.54 10970.1 3894.49 10967.1 3901.45 10961C3908.41 10954.9 3911.89 10945.8 3911.89 10933.7V10922.4ZM4026.56 10857.7C4041.9 10857.7 4054.15 10862.9 4063.28 10873.5C4072.41 10884.1 4076.98 10899.9 4076.98 10921.1C4076.98 10935.1 4074.89 10946.9 4070.69 10956.4C4066.5 10965.9 4060.58 10973.1 4052.95 10977.9C4045.39 10982.8 4036.44 10985.2 4026.11 10985.2C4019.59 10985.2 4013.87 10984.4 4008.92 10982.7C4003.98 10980.9 3999.75 10978.6 3996.23 10975.7C3992.72 10972.8 3989.8 10969.6 3987.47 10966.2H3986.13C3986.35 10969.1 3986.61 10972.6 3986.91 10976.7C3987.29 10980.8 3987.47 10984.4 3987.47 10987.5V11038H3968.72V10859.9H3984.11L3986.58 10878.1H3987.47C3989.87 10874.4 3992.79 10871 3996.23 10867.9C3999.68 10864.7 4003.87 10862.3 4008.81 10860.5C4013.83 10858.6 4019.74 10857.7 4026.56 10857.7ZM4023.3 10873.4C4014.76 10873.4 4007.88 10875 4002.64 10878.3C3997.47 10881.6 3993.69 10886.6 3991.29 10893.2C3988.9 10899.7 3987.62 10907.9 3987.47 10917.8V10921.3C3987.47 10931.8 3988.6 10940.5 3990.84 10947.7C3993.16 10954.9 3996.95 10960.4 4002.19 10964.1C4007.5 10967.9 4014.61 10969.7 4023.52 10969.7C4031.16 10969.7 4037.53 10967.7 4042.62 10963.6C4047.71 10959.5 4051.49 10953.7 4053.96 10946.4C4056.5 10939 4057.78 10930.5 4057.78 10920.9C4057.78 10906.4 4054.93 10894.8 4049.24 10886.3C4043.63 10877.7 4034.98 10873.4 4023.3 10873.4ZM4156.94 10857.7C4167.42 10857.7 4176.41 10860 4183.9 10864.6C4191.38 10869.3 4197.11 10875.8 4201.08 10884.2C4205.05 10892.5 4207.03 10902.2 4207.03 10913.4V10924.9H4122.02C4122.24 10939.4 4125.83 10950.4 4132.8 10958C4139.76 10965.5 4149.57 10969.3 4162.22 10969.3C4170.01 10969.3 4176.9 10968.6 4182.88 10967.2C4188.87 10965.7 4195.09 10963.6 4201.53 10960.9V10977.3C4195.31 10980 4189.14 10982.1 4183 10983.3C4176.93 10984.6 4169.75 10985.2 4161.43 10985.2C4149.61 10985.2 4139.27 10982.9 4130.44 10978.1C4121.68 10973.2 4114.87 10966.1 4110 10956.7C4105.13 10947.4 4102.7 10935.9 4102.7 10922.4C4102.7 10909.1 4104.91 10897.6 4109.33 10888C4113.82 10878.3 4120.11 10870.8 4128.19 10865.5C4136.35 10860.3 4145.94 10857.7 4156.94 10857.7ZM4156.72 10872.9C4146.76 10872.9 4138.82 10876.2 4132.91 10882.7C4126.99 10889.2 4123.48 10898.3 4122.35 10910H4187.49C4187.41 10902.7 4186.25 10896.2 4184.01 10890.7C4181.84 10885.1 4178.5 10880.7 4174.01 10877.7C4169.52 10874.5 4163.76 10872.9 4156.72 10872.9ZM4397.72 10983H4290.14V10967.4L4334.05 10922.8C4342.21 10914.6 4349.06 10907.2 4354.6 10900.8C4360.21 10894.4 4364.48 10888 4367.4 10881.8C4370.32 10875.5 4371.78 10868.6 4371.78 10861.1C4371.78 10851.9 4369.01 10844.8 4363.47 10839.9C4358.01 10835 4350.78 10832.5 4341.8 10832.5C4333.93 10832.5 4326.97 10833.9 4320.91 10836.6C4314.84 10839.2 4308.63 10843.1 4302.26 10848L4292.27 10835.4C4296.61 10831.8 4301.33 10828.5 4306.42 10825.7C4311.59 10822.8 4317.09 10820.6 4322.93 10818.9C4328.84 10817.3 4335.13 10816.5 4341.8 10816.5C4351.9 10816.5 4360.63 10818.2 4367.96 10821.7C4375.3 10825.2 4380.95 10830.3 4384.92 10836.8C4388.96 10843.3 4390.99 10851 4390.99 10860C4390.99 10868.7 4389.26 10876.8 4385.82 10884.3C4382.38 10891.7 4377.55 10899.1 4371.33 10906.4C4365.12 10913.7 4357.86 10921.4 4349.54 10929.5L4313.83 10965.1V10965.9H4397.72V10983ZM4523.28 10857.1C4523.28 10864.4 4521.86 10870.8 4519.01 10876.2C4516.17 10881.6 4512.2 10886 4507.11 10889.5C4502.02 10892.8 4496.03 10895.2 4489.14 10896.5V10897.4C4502.17 10899.1 4511.94 10903.3 4518.45 10910C4525.04 10916.7 4528.33 10925.6 4528.33 10936.5C4528.33 10946 4526.09 10954.4 4521.6 10961.8C4517.18 10969.1 4510.37 10974.9 4501.16 10979.1C4492.02 10983.2 4480.31 10985.2 4466 10985.2C4457.32 10985.2 4449.27 10984.5 4441.86 10983.1C4434.52 10981.8 4427.48 10979.5 4420.75 10976.3V10958.7C4427.56 10962.1 4434.97 10964.8 4442.98 10966.7C4450.99 10968.6 4458.74 10969.5 4466.23 10969.5C4481.2 10969.5 4492.02 10966.6 4498.69 10960.7C4505.35 10954.7 4508.68 10946.5 4508.68 10936.2C4508.68 10929.1 4506.81 10923.3 4503.07 10919C4499.4 10914.6 4494.08 10911.3 4487.12 10909.3C4480.23 10907.2 4471.92 10906.2 4462.19 10906.2H4445.79V10890.2H4462.3C4471.21 10890.2 4478.77 10888.9 4484.98 10886.3C4491.2 10883.7 4495.92 10880 4499.13 10875.3C4502.43 10870.5 4504.08 10864.9 4504.08 10858.3C4504.08 10850 4501.31 10843.6 4495.77 10839.1C4490.23 10834.6 4482.7 10832.3 4473.19 10832.3C4467.35 10832.3 4462.04 10832.9 4457.25 10834.1C4452.45 10835.3 4447.96 10836.9 4443.77 10839C4439.58 10841.1 4435.38 10843.6 4431.19 10846.3L4421.76 10833.5C4427.75 10828.9 4435.05 10824.9 4443.66 10821.5C4452.27 10818.1 4462.04 10816.5 4472.97 10816.5C4489.74 10816.5 4502.32 10820.3 4510.7 10827.9C4519.09 10835.5 4523.28 10845.3 4523.28 10857.1ZM4555.06 10912.8C4555.06 10902.9 4555.74 10893.3 4557.08 10883.8C4558.51 10874.4 4560.86 10865.6 4564.16 10857.6C4567.45 10849.4 4571.95 10842.2 4577.64 10836.1C4583.33 10830 4590.4 10825.2 4598.86 10821.7C4607.4 10818.2 4617.62 10816.5 4629.52 10816.5C4632.89 10816.5 4636.52 10816.6 4640.41 10817C4644.31 10817.3 4647.53 10817.8 4650.07 10818.6V10834.6C4647.3 10833.7 4644.12 10833 4640.53 10832.5C4637.01 10832.1 4633.45 10831.8 4629.86 10831.8C4615.93 10831.8 4604.96 10834.9 4596.95 10840.9C4589.02 10847 4583.29 10855.2 4579.77 10865.6C4576.25 10876 4574.23 10887.6 4573.71 10900.6H4574.94C4577.26 10896.8 4580.22 10893.5 4583.81 10890.5C4587.41 10887.4 4591.75 10885 4596.84 10883.2C4602.01 10881.4 4608 10880.5 4614.81 10880.5C4624.39 10880.5 4632.74 10882.4 4639.85 10886.3C4647.04 10890.2 4652.58 10895.9 4656.47 10903.3C4660.44 10910.7 4662.43 10919.7 4662.43 10930.2C4662.43 10941.5 4660.33 10951.3 4656.14 10959.5C4651.94 10967.8 4645.95 10974.1 4638.17 10978.6C4630.46 10983 4621.25 10985.2 4610.54 10985.2C4602.53 10985.2 4595.16 10983.7 4588.42 10980.6C4581.68 10977.6 4575.8 10973 4570.79 10966.9C4565.84 10960.9 4561.99 10953.4 4559.22 10944.4C4556.45 10935.3 4555.06 10924.8 4555.06 10912.8ZM4610.32 10969.5C4620.5 10969.5 4628.66 10966.3 4634.8 10959.8C4640.94 10953.2 4644.01 10943.4 4644.01 10930.2C4644.01 10919.4 4641.28 10910.9 4635.81 10904.6C4630.34 10898.3 4622.11 10895.2 4611.1 10895.2C4603.62 10895.2 4597.1 10896.8 4591.56 10899.9C4586.02 10903 4581.72 10906.9 4578.65 10911.6C4575.58 10916.3 4574.04 10921.1 4574.04 10925.9C4574.04 10930.9 4574.75 10935.9 4576.18 10941C4577.67 10946.1 4579.92 10950.8 4582.91 10955.1C4585.91 10959.5 4589.69 10963 4594.26 10965.6C4598.82 10968.2 4604.18 10969.5 4610.32 10969.5ZM4800.79 10944.9H4776.19V10983H4758V10944.9H4678.6V10929.2L4756.76 10817.9H4776.19V10928.1H4800.79V10944.9ZM4758 10928.1V10874.4C4758 10870.3 4758.03 10866.6 4758.11 10863.3C4758.18 10859.9 4758.3 10856.8 4758.45 10854C4758.6 10851 4758.71 10848.3 4758.78 10845.7C4758.93 10843 4759.05 10840.4 4759.12 10837.9H4758.22C4756.8 10840.9 4755.15 10844.1 4753.28 10847.4C4751.48 10850.7 4749.65 10853.7 4747.78 10856.3L4697.13 10928.1H4758ZM4886.02 10983H4867.83V10866.7C4867.83 10862.2 4867.83 10858.5 4867.83 10855.3C4867.91 10852.1 4867.98 10849.2 4868.06 10846.5C4868.21 10843.9 4868.39 10841.1 4868.62 10838.4C4866.3 10840.7 4864.12 10842.8 4862.1 10844.5C4860.08 10846.2 4857.57 10848.2 4854.58 10850.7L4835.82 10865.8L4826.05 10853.1L4870.53 10818.8H4886.02V10983ZM5017.65 10983H4999.45V10866.7C4999.45 10862.2 4999.45 10858.5 4999.45 10855.3C4999.53 10852.1 4999.6 10849.2 4999.68 10846.5C4999.83 10843.9 5000.01 10841.1 5000.24 10838.4C4997.92 10840.7 4995.75 10842.8 4993.72 10844.5C4991.7 10846.2 4989.19 10848.2 4986.2 10850.7L4967.45 10865.8L4957.67 10853.1L5002.15 10818.8H5017.65V10983ZM5134.11 10816.5C5143.61 10816.5 5152.04 10817.9 5159.37 10820.9C5166.71 10823.9 5172.44 10828.4 5176.56 10834.2C5180.75 10840 5182.85 10847.1 5182.85 10855.5C5182.85 10862.2 5181.39 10868 5178.47 10873.1C5175.62 10878 5171.76 10882.3 5166.9 10886.1C5162.03 10889.7 5156.64 10893 5150.73 10896C5157.76 10899.2 5164.09 10902.8 5169.71 10906.9C5175.4 10910.9 5179.89 10915.7 5183.18 10921.1C5186.48 10926.6 5188.12 10933.1 5188.12 10940.5C5188.12 10949.8 5185.88 10957.7 5181.39 10964.5C5176.97 10971.1 5170.75 10976.3 5162.74 10979.9C5154.73 10983.4 5145.34 10985.2 5134.55 10985.2C5122.95 10985.2 5113.07 10983.5 5104.91 10980.1C5096.82 10976.6 5090.64 10971.5 5086.38 10965C5082.18 10958.4 5080.09 10950.5 5080.09 10941.3C5080.09 10933.8 5081.7 10927.2 5084.92 10921.7C5088.14 10916.1 5092.4 10911.2 5097.72 10907.2C5103.03 10903.2 5108.84 10899.7 5115.13 10897C5109.66 10894 5104.64 10890.6 5100.08 10886.8C5095.58 10882.9 5091.99 10878.5 5089.3 10873.4C5086.68 10868.2 5085.37 10862.2 5085.37 10855.4C5085.37 10847.1 5087.46 10840.1 5091.65 10834.3C5095.92 10828.5 5101.72 10824.1 5109.06 10821.1C5116.47 10818 5124.82 10816.5 5134.11 10816.5ZM5098.39 10941.4C5098.39 10949.8 5101.35 10956.8 5107.26 10962.2C5113.18 10967.6 5122.13 10970.3 5134.11 10970.3C5145.49 10970.3 5154.28 10967.6 5160.5 10962.2C5166.71 10956.8 5169.82 10949.6 5169.82 10940.8C5169.82 10935.3 5168.4 10930.5 5165.55 10926.4C5162.71 10922.2 5158.66 10918.5 5153.42 10915.2C5148.18 10911.9 5142 10908.9 5134.89 10906.2L5130.85 10904.7C5123.96 10907.6 5118.08 10910.8 5113.22 10914.3C5108.43 10917.7 5104.76 10921.6 5102.21 10926.1C5099.67 10930.5 5098.39 10935.6 5098.39 10941.4ZM5133.88 10831.7C5125.05 10831.7 5117.82 10833.9 5112.21 10838.1C5106.59 10842.3 5103.78 10848.4 5103.78 10856.3C5103.78 10862 5105.13 10866.8 5107.83 10870.8C5110.6 10874.7 5114.34 10878.1 5119.06 10880.9C5123.77 10883.7 5129.05 10886.3 5134.89 10888.7C5140.58 10886.3 5145.64 10883.6 5150.05 10880.8C5154.47 10877.9 5157.95 10874.4 5160.5 10870.5C5163.04 10866.5 5164.32 10861.7 5164.32 10856.2C5164.32 10848.3 5161.51 10842.2 5155.89 10838C5150.35 10833.8 5143.01 10831.7 5133.88 10831.7Z" fill="white"/>
<rect x="13554" y="1055.18" width="476.845" height="1698.3" transform="rotate(-45 13554 1055.18)" fill="white"/>
<rect x="19149.8" y="1705.16" width="447" height="925" transform="rotate(-90 19149.8 1705.16)" fill="white"/>
<rect x="19149.8" y="1170.16" width="437" height="1409" transform="rotate(-90 19149.8 1170.16)" fill="white"/>
<rect x="19149.8" y="2233.16" width="440" height="1926" transform="rotate(-90 19149.8 2233.16)" fill="white"/>
<rect x="15619.3" y="718" width="476.845" height="1698.3" transform="rotate(45 15619.3 718)" fill="white"/>
<rect x="13891.6" y="718.577" width="476.845" height="1002.18" transform="rotate(45 13891.6 718.577)" fill="white"/>
<rect x="16072.8" y="718.157" width="477" height="1537" fill="white"/>
<path fill-rule="evenodd" clip-rule="evenodd" d="M16778.7 2100.11C16888.8 2203.99 17054.9 2270.16 17240.8 2270.16C17572.1 2270.16 17840.7 2059.96 17840.7 1800.66C17840.7 1541.89 17573.2 1332.01 17242.8 1331.16V1672.26C17331.7 1673.11 17403.3 1730.27 17403.3 1800.66C17403.3 1871.58 17330.6 1929.07 17240.8 1929.07C17151 1929.07 17078.3 1871.58 17078.3 1800.66H17078.2L16778.7 2100.11Z" fill="white"/>
<path fill-rule="evenodd" clip-rule="evenodd" d="M17706.9 903.298C17596.9 799.417 17430.7 733.25 17244.8 733.25C16913.5 733.25 16644.9 943.452 16644.9 1202.75C16644.9 1461.52 16912.4 1671.4 17242.8 1672.25L17242.8 1331.15C17154 1330.29 17082.3 1273.13 17082.3 1202.75C17082.3 1131.83 17155.1 1074.34 17244.8 1074.34C17334.6 1074.34 17407.3 1131.83 17407.3 1202.75L17407.4 1202.75L17706.9 903.298Z" fill="white"/>
<path fill-rule="evenodd" clip-rule="evenodd" d="M17970.9 2100.11C18080.9 2203.99 18247 2270.16 18432.9 2270.16C18764.2 2270.16 19032.8 2059.96 19032.8 1800.66C19032.8 1541.89 18765.3 1332.01 18434.9 1331.16V1672.26C18523.8 1673.12 18595.4 1730.27 18595.4 1800.66C18595.4 1871.58 18522.7 1929.07 18432.9 1929.07C18343.2 1929.07 18270.4 1871.58 18270.4 1800.66H18270.3L17970.9 2100.11Z" fill="white"/>
<path fill-rule="evenodd" clip-rule="evenodd" d="M18899 903.295C18789 799.415 18622.8 733.25 18436.9 733.25C18105.6 733.25 17837 943.452 17837 1202.75C17837 1461.52 18104.5 1671.4 18434.9 1672.25L18434.9 1331.15C18346.1 1330.29 18274.4 1273.13 18274.4 1202.75C18274.4 1131.83 18347.2 1074.34 18437 1074.34C18526.7 1074.34 18599.5 1131.83 18599.5 1202.75L18599.6 1202.75L18899 903.295Z" fill="white"/>
<defs>
<clipPath id="clip0_1413_574">
<rect width="3932" height="1313" fill="white" transform="translate(2625 8774)"/>
</clipPath>
</defs>
</svg>
