<svg width="1315" height="1315" viewBox="0 0 1315 1315" fill="none" xmlns="http://www.w3.org/2000/svg"><rect x="0" y="0" width="2000" height="2000" fill="white" /><path fill-rule="evenodd" clip-rule="evenodd" d="M1315 0H0V1315H1315V0ZM337 540.428C374.841 540.428 406.795 558.652 406.795 607.776H488.364H543.022H624.035C624.035 558.652 655.859 540.428 693.545 540.428C693.545 540.428 693.545 309.862 693.545 275H543.022H488.364H337C337.001 309.862 337 540.428 337 540.428ZM800.806 553.898C636.499 556.823 636.499 664.467 636.499 796.828C636.499 931.028 713.17 1039.82 807.749 1039.82C902.329 1039.82 979 931.028 979 796.828C979 664.466 979 556.823 814.691 553.898V655.661H830.889V748.229H784.605V655.661H800.806V553.898ZM599 618H435V713.696L599 744V618Z" fill="#d6cfb2"/></svg>