<svg width="1315" height="1315"  viewBox="0 0 1330 1330" fill="none" xmlns="http://www.w3.org/2000/svg"><rect x="0" y="0" width="2000" height="2000" fill="white" /><path fill-rule="evenodd" clip-rule="evenodd" d="M1330 0H0V1330H1330V0ZM920.453 380.457H1040V446.316H920.453C837.188 446.316 773.686 491.578 712.041 546.38C718.635 552.007 725.221 557.575 731.825 563.046C789.555 510.112 845.236 467.609 907.554 467.609H1040V499.796H907.554C855.058 499.796 806.091 534.979 756.955 583.212C764.043 588.688 771.187 594.002 778.415 599.111C820.611 558.666 859.117 530.498 893.678 530.498H1040V591.405H893.678C864.839 591.405 837.378 602.201 810.29 619.795C852.82 644.784 899.417 661.226 955.392 661.226H1040V993H955.392C862.149 993 775.346 874.759 684.685 751.264L677.565 741.569C598.201 822.662 509.142 906.343 388.717 906.343C384.039 906.343 368.194 906.266 348.772 906.172L348.485 906.17C330.015 906.08 308.355 905.975 290 905.906V884.718C298.892 884.801 307.796 884.906 316.432 885.008C350.31 885.408 380.053 885.759 388.717 884.555C488.829 884.555 580.288 804.327 661.862 720.251C657.132 713.852 652.388 707.465 647.63 701.104C571.982 782.845 490.11 857.839 390.193 855.339C369.524 854.821 329.027 854.958 290 855.129V766.784L297.189 766.906H297.194C338.016 767.601 378.482 768.29 390.192 766.205C481.26 766.205 554.844 720.837 620.519 665.469C614.904 658.238 609.268 651.084 603.605 644.031C540.986 695.586 470.606 736.99 376.802 736.99H290V551.295H376.802C420.368 551.295 461.847 545.405 501.376 535.812C456.708 498.658 409.94 475.037 360.153 475.037H290V376L360.153 376C483.93 376 567.864 427.368 641.299 486.505C669.439 474.035 696.421 460.941 722.313 448.375C796.79 412.232 862.266 380.457 920.453 380.457Z" fill="#d6cfb2"/></svg>