<svg width="1315" height="1315" viewBox="0 0 1315 1315" fill="none" xmlns="http://www.w3.org/2000/svg"><rect x="0" y="0" width="2000" height="2000" fill="white" /><path fill-rule="evenodd" clip-rule="evenodd" d="M1315 0H0V1315H1315V0ZM858.327 377.247L388 299V827.695L527.575 853.072V539.662L858.327 377.247ZM424.374 353.561L686.606 398.818V431.808L424.374 386.552V353.561ZM424.374 408.546L656.97 448.687L608.309 473.28L424.374 441.536V408.546ZM489.51 775.916V742.925L424.374 731.684V764.675L489.51 775.916ZM489.51 722.623V689.633L424.374 678.392V711.382L489.51 722.623ZM489.51 614.346V581.356L424.374 570.115V603.105L489.51 614.346ZM489.51 533.318L497.26 529.401L424.374 516.822V549.813L489.51 561.054V533.318ZM529.701 513.006L578.362 488.413L424.374 461.838V494.829L529.701 513.006ZM558.028 560.81L926 370.057V856.456L558.028 1047.21V560.81Z" fill="#d6cfb2"/></svg>