<svg width="1315" height="1315"  viewBox="0 0 1566 1566" fill="none" xmlns="http://www.w3.org/2000/svg"><rect width="1566" height="1566" fill="#d6cfb2"/><rect x="887" y="937" width="183" height="441" transform="rotate(90 887 937)" fill="white"/><rect x="1025" y="937" width="183" height="107" transform="rotate(90 1025 937)" fill="white"/><rect x="1120" y="937" width="183" height="65" transform="rotate(90 1120 937)" fill="white"/><rect x="751" y="446" width="183" height="305" transform="rotate(90 751 446)" fill="white"/><rect x="1055" y="446" width="183" height="267" transform="rotate(90 1055 446)" fill="white"/><rect x="616" y="692" width="183" height="170" transform="rotate(90 616 692)" fill="white"/><rect x="720" y="692" width="183" height="73" transform="rotate(90 720 692)" fill="white"/><rect x="824" y="692" width="183" height="73" transform="rotate(90 824 692)" fill="white"/></svg>