<svg width="1315" height="1315" viewBox="0 0 1351 1351" fill="none" xmlns="http://www.w3.org/2000/svg"><rect x="0" y="0" width="2000" height="2000" fill="white" /><path fill-rule="evenodd" clip-rule="evenodd" d="M1351 0H0V1351H1351V0ZM617 709.772C637.892 705.396 657.579 697.744 675.5 687.377C695.692 699.058 718.127 707.292 742 711.276V827H617V709.772ZM816 709.772V827H974V901H816V1036H742V901H617V1036H543V901H377V827H543V711.276C448.801 695.555 377 613.663 377 515C377 405.095 466.096 316 576 316C612.246 316 646.229 325.691 675.5 342.623C704.771 325.691 738.754 316 775 316C884.904 316 974 405.095 974 515C974 610.85 906.234 690.873 816 709.772ZM775 644C760.36 644 746.291 641.562 733.175 637.068C759.389 603.364 775 561.005 775 515C775 468.995 759.389 426.636 733.175 392.931C746.291 388.438 760.36 386 775 386C846.245 386 904 443.755 904 515C904 586.245 846.245 644 775 644ZM576 386C590.64 386 604.709 388.438 617.825 392.931C591.611 426.636 576 468.995 576 515C576 561.005 591.611 603.364 617.825 637.068C604.709 641.562 590.64 644 576 644C504.755 644 447 586.245 447 515C447 443.755 504.755 386 576 386ZM646 515C646 483.806 657.072 455.198 675.5 432.892C693.928 455.198 705 483.806 705 515C705 546.194 693.928 574.802 675.5 597.108C657.072 574.802 646 546.194 646 515Z"  fill="#d6cfb2"/></svg>