<svg  width="1315" height="1315"  viewBox="0 0 1749 1749" fill="none" xmlns="http://www.w3.org/2000/svg"><rect x="0" y="0" width="2000" height="2000" fill="white" /><path fill-rule="evenodd" clip-rule="evenodd" d="M1749 0H0V1749H1749V0ZM527 765.752C527 632.481 662.31 510 856.942 510C932.805 510 1026.05 533.237 1098.34 586.969C1167.6 638.443 1221 719.929 1221 848.811C1221 957.771 1169.69 1086.23 1063.76 1164.09C961.559 1239.21 794.468 1277.09 541.323 1179.31C502.684 1164.39 459.262 1183.61 444.337 1222.25C429.412 1260.89 448.635 1304.31 487.274 1319.24C775.536 1430.58 999.295 1397.64 1152.6 1284.95C1302.17 1175.01 1371 998.668 1371 848.811C1371 670.672 1293.68 545.253 1187.82 466.577C1084.99 390.157 958.705 360 856.942 360C612.516 360 377 520.067 377 765.752C377 876.014 411.889 981.62 486.733 1060.21C562.265 1139.52 671.642 1184.11 806.139 1184.11C918.944 1184.11 1005.98 1144.91 1063.45 1076.85C1119.1 1010.96 1139.6 926.843 1139.6 848.811C1139.6 763.509 1108.31 692.451 1052.69 643.589C998.443 595.94 927.639 575.063 856.942 575.063C776.563 575.063 713.763 610.917 672.168 655.839C632.765 698.394 607.283 754.776 607.283 805.798C607.283 842.862 622.098 889.638 651.362 927.971C682.834 969.198 734.467 1004.65 806.139 1004.65C847.561 1004.65 881.139 971.066 881.139 929.645C881.139 888.224 847.561 854.645 806.139 854.645C789.184 854.645 778.889 847.822 770.59 836.951C765.978 830.91 762.368 823.86 759.997 817.054C757.714 810.503 757.342 806.416 757.291 805.855C757.287 805.815 757.285 805.793 757.284 805.789C757.283 805.787 757.283 805.79 757.283 805.798C757.283 800.46 762.581 778.974 782.231 757.751C799.69 738.896 824.22 725.063 856.942 725.063C899.347 725.063 932.374 737.558 953.688 756.282C973.622 773.792 989.605 802.109 989.605 848.811C989.605 902.783 975.248 948.818 948.854 980.072C924.283 1009.17 882.084 1034.11 806.139 1034.11C705.904 1034.11 638.211 1001.76 595.356 956.763C551.814 911.042 527 844.969 527 765.752Z" fill="#d6cfb2"/></svg>