<svg width="1315" height="1315" viewBox="0 0 1315 1315" fill="none" xmlns="http://www.w3.org/2000/svg"><rect x="0" y="0" width="2000" height="2000" fill="white" /><path fill-rule="evenodd" clip-rule="evenodd" d="M1315 0H0V1315H1315V0ZM346 365H399H463H634V827.161H463V951H346V884.611H260V590.973H346V365ZM705 369.467C865 369.467 1055.5 433.301 1055.5 938.87C1055.5 939.083 1055.5 939.295 1055.5 939.507H973.996C973.646 892.631 948.231 866.5 839 866.5C714.5 866.5 705 787 705 709.5V369.467ZM823.5 815C860.227 815 890 785.227 890 748.5C890 711.773 860.227 682 823.5 682C786.773 682 757 711.773 757 748.5C757 785.227 786.773 815 823.5 815Z" fill="#d6cfb2"/></svg>