<svg width="1315" height="1315"  viewBox="0 0 1351 1351" fill="none" xmlns="http://www.w3.org/2000/svg"><rect x="0" y="0" width="2000" height="2000" fill="white" /><path fill-rule="evenodd" clip-rule="evenodd" d="M1351 0H0V1351H1351V0ZM412.157 360.684C343.976 393.403 297.315 461.796 295 543.036H412.157V360.684ZM297.108 581.641C302.392 620.199 317.084 657.246 339.882 694.597H412.157V581.641H297.108ZM366.142 733.203C379.747 751.424 395.134 769.861 412.157 788.717V733.203H366.142ZM452.193 830.959C465.841 844.774 480.251 858.872 495.371 873.326H573.728V503H452.193V830.959ZM528.748 904.782C543.211 918.247 558.217 932.04 573.728 946.212V904.782H528.748ZM731.284 987.882L735.298 984.241V796.115H613.763V982.664L618.898 987.331L618.899 987.332L620.401 988.698L675.601 1038.57L730.801 988.317L731.284 987.882ZM775.333 947.872C817.869 909.104 856.637 873.168 890.878 839.01H775.333V947.872ZM936.904 791.007C947.624 779.216 957.708 767.59 967.12 756.08H936.904V791.007ZM1056.29 549.38C1056.29 521.747 1051.18 495.509 1041.82 471.544H936.904V720.334H994.376C1034.17 663.798 1056.29 608.865 1056.29 549.38ZM1023.7 435.799C1002.72 402.809 972.709 376.352 936.904 359.671V435.799H1023.7ZM846.912 340C822.357 340 798.167 344.238 775.333 352.053V505.86H896.869V345.781C880.904 341.998 864.181 340 846.912 340ZM675.601 419.564C658.342 399.297 637.264 382.125 613.763 368.98V541.606H735.298V370.193C712.658 383.175 692.334 399.915 675.601 419.564ZM573.728 471.544V351.332C551.525 343.977 528.079 340 504.29 340C486.248 340 468.801 342.181 452.193 346.3V471.544H573.728ZM735.298 581.641H613.763V756.08H735.298V581.641ZM775.333 694.597H896.869V796.115H775.333V694.597ZM775.333 543.036H896.869V653.132H775.333V543.036Z" fill="#d6cfb2" /></svg>