<svg width="1351" height="1353" viewBox="0 0 1351 1353" fill="none" xmlns="http://www.w3.org/2000/svg">
<rect width="1351" height="1351" fill="white"/>
<path d="M489.976 495.239C511.432 481.681 534.413 476.691 547.771 477.229C550.741 477.349 562.365 479.38 578.623 487.099C594.032 494.414 610.012 505.176 623.027 519.08C646.423 544.074 664.467 582.896 642.682 647.358C611.29 740.246 610.151 813.994 639.039 867.95C669.212 924.307 723.4 943.378 764.839 943.378C779.528 943.378 796.574 943.017 814.538 941.479C810.153 963.693 807.053 987.246 804.825 1012.41C797.439 1095.86 799.131 1205.68 799.221 1353H0V930.193C184.262 985.487 305.999 1005 387.706 1001.92C433.191 1000.21 470.69 991.374 500.351 973.977C531.531 955.688 549.622 930.523 559.498 905.116C579.93 852.554 578.465 805.527 562.582 763.357C547.988 724.611 522.079 693.058 502.531 669.447C458.69 616.493 439.189 591.329 449.7 547.73C454.935 526.015 469.412 508.233 489.976 495.239ZM1351 1353H919.222C919.14 1201.51 917.565 1099.74 924.357 1022.99C931.13 946.475 945.662 904.351 972.458 869.711L971.938 869.309C985.028 851.883 994.708 830.919 999.468 806.247C1007.42 765.048 1000.71 718.595 982.286 667.376C969.198 630.981 965.643 599.064 970.816 569.688C975.948 540.551 990.487 509.216 1021.18 475.09C1075.85 414.297 1177.94 348.826 1351 279.242V1353ZM1351 217.384C1162.07 291.266 1044.08 363.627 978.423 436.641C941.789 477.376 921.489 518.266 914.188 559.716C906.887 601.175 912.556 643.394 928.179 686.835C944.595 732.482 948.307 767.896 943.01 795.354C937.695 822.899 923.351 842.231 904.133 855.686C884.985 869.091 861.075 876.616 836.582 880.806C812.072 884.998 786.806 885.878 764.839 885.878C739.607 885.878 707.74 874.448 689.73 840.811C671.774 807.273 667.925 752.255 697.154 665.768C725.983 580.464 702.31 519.639 665.006 479.786C646.299 459.801 624.116 445.045 603.284 435.155C582.417 425.248 563.069 420.3 550.089 419.776C523.819 418.716 489.454 427.551 459.26 446.631C429.102 465.688 403.306 494.833 393.802 534.254C375.572 609.868 417.811 657.283 458.24 706.116C478.356 730.413 498.031 755.106 508.772 783.625C519.568 812.286 521.3 844.676 505.904 884.284C500.194 898.975 490.07 913.346 471.26 924.379C452.513 935.375 425.298 942.963 385.539 944.463C311.027 947.273 191.803 928.716 0 870.116V864.885C192.497 923.787 311.492 942.252 385.351 939.466C424.611 937.985 450.931 930.506 468.729 920.066C486.464 909.664 495.896 896.232 501.244 882.473C516.202 843.991 514.446 812.873 504.093 785.387C493.686 757.758 474.554 733.661 454.389 709.305C414.257 660.83 370.04 611.48 388.94 533.082C398.815 492.121 425.597 461.988 456.589 442.404C487.543 422.844 522.898 413.675 550.291 414.78C564.142 415.339 584.161 420.541 605.429 430.639C626.732 440.753 649.454 455.855 668.656 476.369C707.17 517.515 731.333 580.253 701.892 667.368C672.851 753.299 677.133 806.688 694.139 838.45C711.091 870.112 741.016 880.878 764.839 880.878C786.702 880.878 811.641 879.999 835.739 875.877C859.856 871.752 882.96 864.406 901.266 851.59C919.501 838.823 933.049 820.582 938.1 794.406C943.167 768.144 939.716 733.69 923.474 688.526C907.631 644.473 901.777 601.358 909.264 558.848C916.753 516.327 937.554 474.608 974.705 433.298C1041.35 359.195 1160.74 286.248 1351 212.016V217.384ZM228.151 2C253.857 193.424 301.967 309.122 361.289 379.121C373.115 393.076 385.178 404.966 397.269 415.118C368.318 440.441 343.777 475.076 333.042 519.605C306.423 630.019 373.379 701.621 410.099 745.974C430.831 771.016 443.729 788.252 450.283 805.654C455.548 819.632 457.573 836.113 447.65 861.64C446.467 864.683 445.003 867.322 439.639 870.469C432.754 874.507 416.718 880.742 383.184 882.007C317.148 884.497 200.927 867.268 0 804.709V2H228.151ZM1351 150.393C1146.01 228.395 1010.12 307.933 931.951 394.849C888.856 442.769 862.293 494.042 852.636 548.875C843.021 603.469 850.989 656.885 869.366 707.985C883.604 747.577 884.056 770.993 881.641 783.514C879.629 793.938 875.233 799.624 868.288 804.486C859.663 810.525 845.835 815.815 826.044 819.2C806.679 822.513 785.503 823.378 764.839 823.378C757.223 823.378 749.619 820.253 744.83 811.31C738.756 799.965 729.487 765.308 756.364 685.778C792.849 577.821 763.057 493.08 710.635 437.075C685.741 410.48 656.815 391.384 630.089 378.695C607.623 368.029 583.751 360.503 562.234 358.074L562.312 357.447C529.635 353.435 491.235 346.847 452.837 301.538C415.565 257.558 373.875 171.639 349.312 2H1351V150.393Z" fill="#D6CFB2"/>
</svg>
