<svg width="1351" height="1351" viewBox="0 0 1351 1351" fill="none" xmlns="http://www.w3.org/2000/svg">
<path d="M318.478 351.296C362.6 323.383 411.167 311.933 443.485 313.238C444.118 313.264 444.791 313.306 445.503 313.361C445.818 313.4 446.132 313.437 446.445 313.476L446.449 313.442C459.313 314.626 483.619 320.428 513.277 334.524C544.405 349.32 577.069 371.222 604.094 400.126C655.076 454.655 691.088 538.675 647.458 667.924C592.647 830.295 593.869 950.268 638.462 1033.65C684.562 1119.85 767.068 1149.09 830.769 1149.09C866.269 1149.09 908.484 1147.88 951.396 1141.97C947.422 1154.99 944.103 1168.18 941.377 1181.7C931.134 1232.49 929.812 1287.24 929.97 1351H0V1241.47C89.0731 1258.54 170.462 1260.87 239.007 1246.84C323.198 1229.6 396.788 1185 428.071 1104.42C461.373 1018.65 458.574 943.916 433.454 877.146C409.833 814.36 367.5 762.268 332.115 719.479C255.833 627.233 206.029 567.541 229.905 468.389C242.074 417.855 275.402 378.547 318.478 351.296Z" fill="#D6CFB2"/>
<path d="M1351 1351H1070.06C1069.89 1289.52 1070.77 1248.29 1078.61 1209.38C1088.65 1159.61 1111.16 1111.54 1173.44 1030.73L1172.63 1030.11C1192.38 1003.43 1206.95 971.429 1214.23 933.644C1226.73 868.769 1216.67 792.703 1184.99 704.506C1136.02 568.167 1159.29 470.027 1209.9 393.331C1245.15 339.926 1295.29 294.53 1351 254.936V1351Z" fill="#D6CFB2"/>
<path d="M1351 173.456C1276.83 221.294 1203.45 280.559 1153.57 356.153C1091.13 450.772 1065.37 571.167 1121.47 727.325C1150.8 808.987 1157.34 872.109 1147.95 920.87C1138.53 969.719 1113.16 1003.95 1079.12 1027.81C1045.16 1051.61 1002.65 1065.03 958.935 1072.52C915.197 1080.01 870.073 1081.59 830.769 1081.59C786.131 1081.59 729.823 1061.35 697.984 1001.82C666.2 942.386 659.135 844.378 711.412 689.513C763.29 535.83 720.695 426.002 653.4 354.026C619.698 317.98 579.753 291.384 542.255 273.561C504.721 255.72 469.803 246.746 446.21 245.793C398.715 243.874 336.772 259.849 282.39 294.253C228.045 328.633 181.451 381.286 164.281 452.586C131.364 589.28 207.803 675.072 280.098 762.494C316.146 806.086 351.17 850.128 370.276 900.914C389.436 951.842 392.55 1009.42 365.147 1079.99C344.93 1132.06 295.844 1166.3 225.468 1180.71C164.881 1193.12 88.282 1190.9 0 1172.65V1167.54C88.2578 1185.89 164.498 1188.09 224.465 1175.81C293.818 1161.61 341.088 1128.14 360.486 1078.18C387.452 1008.73 384.315 952.429 365.597 902.675C346.825 852.778 312.342 809.332 276.244 765.681C204.245 678.616 125.833 590.891 159.42 451.416C176.96 378.578 224.537 324.936 279.717 290.027C334.859 255.143 397.792 238.834 446.411 240.798C470.875 241.786 506.467 251.013 544.401 269.044C582.372 287.092 622.856 314.037 657.053 350.612C725.556 423.88 768.638 535.62 716.149 691.112C664.06 845.422 671.558 941.802 702.394 999.462C733.175 1057.02 787.544 1076.59 830.769 1076.59C869.969 1076.59 914.765 1075.01 958.091 1067.59C1001.43 1060.17 1043.13 1046.93 1076.25 1023.71C1109.31 1000.55 1133.89 967.404 1143.04 919.924C1152.21 872.356 1145.92 810.193 1116.76 729.016C1060.14 571.39 1086.08 449.347 1149.39 353.4C1200.41 276.087 1275.61 215.846 1351 167.515V173.456Z" fill="#D6CFB2"/>
<path d="M33.3018 0C66.7372 110.181 119.244 183.911 185.224 231.996C195.384 239.4 205.729 246.068 216.178 252.083C160.917 294.272 113.185 355.095 93.7959 435.613C51.169 612.631 156.216 726.455 224.227 808.697C260.988 853.152 288.162 888.546 302.42 926.442C315.178 960.354 318.63 999.496 297.563 1053.75C289.231 1075.21 266.462 1098.31 210.925 1109.69C159.793 1120.15 88.4806 1118.38 0 1098.48V0H33.3018Z" fill="#D6CFB2"/>
<path d="M1351 88.1475C1261.62 141.594 1160.2 214.471 1093.05 316.223C1017.91 430.091 989.493 574.389 1053.23 751.835C1080.05 826.476 1082.82 875.696 1076.76 907.15C1071.17 936.162 1057.31 954.563 1037.51 968.438C1015.76 983.685 984.955 994.509 946.697 1001.06C908.935 1007.53 868.56 1009.09 830.769 1009.09C806.607 1009.09 778.436 998.522 761.916 967.63C743.889 933.92 730.549 859.504 780.104 712.701C840.842 532.774 791.174 395.228 706.358 304.513C665.484 260.795 617.718 229.156 573.378 208.08C534.432 189.569 494.421 177.47 460.422 174.143C387.289 165.199 323.056 159.212 267.68 118.854C237.753 97.0448 206.449 61.6305 181.492 0H1351V88.1475Z" fill="#D6CFB2"/>
</svg>
