<svg width="1315" height="1315" viewBox="0 0 2167 2167" fill="none" xmlns="http://www.w3.org/2000/svg">
<path d="M897.562 712.02C876.15 712.469 861.416 720.328 842.361 730.492Z" fill="#d6cfb2"/>
<path d="M930.4 652.449C921.816 649.07 912.074 647 899.5 647Z" fill="#d6cfb2"/>
<path d="M899.5 647C877.027 647 861.982 655.027 842.361 665.492Z" fill="#d6cfb2"/>
<path fill-rule="evenodd" clip-rule="evenodd" d="M2167 0H0V2167H2167V0ZM1095.09 518.867L1091.37 525.156L1042.62 496.062L884.141 761.629L941.207 868.988L782.932 1134.2L955.443 1213.04L1045.62 1397.19L1168.12 1474.38L1227.28 1687.37L1294.72 1668.63L1292 1658.81L1303.96 1655.52L1241.93 1429.95L1119.64 1352.13L1031.16 1169.63L898.359 1108.34L1037.17 873.422L982.174 768.922L1120.91 534.133L1095.09 518.867ZM1503.89 528L1371 730.953L1396.1 747.387L1436.46 685.738L1474.05 750.172L1491.32 740.094L1449.32 668.094L1447.21 669.324L1458.02 652.828L1500.05 728.172L1517.52 718.426L1470.38 633.941L1479.22 620.441L1527.05 706.172L1544.52 696.426L1491.59 601.555L1502.21 585.34L1612.54 777.637L1638.56 762.707L1503.89 528ZM1555.89 720L1690.56 954.707L1664.54 969.637L1554.21 777.34L1543.59 793.555L1596.52 888.426L1579.05 898.172L1531.22 812.441L1522.38 825.941L1569.52 910.426L1552.05 920.172L1510.02 844.828L1499.21 861.324L1501.32 860.094L1543.32 932.094L1526.05 942.172L1488.46 877.738L1448.1 939.387L1423 922.953L1555.89 720ZM1503.89 918L1371 1120.95L1396.1 1137.39L1436.46 1075.74L1474.05 1140.17L1491.32 1130.09L1449.32 1058.09L1447.21 1059.32L1458.02 1042.83L1500.05 1118.17L1517.52 1108.43L1470.38 1023.94L1479.22 1010.44L1527.05 1096.17L1544.52 1086.43L1491.59 991.555L1502.21 975.34L1612.54 1167.64L1638.56 1152.71L1503.89 918ZM1421.84 1104.83L1288.95 1307.78L1314.05 1324.21L1354.42 1262.57L1392 1327L1409.28 1316.92L1367.28 1244.92L1365.16 1246.15L1375.97 1229.66L1418 1305L1435.47 1295.25L1388.33 1210.77L1397.17 1197.27L1445 1283L1462.47 1273.25L1409.54 1178.38L1420.16 1162.17L1530.49 1354.46L1556.51 1339.54L1421.84 1104.83ZM1040.97 821.285L1034.99 809.797L1380.77 885.59L1378.58 895.289L1040.97 821.285ZM1058.6 855.148L1052.62 843.66L1374.31 914.176L1372.12 923.875L1058.6 855.148ZM1076.22 889.012L1070.24 877.523L1367.85 942.758L1365.66 952.457L1076.22 889.012ZM1061.15 915.707L1066.78 906.762L1361.4 971.344L1359.21 981.043L1061.15 915.707ZM1044.57 942.074L1050.2 933.129L1354.94 999.93L1352.75 1009.62L1044.57 942.074ZM1028 968.441L1033.62 959.496L1345.31 1027.82L1336.29 1036.02L1028 968.441ZM1011.42 994.805L1017.04 985.859L1318.74 1051.99L1309.72 1060.2L1011.42 994.805ZM994.842 1021.17L1000.47 1012.23L1292.17 1076.17L1283.15 1084.37L994.842 1021.17ZM1377.27 865L1023.35 787.422L1017.37 775.93L1368.37 852.871L1377.27 865ZM1342.16 817.125L1351.05 829.254L1020.25 756.742L1025.44 747.699L1342.16 817.125ZM1315.95 781.379L1324.84 793.508L1035.55 730.094L1040.74 721.055L1315.95 781.379ZM1302.58 748.449L1304.66 759.086L1050.85 703.449L1056.04 694.406L1302.58 748.449ZM1296.45 717.105L1298.53 727.742L1066.14 676.801L1071.33 667.762L1296.45 717.105ZM1290.31 685.762L1292.39 696.398L1081.44 650.156L1086.63 641.113L1290.31 685.762ZM1284.18 654.418L1286.26 665.051L1096.74 623.508L1101.93 614.469L1284.18 654.418ZM1278.05 623.074L1280.13 633.707L1112.04 596.863L1117.22 587.82L1278.05 623.074ZM864.5 772L870.512 761.094C856.621 765.105 844.654 771.535 832.736 777.938L832.537 778.043C829.822 779.5 827.109 780.957 824.375 782.383C802.047 794.027 775.652 805.5 730 805.5C672.725 805.5 641.25 793.816 615.15 782.125C611.887 780.66 608.668 779.176 605.461 777.695C582.732 767.211 560.604 757 527 757C507.936 757 492.207 761.984 478 768.551V790.879C493.445 782.828 508.131 777 527 777C555.998 777 574.24 785.379 596.908 795.793L597.283 795.969C600.412 797.402 603.631 798.879 606.975 800.375C635 812.934 669.275 825.5 730 825.5C779.848 825.5 809.453 812.723 833.625 800.117C836.537 798.602 839.33 797.109 842.037 795.672L842.424 795.461C852.262 790.211 860.947 785.578 870.012 782.266L864.5 772ZM897.562 712.02L908.424 692.316C905.57 692.109 902.6 692 899.5 692C871.711 692 852.156 702.504 832.736 712.938C830.734 714.012 828.734 715.086 826.725 716.148L824.375 717.383C802.047 729.027 775.652 740.5 730 740.5C672.725 740.5 641.25 728.816 615.15 717.125C612.057 715.738 609.004 714.328 605.963 712.926L605.477 712.703C582.732 702.211 560.602 692 527 692C507.936 692 492.207 696.984 478 703.551V725.879C493.445 717.828 508.131 712 527 712C555.998 712 574.24 720.379 596.906 730.789C599.818 732.129 602.803 733.5 605.891 734.891L606.975 735.375C635 747.934 669.275 760.5 730 760.5C779.848 760.5 809.453 747.723 833.625 735.117C836.273 733.738 838.824 732.379 841.303 731.055M930.4 652.449L940.119 634.82C929.141 630.18 916.191 627 899.5 627C871.711 627 852.156 637.504 832.736 647.938L830.305 649.238C828.332 650.297 826.359 651.348 824.375 652.383C802.047 664.027 775.652 675.5 730 675.5C672.725 675.5 641.25 663.816 615.15 652.125C612.057 650.738 609.004 649.328 605.963 647.926L605.477 647.703C582.732 637.211 560.602 627 527 627C507.936 627 492.207 631.984 478 638.551V660.879C493.445 652.828 508.131 647 527 647C555.998 647 574.24 655.379 596.908 665.793L597.283 665.969C600.412 667.402 603.631 668.879 606.975 670.375C635 682.934 669.275 695.5 730 695.5C779.848 695.5 809.453 682.723 833.625 670.117C836.273 668.738 838.824 667.379 841.303 666.055M957.686 602.949L967.375 585.375C950.221 574 931.916 562 899.5 562C871.711 562 852.156 572.504 832.736 582.938L828.121 585.406C826.875 586.07 825.627 586.73 824.375 587.383C802.047 599.027 775.652 610.5 730 610.5C672.725 610.5 641.25 598.816 615.15 587.125C612.002 585.715 608.893 584.281 605.799 582.855L605.477 582.703C582.732 572.211 560.602 562 527 562C507.936 562 492.207 566.984 478 573.551V595.879C493.445 587.828 508.131 582 527 582C555.998 582 574.24 590.379 596.906 600.789C600.164 602.289 603.502 603.82 606.975 605.375C635 617.934 669.275 630.5 730 630.5C779.848 630.5 809.453 617.723 833.625 605.117C836.609 603.559 839.467 602.035 842.234 600.562L842.428 600.457C861.982 590.027 877.027 582 899.5 582C926.018 582 939.945 591.215 956.957 602.469L957.686 602.949ZM984.846 553.68L994.535 536.105C985.746 532.266 978.367 527.621 971.182 522.895L967.719 520.605C950.465 509.16 932.133 497 899.5 497C871.711 497 852.156 507.504 832.736 517.938C829.955 519.43 827.176 520.922 824.375 522.383C802.047 534.027 775.652 545.5 730 545.5C672.725 545.5 641.25 533.816 615.15 522.125C612.258 520.828 609.404 519.512 606.559 518.203L605.463 517.699C582.732 507.211 560.602 497 527 497C507.936 497 492.207 501.984 478 508.551V530.879C493.445 522.828 508.131 517 527 517C555.998 517 574.24 525.379 596.906 535.789C600.156 537.285 603.496 538.816 606.975 540.375C635 552.934 669.275 565.5 730 565.5C779.848 565.5 809.453 552.723 833.625 540.117C836.609 538.559 839.467 537.035 842.234 535.562L842.428 535.457C861.982 525.027 877.027 517 899.5 517C926.018 517 939.945 526.215 956.957 537.469L960.193 539.605C967.613 544.484 975.506 549.434 984.846 553.68ZM478 833.551V855.879C493.445 847.828 508.131 842 527 842C555.998 842 574.24 850.379 596.908 860.793L597.283 860.969C600.412 862.402 603.631 863.879 606.975 865.375C635 877.934 669.275 890.5 730 890.5C779.848 890.5 809.453 877.723 833.625 865.117C836.676 863.527 839.596 861.969 842.424 860.461C861.982 850.027 877.027 842 899.5 842C900.381 842 901.248 842.012 902.102 842.031L891.506 822.297C867.854 824.07 850.24 833.535 832.736 842.938L832.537 843.043C829.822 844.5 827.109 845.957 824.375 847.383C802.047 859.027 775.652 870.5 730 870.5C672.725 870.5 641.25 858.816 615.15 847.125C611.887 845.66 608.668 844.176 605.461 842.695C582.732 832.211 560.604 822 527 822C507.936 822 492.207 826.984 478 833.551ZM478 898.551V920.879C493.445 912.828 508.131 907 527 907C555.998 907 574.24 915.379 596.906 925.789C600.158 927.285 603.498 928.82 606.975 930.375C635 942.934 669.275 955.5 730 955.5C779.848 955.5 809.453 942.723 833.625 930.117C836.676 928.527 839.596 926.969 842.424 925.461C861.908 915.066 876.914 907.062 899.244 907L910.738 887.512C908.592 887.312 906.375 887.168 904.088 887.082C902.59 887.027 901.061 887 899.5 887C871.711 887 852.156 897.504 832.736 907.938C829.955 909.43 827.176 910.922 824.375 912.383C802.047 924.027 775.652 935.5 730 935.5C672.725 935.5 641.25 923.816 615.15 912.125C611.887 910.66 608.668 909.176 605.461 907.695C582.732 897.211 560.604 887 527 887C507.936 887 492.207 891.984 478 898.551ZM478 963.551V985.879C493.445 977.828 508.131 972 527 972C555.998 972 574.24 980.379 596.908 990.793L597.283 990.969C600.412 992.402 603.631 993.879 606.975 995.375C635 1007.93 669.275 1020.5 730 1020.5C779.848 1020.5 809.453 1007.72 833.625 995.117C836.537 993.602 839.33 992.109 842.037 990.672L842.424 990.461C844.365 989.422 846.246 988.418 848.094 987.445C849.904 986.492 851.684 985.562 853.443 984.668L870.25 956.168C856.471 960.188 844.578 966.574 832.736 972.938L832.537 973.043C829.822 974.5 827.109 975.957 824.375 977.383C802.047 989.027 775.652 1000.5 730 1000.5C672.725 1000.5 641.25 988.816 615.15 977.125C611.887 975.66 608.668 974.176 605.461 972.695C582.732 962.211 560.604 952 527 952C507.936 952 492.207 956.984 478 963.551ZM478 1028.55V1050.88C493.445 1042.83 508.131 1037 527 1037C555.998 1037 574.24 1045.38 596.914 1055.79L599.674 1057.06C602.049 1058.15 604.477 1059.26 606.975 1060.38C635 1072.93 669.275 1085.5 730 1085.5C759.512 1085.5 781.928 1081.02 800.322 1074.75L817.285 1045.98C796.369 1056.28 770.92 1065.5 730 1065.5C672.725 1065.5 641.25 1053.82 615.15 1042.12C611.887 1040.66 608.668 1039.18 605.461 1037.7C582.732 1027.21 560.604 1017 527 1017C507.936 1017 492.207 1021.98 478 1028.55ZM478 1093.55V1115.88C493.445 1107.83 508.131 1102 527 1102C555.998 1102 574.24 1110.38 596.914 1120.79L602.02 1123.13C603.643 1123.88 605.293 1124.62 606.975 1125.38C635 1137.93 669.275 1150.5 730 1150.5C739.51 1150.5 748.283 1150.04 756.424 1149.2L769.414 1127.16C763.223 1128.3 756.576 1129.18 749.387 1129.76C743.328 1130.24 736.883 1130.5 730 1130.5C672.725 1130.5 641.25 1118.82 615.15 1107.12C611.887 1105.66 608.668 1104.18 605.461 1102.7C582.732 1092.21 560.604 1082 527 1082C507.936 1082 492.207 1086.98 478 1093.55ZM478 1158.55V1180.88C493.445 1172.83 508.131 1167 527 1167C555.998 1167 574.24 1175.38 596.914 1185.79L597.283 1185.96C600.412 1187.4 603.631 1188.88 606.975 1190.38C635 1202.93 669.275 1215.5 730 1215.5C775.488 1215.5 804.119 1204.86 827.146 1193.42L804.629 1181.75C786.002 1189.49 763.047 1195.5 730 1195.5C672.725 1195.5 641.25 1183.82 615.15 1172.12C613.252 1171.27 611.369 1170.41 609.494 1169.55L605.461 1167.7C582.732 1157.21 560.604 1147 527 1147C507.936 1147 492.207 1151.98 478 1158.55ZM478 1223.55V1245.88C493.445 1237.83 508.131 1232 527 1232C555.998 1232 574.24 1240.38 596.914 1250.79L597.283 1250.96C600.412 1252.4 603.631 1253.88 606.975 1255.38C635 1267.93 669.275 1280.5 730 1280.5C779.848 1280.5 809.453 1267.72 833.625 1255.12C836.68 1253.52 839.605 1251.96 842.438 1250.45C861.982 1240.03 877.027 1232 899.5 1232C900.223 1232 900.938 1232.01 901.643 1232.02L870.766 1216.02C856.766 1220.03 844.727 1226.5 832.736 1232.94C829.955 1234.43 827.176 1235.92 824.375 1237.38C802.047 1249.03 775.652 1260.5 730 1260.5C672.725 1260.5 641.25 1248.82 615.15 1237.12C611.887 1235.66 608.668 1234.18 605.461 1232.7C582.732 1222.21 560.604 1212 527 1212C507.936 1212 492.207 1216.98 478 1223.55ZM478 1288.55V1310.88C493.445 1302.83 508.131 1297 527 1297C555.998 1297 574.24 1305.38 596.906 1315.79C598.988 1316.75 601.1 1317.71 603.26 1318.7L606.975 1320.38C635 1332.93 669.275 1345.5 730 1345.5C779.848 1345.5 809.453 1332.72 833.625 1320.12C836.68 1318.52 839.605 1316.96 842.438 1315.45C861.982 1305.03 877.027 1297 899.5 1297C926.018 1297 939.945 1306.21 956.957 1317.47L960.193 1319.61C970.576 1326.43 981.889 1333.4 996.793 1338.38L983.086 1310.31C978.938 1307.94 975.033 1305.43 971.182 1302.89L970.172 1302.23L969.551 1301.82L969.197 1301.59L967.719 1300.61C950.465 1289.16 932.133 1277 899.5 1277C871.711 1277 852.156 1287.5 832.736 1297.94C829.955 1299.43 827.176 1300.92 824.375 1302.38C802.047 1314.03 775.652 1325.5 730 1325.5C672.725 1325.5 641.25 1313.82 615.15 1302.12C611.887 1300.66 608.668 1299.18 605.461 1297.7C582.732 1287.21 560.604 1277 527 1277C507.936 1277 492.207 1281.98 478 1288.55ZM478 1353.55V1375.88C493.445 1367.83 508.131 1362 527 1362C555.998 1362 574.24 1370.38 596.906 1380.79C600.162 1382.29 603.5 1383.82 606.975 1385.38C635 1397.93 669.275 1410.5 730 1410.5C779.848 1410.5 809.453 1397.72 833.625 1385.12C836.68 1383.52 839.605 1381.96 842.438 1380.45C861.982 1370.03 877.027 1362 899.5 1362C926.018 1362 939.945 1371.21 956.957 1382.47L960.193 1384.61C977.434 1395.94 997.236 1407.66 1031.79 1410.05L1021.41 1388.8C998.707 1385.27 984.605 1376.72 971.182 1367.89L967.719 1365.61C950.465 1354.16 932.133 1342 899.5 1342C871.711 1342 852.156 1352.5 832.736 1362.94C829.955 1364.43 827.176 1365.92 824.375 1367.38C802.047 1379.03 775.652 1390.5 730 1390.5C672.725 1390.5 641.25 1378.82 615.15 1367.12C611.887 1365.66 608.668 1364.18 605.461 1362.7C582.732 1352.21 560.604 1342 527 1342C507.936 1342 492.207 1346.98 478 1353.55ZM478 1418.55V1440.88C493.445 1432.83 508.131 1427 527 1427C555.998 1427 574.24 1435.38 596.906 1445.79C600.162 1447.29 603.5 1448.82 606.975 1450.38C635 1462.93 669.275 1475.5 730 1475.5C779.848 1475.5 809.453 1462.72 833.625 1450.12C836.68 1448.52 839.605 1446.96 842.438 1445.45C861.982 1435.03 877.027 1427 899.5 1427C926.018 1427 939.945 1436.21 956.957 1447.47L958.115 1448.23L959.117 1448.89L959.604 1449.22L960.193 1449.61C979.52 1462.32 1002.07 1475.5 1045 1475.5C1063.6 1475.5 1079.2 1472.41 1092.88 1467.81L1071.81 1452.84C1063.68 1454.52 1054.83 1455.5 1045 1455.5C1007.43 1455.5 988.73 1444.43 971.182 1432.89L969.553 1431.82L967.719 1430.61C950.465 1419.16 932.133 1407 899.5 1407C871.711 1407 852.156 1417.5 832.736 1427.94L832.537 1428.04C829.822 1429.5 827.109 1430.96 824.375 1432.38C802.047 1444.03 775.652 1455.5 730 1455.5C672.725 1455.5 641.25 1443.82 615.15 1432.12C611.887 1430.66 608.668 1429.18 605.461 1427.7C582.732 1417.21 560.604 1407 527 1407C507.936 1407 492.207 1411.98 478 1418.55ZM478 1483.55V1505.88C493.445 1497.83 508.131 1492 527 1492C555.998 1492 574.24 1500.38 596.914 1510.79L597.283 1510.96C600.412 1512.4 603.631 1513.88 606.975 1515.38C635 1527.93 669.275 1540.5 730 1540.5C779.848 1540.5 809.453 1527.72 833.625 1515.12C836.682 1513.52 839.609 1511.96 842.441 1510.45C861.982 1500.03 877.027 1492 899.5 1492C926.018 1492 939.945 1501.21 956.973 1512.48L960.193 1514.61C979.52 1527.32 1002.07 1540.5 1045 1540.5C1083.38 1540.5 1108.98 1527.33 1131.28 1515L1134.48 1513.23L1134.54 1513.2L1138.29 1511.12C1141.28 1509.47 1144.2 1507.87 1147.09 1506.35L1128.92 1493.43L1121.6 1497.5C1100.02 1509.42 1078.12 1520.5 1045 1520.5C1007.43 1520.5 988.73 1509.43 971.182 1497.89L967.719 1495.61C950.465 1484.16 932.133 1472 899.5 1472C871.711 1472 852.156 1482.5 832.736 1492.94L828.098 1495.42C826.859 1496.08 825.619 1496.73 824.375 1497.38C802.047 1509.03 775.652 1520.5 730 1520.5C672.725 1520.5 641.25 1508.82 615.15 1497.12C611.887 1495.66 608.668 1494.18 605.461 1492.7C582.732 1482.21 560.604 1472 527 1472C507.936 1472 492.207 1476.98 478 1483.55ZM478 1548.55V1570.88C493.445 1562.83 508.131 1557 527 1557C555.998 1557 574.24 1565.38 596.906 1575.79C600.156 1577.29 603.496 1578.82 606.975 1580.38C635 1592.93 669.275 1605.5 730 1605.5C779.848 1605.5 809.453 1592.72 833.625 1580.12C836.617 1578.56 839.482 1577.03 842.258 1575.55L842.422 1575.46C861.982 1565.03 877.027 1557 899.5 1557C926.018 1557 939.945 1566.21 956.973 1577.48L957.021 1577.51L960.193 1579.61C979.52 1592.32 1002.07 1605.5 1045 1605.5C1083.38 1605.5 1108.98 1592.33 1131.28 1580L1134.54 1578.2C1144.3 1572.78 1153.28 1567.8 1162.55 1564.03L1157.57 1544.5C1146.06 1548.89 1135.69 1554.66 1125.62 1560.26L1123.79 1561.29L1123.3 1561.55L1121.6 1562.5C1100.02 1574.42 1078.12 1585.5 1045 1585.5C1007.43 1585.5 988.73 1574.43 971.182 1562.89L969.34 1561.68L967.719 1560.61C950.465 1549.16 932.133 1537 899.5 1537C871.711 1537 852.156 1547.5 832.736 1557.94C829.955 1559.43 827.176 1560.92 824.375 1562.38C802.047 1574.03 775.652 1585.5 730 1585.5C672.725 1585.5 641.25 1573.82 615.15 1562.12C611.887 1560.66 608.668 1559.18 605.461 1557.7C582.732 1547.21 560.604 1537 527 1537C507.936 1537 492.207 1541.98 478 1548.55ZM478 1613.55V1635.88C493.445 1627.83 508.131 1622 527 1622C555.998 1622 574.24 1630.38 596.906 1640.79C600.156 1642.29 603.496 1643.82 606.975 1645.38C635 1657.93 669.275 1670.5 730 1670.5C779.848 1670.5 809.453 1657.72 833.625 1645.12C836.676 1643.53 839.596 1641.97 842.422 1640.46C861.982 1630.03 877.027 1622 899.5 1622C926.018 1622 939.945 1631.21 956.957 1642.47L960.193 1644.61C979.52 1657.32 1002.07 1670.5 1045 1670.5C1083.38 1670.5 1108.98 1657.33 1131.28 1645L1134.54 1643.2C1149.54 1634.88 1162.7 1627.58 1177.89 1624.12L1172.95 1604.76C1154.95 1608.95 1139.97 1617.28 1125.62 1625.26L1121.6 1627.5C1100.02 1639.42 1078.12 1650.5 1045 1650.5C1007.43 1650.5 988.73 1639.43 971.182 1627.89L967.719 1625.61C950.465 1614.16 932.133 1602 899.5 1602C871.711 1602 852.156 1612.5 832.736 1622.94L832.537 1623.04C829.822 1624.5 827.109 1625.96 824.375 1627.38C802.047 1639.03 775.652 1650.5 730 1650.5C672.725 1650.5 641.25 1638.82 615.15 1627.12C613.158 1626.23 611.184 1625.33 609.219 1624.43L605.461 1622.7C582.732 1612.21 560.604 1602 527 1602C507.936 1602 492.207 1606.98 478 1613.55Z" fill="#d6cfb2"/>
<path fill-rule="evenodd" clip-rule="evenodd" d="M870.512 761.094L864.5 772L870.011 782.264C860.948 785.578 852.262 790.211 842.441 795.45L842.429 795.456L842.423 795.459C839.596 796.967 836.675 798.525 833.624 800.117C809.453 812.722 779.848 825.5 730 825.5C669.275 825.5 634.999 812.932 606.974 800.376C603.498 798.819 600.157 797.284 596.908 795.792L596.907 795.791L596.905 795.79C574.24 785.38 555.997 777 527 777C508.13 777 493.445 782.827 478 790.877V768.552C492.206 761.985 507.935 757 527 757C560.603 757 582.732 767.21 605.46 777.696C608.667 779.176 611.886 780.661 615.151 782.124C641.251 793.818 672.725 805.5 730 805.5C775.652 805.5 802.047 794.028 824.376 782.383C827.176 780.923 829.955 779.43 832.737 777.936C844.654 771.534 856.622 765.106 870.512 761.094ZM908.424 692.318L897.563 712.02C876.151 712.468 861.416 720.328 842.441 730.45L842.426 730.458L842.422 730.46L842.411 730.466L842.408 730.467L842.401 730.471L842.387 730.479L842.367 730.489L842.361 730.492C839.553 731.99 836.653 733.537 833.624 735.117C809.453 747.722 779.848 760.5 730 760.5C669.275 760.5 634.999 747.932 606.974 735.376C603.498 733.819 600.157 732.284 596.908 730.792L596.907 730.791L596.905 730.79C574.24 720.38 555.997 712 527 712C508.13 712 493.445 717.827 478 725.877V703.552C492.206 696.985 507.935 692 527 692C560.603 692 582.732 702.21 605.46 712.696L605.46 712.696L605.464 712.698L605.468 712.7L605.471 712.701L605.475 712.703L605.476 712.703C608.678 714.181 611.892 715.664 615.151 717.124C641.251 728.818 672.725 740.5 730 740.5C775.652 740.5 802.047 729.028 824.376 717.383C827.176 715.923 829.955 714.43 832.737 712.936C852.156 702.504 871.711 692 899.5 692C902.6 692 905.571 692.11 908.424 692.318ZM940.118 634.82L930.4 652.45C921.817 649.072 912.074 647 899.5 647C877.027 647 861.982 655.026 842.441 665.45L842.426 665.458L842.422 665.46L842.411 665.466L842.408 665.467L842.401 665.471L842.387 665.479L842.367 665.489L842.361 665.492C839.553 666.99 836.653 668.537 833.624 670.117C809.453 682.722 779.848 695.5 730 695.5C669.275 695.5 634.999 682.932 606.974 670.376C603.498 668.819 600.157 667.284 596.908 665.792L596.907 665.791L596.905 665.79C574.24 655.38 555.997 647 527 647C508.13 647 493.445 652.827 478 660.877V638.552C492.206 631.985 507.935 627 527 627C560.603 627 582.732 637.21 605.46 647.696L605.46 647.696L605.464 647.698L605.468 647.7L605.471 647.701L605.475 647.703L605.476 647.703C608.678 649.181 611.892 650.664 615.151 652.124C641.251 663.818 672.725 675.5 730 675.5C775.652 675.5 802.047 664.028 824.376 652.383C827.176 650.923 829.955 649.43 832.737 647.936C852.156 637.504 871.711 627 899.5 627C916.191 627 929.141 630.181 940.118 634.82ZM967.374 585.376L957.686 602.951C957.443 602.79 957.2 602.629 956.958 602.469C939.945 591.214 926.017 582 899.5 582C877.027 582 861.982 590.026 842.441 600.45L842.427 600.457C839.599 601.966 836.677 603.525 833.624 605.117C809.453 617.722 779.848 630.5 730 630.5C669.275 630.5 634.999 617.932 606.974 605.376C603.501 603.82 600.164 602.287 596.918 600.796L596.91 600.793L596.907 600.791L596.905 600.79C574.24 590.38 555.997 582 527 582C508.13 582 493.445 587.827 478 595.877V573.552C492.206 566.985 507.935 562 527 562C560.603 562 582.732 572.21 605.46 582.696L605.46 582.696L605.462 582.697L605.476 582.704C608.678 584.181 611.892 585.664 615.151 587.124C641.251 598.818 672.725 610.5 730 610.5C775.652 610.5 802.047 599.028 824.376 587.383C827.176 585.923 829.955 584.43 832.737 582.936C852.156 572.504 871.711 562 899.5 562C931.916 562 950.22 573.998 967.374 585.376ZM994.534 536.104L984.846 553.68C975.506 549.434 967.612 544.484 960.193 539.605C959.1 538.886 958.023 538.174 956.958 537.469C939.945 526.214 926.017 517 899.5 517C877.027 517 861.982 525.026 842.441 535.45L842.427 535.457C839.599 536.966 836.677 538.525 833.624 540.117C809.453 552.722 779.848 565.5 730 565.5C669.275 565.5 634.999 552.932 606.974 540.376C603.497 538.818 600.156 537.284 596.906 535.791L596.905 535.79C574.24 525.38 555.997 517 527 517C508.13 517 493.445 522.827 478 530.877V508.552C492.206 501.985 507.935 497 527 497C560.602 497 582.732 507.21 605.46 517.696L605.46 517.696L605.463 517.697L605.464 517.698C608.67 519.177 611.888 520.662 615.151 522.124C641.251 533.818 672.725 545.5 730 545.5C775.652 545.5 802.047 534.028 824.376 522.383C827.176 520.923 829.955 519.43 832.737 517.936C852.156 507.504 871.711 497 899.5 497C932.133 497 950.465 509.16 967.719 520.604C968.877 521.372 970.03 522.137 971.182 522.895C978.367 527.62 985.746 532.266 994.534 536.104ZM478 855.877V833.552C492.206 826.985 507.935 822 527 822C560.603 822 582.732 832.21 605.46 842.696C608.667 844.176 611.886 845.661 615.151 847.124C641.251 858.818 672.725 870.5 730 870.5C775.652 870.5 802.047 859.028 824.376 847.383C827.176 845.923 829.955 844.43 832.737 842.936C850.24 833.534 867.853 824.072 891.507 822.297L902.102 842.03C901.248 842.01 900.381 842 899.5 842C877.027 842 861.982 850.026 842.441 860.45L842.429 860.456L842.423 860.459C839.596 861.967 836.675 863.525 833.624 865.117C809.453 877.722 779.848 890.5 730 890.5C669.275 890.5 634.999 877.932 606.974 865.376C603.498 863.819 600.157 862.284 596.908 860.792L596.907 860.791L596.905 860.79C574.24 850.38 555.997 842 527 842C508.13 842 493.445 847.827 478 855.877ZM478 920.877V898.552C492.206 891.985 507.935 887 527 887C560.603 887 582.732 897.21 605.46 907.696C608.667 909.176 611.886 910.661 615.151 912.124C641.251 923.818 672.725 935.5 730 935.5C775.652 935.5 802.047 924.028 824.376 912.383C827.176 910.923 829.955 909.43 832.737 907.936C852.156 897.504 871.711 887 899.5 887C903.447 887 907.185 887.178 910.738 887.511L899.245 907C876.913 907.061 861.908 915.065 842.441 925.45L842.429 925.456L842.423 925.459C839.596 926.967 836.675 928.525 833.624 930.117C809.453 942.722 779.848 955.5 730 955.5C669.275 955.5 634.999 942.932 606.974 930.376C603.498 928.819 600.157 927.284 596.908 925.792L596.907 925.791L596.905 925.79C574.24 915.38 555.997 907 527 907C508.13 907 493.445 912.827 478 920.877ZM478 985.877V963.552C492.206 956.985 507.935 952 527 952C560.603 952 582.732 962.21 605.46 972.696C608.667 974.176 611.886 975.661 615.151 977.124C641.251 988.818 672.725 1000.5 730 1000.5C775.652 1000.5 802.047 989.028 824.376 977.383C827.176 975.923 829.955 974.43 832.737 972.936C844.579 966.575 856.471 960.186 870.25 956.17L853.444 984.669C849.888 986.477 846.25 988.418 842.441 990.45L842.429 990.456L842.423 990.459C839.596 991.967 836.675 993.525 833.624 995.117C809.453 1007.72 779.848 1020.5 730 1020.5C669.275 1020.5 634.999 1007.93 606.974 995.376C603.498 993.819 600.157 992.284 596.908 990.792L596.907 990.791L596.905 990.79C574.24 980.38 555.997 972 527 972C508.13 972 493.445 977.827 478 985.877ZM478 1050.88V1028.55C492.206 1021.99 507.935 1017 527 1017C560.603 1017 582.732 1027.21 605.46 1037.7C608.667 1039.18 611.886 1040.66 615.151 1042.12C641.251 1053.82 672.725 1065.5 730 1065.5C770.921 1065.5 796.369 1056.28 817.286 1045.99L800.323 1074.75C781.928 1081.02 759.512 1085.5 730 1085.5C669.275 1085.5 634.999 1072.93 606.974 1060.38C603.5 1058.82 600.162 1057.29 596.915 1055.79L596.905 1055.79C574.24 1045.38 555.997 1037 527 1037C508.13 1037 493.445 1042.83 478 1050.88ZM478 1115.88V1093.55C492.206 1086.99 507.935 1082 527 1082C560.603 1082 582.732 1092.21 605.46 1102.7C608.667 1104.18 611.886 1105.66 615.151 1107.12C641.251 1118.82 672.725 1130.5 730 1130.5C745.049 1130.5 758.006 1129.25 769.414 1127.16L756.423 1149.19C748.284 1150.03 739.51 1150.5 730 1150.5C669.275 1150.5 634.999 1137.93 606.974 1125.38C603.5 1123.82 600.162 1122.29 596.915 1120.79L596.905 1120.79C574.24 1110.38 555.997 1102 527 1102C508.13 1102 493.445 1107.83 478 1115.88ZM478 1180.88V1158.55C492.206 1151.99 507.935 1147 527 1147C560.603 1147 582.732 1157.21 605.46 1167.7C608.667 1169.18 611.886 1170.66 615.151 1172.12C641.251 1183.82 672.725 1195.5 730 1195.5C763.046 1195.5 786.002 1189.49 804.629 1181.75L827.147 1193.42C804.119 1204.86 775.488 1215.5 730 1215.5C669.275 1215.5 634.999 1202.93 606.974 1190.38C603.5 1188.82 600.162 1187.29 596.915 1185.79L596.905 1185.79C574.24 1175.38 555.997 1167 527 1167C508.13 1167 493.445 1172.83 478 1180.88ZM478 1245.88V1223.55C492.206 1216.99 507.935 1212 527 1212C560.603 1212 582.732 1222.21 605.46 1232.7C608.667 1234.18 611.886 1235.66 615.151 1237.12C641.251 1248.82 672.725 1260.5 730 1260.5C775.652 1260.5 802.047 1249.03 824.376 1237.38C827.176 1235.92 829.955 1234.43 832.737 1232.94C844.726 1226.5 856.767 1220.03 870.765 1216.02L901.642 1232.02C900.937 1232.01 900.223 1232 899.5 1232C877.027 1232 861.982 1240.03 842.441 1250.45L842.437 1250.45C839.605 1251.96 836.68 1253.52 833.624 1255.12C809.453 1267.72 779.848 1280.5 730 1280.5C669.275 1280.5 634.999 1267.93 606.974 1255.38C603.5 1253.82 600.162 1252.29 596.915 1250.79L596.905 1250.79C574.24 1240.38 555.997 1232 527 1232C508.13 1232 493.445 1237.83 478 1245.88ZM478 1310.88V1288.55C492.206 1281.99 507.935 1277 527 1277C560.603 1277 582.732 1287.21 605.46 1297.7C608.667 1299.18 611.886 1300.66 615.151 1302.12C641.251 1313.82 672.725 1325.5 730 1325.5C775.652 1325.5 802.047 1314.03 824.376 1302.38C827.176 1300.92 829.955 1299.43 832.737 1297.94C852.156 1287.5 871.711 1277 899.5 1277C932.133 1277 950.465 1289.16 967.719 1300.6C968.213 1300.93 968.706 1301.26 969.198 1301.58L969.55 1301.82C969.758 1301.96 969.965 1302.09 970.173 1302.23C970.509 1302.45 970.846 1302.67 971.182 1302.89C975.032 1305.43 978.938 1307.94 983.087 1310.31L996.793 1338.38C981.889 1333.4 970.576 1326.43 960.193 1319.61C959.1 1318.89 958.023 1318.17 956.958 1317.47C939.945 1306.21 926.017 1297 899.5 1297C877.027 1297 861.982 1305.03 842.441 1315.45L842.437 1315.45C839.605 1316.96 836.68 1318.52 833.624 1320.12C809.453 1332.72 779.848 1345.5 730 1345.5C669.275 1345.5 634.999 1332.93 606.974 1320.38C603.5 1318.82 600.162 1317.29 596.915 1315.79L596.905 1315.79C574.24 1305.38 555.997 1297 527 1297C508.13 1297 493.445 1302.83 478 1310.88ZM478 1375.88V1353.55C492.206 1346.99 507.935 1342 527 1342C560.603 1342 582.732 1352.21 605.46 1362.7C608.667 1364.18 611.886 1365.66 615.151 1367.12C641.251 1378.82 672.725 1390.5 730 1390.5C775.652 1390.5 802.047 1379.03 824.376 1367.38C827.176 1365.92 829.955 1364.43 832.737 1362.94C852.156 1352.5 871.711 1342 899.5 1342C932.133 1342 950.465 1354.16 967.719 1365.6C968.877 1366.37 970.03 1367.14 971.182 1367.89C984.606 1376.72 998.707 1385.27 1021.41 1388.8L1031.79 1410.06C997.236 1407.66 977.433 1395.94 960.193 1384.61C959.1 1383.89 958.023 1383.17 956.958 1382.47C939.945 1371.21 926.017 1362 899.5 1362C877.027 1362 861.982 1370.03 842.441 1380.45L842.437 1380.45C839.605 1381.96 836.68 1383.52 833.624 1385.12C809.453 1397.72 779.848 1410.5 730 1410.5C669.275 1410.5 634.999 1397.93 606.974 1385.38C603.5 1383.82 600.162 1382.29 596.915 1380.79L596.905 1380.79C574.24 1370.38 555.997 1362 527 1362C508.13 1362 493.445 1367.83 478 1375.88ZM478 1440.88V1418.55C492.206 1411.99 507.935 1407 527 1407C560.603 1407 582.732 1417.21 605.46 1427.7C608.667 1429.18 611.886 1430.66 615.151 1432.12C641.251 1443.82 672.725 1455.5 730 1455.5C775.652 1455.5 802.047 1444.03 824.376 1432.38C827.176 1430.92 829.955 1429.43 832.737 1427.94C852.156 1417.5 871.711 1407 899.5 1407C932.133 1407 950.465 1419.16 967.719 1430.6C968.332 1431.01 968.943 1431.42 969.553 1431.82C970.096 1432.18 970.639 1432.54 971.182 1432.89C988.73 1444.43 1007.43 1455.5 1045 1455.5C1054.83 1455.5 1063.68 1454.52 1071.81 1452.84L1092.88 1467.81C1079.2 1472.41 1063.6 1475.5 1045 1475.5C1002.07 1475.5 979.52 1462.32 960.193 1449.61L959.603 1449.22L959.117 1448.9C958.781 1448.68 958.448 1448.45 958.115 1448.23L956.958 1447.47C939.945 1436.21 926.017 1427 899.5 1427C877.027 1427 861.982 1435.03 842.441 1445.45L842.437 1445.45C839.605 1446.96 836.68 1448.52 833.624 1450.12C809.453 1462.72 779.848 1475.5 730 1475.5C669.275 1475.5 634.999 1462.93 606.974 1450.38C603.5 1448.82 600.162 1447.29 596.915 1445.79L596.905 1445.79C574.24 1435.38 555.997 1427 527 1427C508.13 1427 493.445 1432.83 478 1440.88ZM478 1505.88V1483.55C492.206 1476.99 507.935 1472 527 1472C560.603 1472 582.732 1482.21 605.46 1492.7C608.667 1494.18 611.886 1495.66 615.151 1497.12C641.251 1508.82 672.725 1520.5 730 1520.5C775.652 1520.5 802.047 1509.03 824.376 1497.38C827.176 1495.92 829.955 1494.43 832.737 1492.94C852.156 1482.5 871.711 1472 899.5 1472C932.133 1472 950.465 1484.16 967.719 1495.6C968.877 1496.37 970.03 1497.14 971.182 1497.89C988.73 1509.43 1007.43 1520.5 1045 1520.5C1078.12 1520.5 1100.02 1509.42 1121.6 1497.5C1122.94 1496.76 1124.28 1496.01 1125.63 1495.26C1126.72 1494.65 1127.82 1494.04 1128.92 1493.43L1147.09 1506.35C1143 1508.51 1138.84 1510.81 1134.54 1513.19L1134.48 1513.23C1133.42 1513.81 1132.35 1514.41 1131.27 1515C1108.98 1527.33 1083.38 1540.5 1045 1540.5C1002.07 1540.5 979.52 1527.32 960.193 1514.61C959.105 1513.89 958.033 1513.18 956.974 1512.48L956.958 1512.47C939.945 1501.21 926.017 1492 899.5 1492C877.027 1492 861.982 1500.03 842.441 1510.45C839.608 1511.96 836.682 1513.52 833.624 1515.12C809.453 1527.72 779.848 1540.5 730 1540.5C669.275 1540.5 634.999 1527.93 606.974 1515.38C603.5 1513.82 600.162 1512.29 596.915 1510.79L596.905 1510.79C574.24 1500.38 555.997 1492 527 1492C508.13 1492 493.445 1497.83 478 1505.88ZM478 1570.88V1548.55C492.206 1541.98 507.935 1537 527 1537C560.603 1537 582.732 1547.21 605.46 1557.7C608.667 1559.18 611.886 1560.66 615.151 1562.12C641.251 1573.82 672.725 1585.5 730 1585.5C775.652 1585.5 802.047 1574.03 824.376 1562.38C827.176 1560.92 829.955 1559.43 832.737 1557.94C852.156 1547.5 871.711 1537 899.5 1537C932.133 1537 950.465 1549.16 967.719 1560.6C968.26 1560.96 968.8 1561.32 969.34 1561.68C969.955 1562.09 970.568 1562.49 971.182 1562.89C988.73 1574.43 1007.43 1585.5 1045 1585.5C1078.12 1585.5 1100.02 1574.42 1121.6 1562.5C1121.92 1562.32 1122.25 1562.14 1122.58 1561.96C1122.82 1561.82 1123.06 1561.69 1123.3 1561.56L1123.79 1561.28C1124.4 1560.94 1125.01 1560.6 1125.63 1560.26C1135.69 1554.67 1146.06 1548.89 1157.57 1544.5L1162.55 1564.03C1153.28 1567.8 1144.3 1572.78 1134.54 1578.19L1133.37 1578.84C1132.67 1579.23 1131.98 1579.61 1131.27 1580C1108.98 1592.33 1083.38 1605.5 1045 1605.5C1002.07 1605.5 979.52 1592.32 960.193 1579.61C959.122 1578.9 958.066 1578.2 957.022 1577.51L956.973 1577.48L956.958 1577.47C939.945 1566.21 926.017 1557 899.5 1557C877.027 1557 861.982 1565.03 842.441 1575.45L842.422 1575.46C839.595 1576.97 836.675 1578.53 833.624 1580.12C809.453 1592.72 779.848 1605.5 730 1605.5C669.275 1605.5 634.999 1592.93 606.974 1580.38C603.497 1578.82 600.156 1577.28 596.905 1575.79C574.24 1565.38 555.997 1557 527 1557C508.13 1557 493.445 1562.83 478 1570.88ZM478 1635.88V1613.55C492.206 1606.98 507.935 1602 527 1602C560.603 1602 582.732 1612.21 605.46 1622.7C608.667 1624.18 611.886 1625.66 615.151 1627.12C641.251 1638.82 672.725 1650.5 730 1650.5C775.652 1650.5 802.047 1639.03 824.376 1627.38C827.176 1625.92 829.955 1624.43 832.737 1622.94C852.156 1612.5 871.711 1602 899.5 1602C932.133 1602 950.465 1614.16 967.719 1625.6C968.877 1626.37 970.03 1627.14 971.182 1627.89C988.73 1639.43 1007.43 1650.5 1045 1650.5C1078.12 1650.5 1100.02 1639.42 1121.6 1627.5C1122.94 1626.76 1124.28 1626.01 1125.63 1625.26C1139.97 1617.28 1154.95 1608.95 1172.95 1604.76L1177.89 1624.13C1162.7 1627.58 1149.54 1634.88 1134.54 1643.19L1133.5 1643.77C1132.76 1644.18 1132.02 1644.59 1131.27 1645C1108.98 1657.33 1083.38 1670.5 1045 1670.5C1002.07 1670.5 979.52 1657.32 960.193 1644.61C959.1 1643.89 958.023 1643.17 956.958 1642.47C939.945 1631.21 926.017 1622 899.5 1622C877.027 1622 861.982 1630.03 842.441 1640.45L842.422 1640.46C839.595 1641.97 836.675 1643.53 833.624 1645.12C809.453 1657.72 779.848 1670.5 730 1670.5C669.275 1670.5 634.999 1657.93 606.974 1645.38C603.497 1643.82 600.156 1642.28 596.905 1640.79C574.24 1630.38 555.997 1622 527 1622C508.13 1622 493.445 1627.83 478 1635.88Z" fill="#d6cfb2" fill-opacity="0.8"/>
</svg>