<svg width="1315" height="1315" viewBox="0 0 2314 2314" fill="none" xmlns="http://www.w3.org/2000/svg"><rect x="0" y="0" width="3000" height="3000" fill="white" /><path d="M844.924 1437.99C848.218 1442.6 852.171 1447.18 856.668 1451.69C841.292 1458.54 824.157 1463.5 802 1463.5C770.105 1463.5 751.807 1455.52 736.269 1446.05C740.127 1444.55 743.936 1443.04 747.69 1441.56L747.762 1441.53L747.785 1441.52C790.121 1424.76 825.455 1410.77 844.924 1437.99Z" fill="#d6cfb2"/><path d="M1319.12 868.872L1297.92 798.867L1323.1 766.094L1351.08 798.867L1327.49 868.96C1385.34 867.424 1432.12 821.418 1434.87 763.875L1364.87 785.079L1332.09 759.899L1364.87 731.922L1434.96 755.511C1433.42 697.656 1387.42 650.884 1329.88 648.128L1351.08 718.133L1325.9 750.906L1297.92 718.133L1321.51 648.04C1263.66 649.576 1216.88 695.582 1214.13 753.125L1284.13 731.921L1316.91 757.101L1284.13 785.078L1214.04 761.489C1215.58 819.344 1261.58 866.115 1319.12 868.872Z" fill="#d6cfb2"/><path fill-rule="evenodd" clip-rule="evenodd" d="M2314 0H0V2314H2314V0ZM590.624 613.117C566.453 625.722 536.848 638.5 487 638.5V618.5C532.652 618.5 559.047 607.028 581.376 595.383C584.176 593.923 586.955 592.43 589.737 590.936C609.156 580.504 628.711 570 656.5 570C689.133 570 707.465 582.16 724.719 593.604L724.721 593.605L724.724 593.608L724.731 593.612L724.744 593.62C725.893 594.383 727.038 595.142 728.182 595.895C745.73 607.435 764.434 618.5 802 618.5C835.124 618.5 857.023 607.423 878.6 595.498C879.938 594.759 881.279 594.012 882.626 593.263C902.905 581.982 924.443 570 954 570C987.603 570 1009.73 580.21 1032.46 590.696L1032.46 590.697L1032.46 590.698C1035.67 592.177 1038.89 593.662 1042.15 595.124C1068.25 606.818 1099.72 618.5 1157 618.5C1202.65 618.5 1229.05 607.028 1251.38 595.383C1254.18 593.923 1256.96 592.43 1259.74 590.936C1279.16 580.504 1298.71 570 1326.5 570C1359.13 570 1377.46 582.16 1394.72 593.604C1395.88 594.372 1397.03 595.137 1398.18 595.895C1415.73 607.435 1434.43 618.5 1472 618.5C1505.12 618.5 1527.02 607.423 1548.6 595.498C1549.94 594.759 1551.28 594.012 1552.63 593.263C1572.91 581.982 1594.44 570 1624 570C1657.6 570 1679.73 580.21 1702.46 590.696L1702.48 590.706C1705.68 592.183 1708.89 593.664 1712.15 595.124C1738.25 606.818 1769.72 618.5 1827 618.5V638.5C1766.28 638.5 1732 625.932 1703.97 613.376C1700.5 611.818 1697.16 610.283 1693.91 608.79C1671.24 598.38 1653 590 1624 590C1599.77 590 1582.44 599.608 1561.54 611.195L1561.48 611.226C1560.42 611.813 1559.35 612.406 1558.27 613.002C1535.98 625.327 1510.38 638.5 1472 638.5C1429.07 638.5 1406.52 625.315 1387.19 612.605C1386.1 611.886 1385.02 611.174 1383.96 610.469C1366.94 599.214 1353.02 590 1326.5 590C1304.03 590 1288.98 598.026 1269.44 608.45L1269.43 608.457C1266.6 609.966 1263.68 611.525 1260.62 613.117C1236.45 625.722 1206.85 638.5 1157 638.5C1096.28 638.5 1062 625.932 1033.97 613.376C1030.5 611.82 1027.16 610.286 1023.91 608.795L1023.91 608.79C1001.24 598.38 982.997 590 954 590C929.77 590 912.439 599.608 891.538 611.195C890.461 611.792 889.373 612.395 888.275 613.002C865.977 625.327 840.376 638.5 802 638.5C759.066 638.5 736.52 625.315 717.193 612.605C716.1 611.886 715.023 611.174 713.958 610.469C696.945 599.214 683.017 590 656.5 590C634.027 590 618.982 598.026 599.441 608.45L599.437 608.452C596.605 609.962 593.68 611.523 590.624 613.117ZM487 703.5C536.848 703.5 566.453 690.722 590.624 678.117C593.68 676.523 596.605 674.962 599.437 673.452L599.441 673.45C618.982 663.026 634.027 655 656.5 655C683.017 655 696.945 664.214 713.958 675.469L713.973 675.48C715.033 676.181 716.105 676.89 717.193 677.605C736.52 690.315 759.066 703.5 802 703.5C840.376 703.5 865.977 690.327 888.275 678.002C889.354 677.406 890.423 676.813 891.483 676.226L891.538 676.195C912.439 664.608 929.77 655 954 655C982.997 655 1001.24 663.38 1023.91 673.79L1023.91 673.791L1023.91 673.793L1023.92 673.796C1027.16 675.287 1030.5 676.82 1033.97 678.376C1062 690.932 1096.28 703.5 1157 703.5C1170.96 703.5 1183.34 702.498 1194.45 700.777C1198.09 692.673 1202.48 684.973 1207.52 677.762C1193.56 681.263 1177.16 683.5 1157 683.5C1099.72 683.5 1068.25 671.818 1042.15 660.124C1038.89 658.664 1035.68 657.181 1032.48 655.704L1032.46 655.697L1032.46 655.696C1009.73 645.21 987.603 635 954 635C924.443 635 902.905 646.982 882.626 658.263L882.622 658.265C881.277 659.014 879.937 659.759 878.6 660.498C857.023 672.423 835.124 683.5 802 683.5C764.434 683.5 745.73 672.435 728.182 660.895C727.03 660.137 725.877 659.372 724.719 658.604C707.465 647.16 689.133 635 656.5 635C628.711 635 609.156 645.504 589.737 655.936L589.735 655.937L589.721 655.944C586.945 657.436 584.171 658.926 581.376 660.383C559.047 672.028 532.652 683.5 487 683.5V703.5ZM1442.5 680.736C1447.08 687.655 1451.07 694.999 1454.4 702.695C1459.87 703.217 1465.71 703.5 1472 703.5C1510.38 703.5 1535.98 690.327 1558.27 678.002C1559.37 677.395 1560.46 676.792 1561.54 676.195C1582.44 664.608 1599.77 655 1624 655C1653 655 1671.24 663.38 1693.91 673.79L1693.91 673.791L1693.91 673.793C1697.16 675.285 1700.5 676.819 1703.97 678.376C1732 690.932 1766.28 703.5 1827 703.5V683.5C1769.72 683.5 1738.25 671.818 1712.15 660.124C1708.89 658.664 1705.68 657.182 1702.48 655.706L1702.46 655.696C1679.73 645.21 1657.6 635 1624 635C1594.44 635 1572.91 646.982 1552.63 658.263C1551.28 659.012 1549.94 659.759 1548.6 660.498C1527.02 672.423 1505.12 683.5 1472 683.5C1460.59 683.5 1450.93 682.48 1442.5 680.736ZM1182.48 747.183C1174.7 748.03 1166.24 748.5 1157 748.5C1151.6 748.5 1146.42 748.396 1141.46 748.198C1147.28 754.681 1152.91 761.541 1158.29 768.497C1166.85 768.459 1174.81 768.042 1182.24 767.314C1182.08 764.563 1182 761.791 1182 759C1182 755.021 1182.16 751.08 1182.48 747.183ZM1465.69 768.402C1465.9 765.294 1466 762.159 1466 759C1466 755.431 1465.87 751.892 1465.61 748.389C1467.68 748.462 1469.81 748.5 1472 748.5C1505.12 748.5 1527.02 737.423 1548.6 725.498C1549.94 724.759 1551.28 724.012 1552.63 723.263C1572.91 711.982 1594.44 700 1624 700C1657.6 700 1679.73 710.21 1702.46 720.696L1702.48 720.707C1705.68 722.183 1708.89 723.665 1712.15 725.124C1738.25 736.818 1769.72 748.5 1827 748.5V768.5C1766.28 768.5 1732 755.932 1703.97 743.376C1700.51 741.824 1697.18 740.295 1693.94 738.807L1693.94 738.806L1693.94 738.805L1693.91 738.794L1693.91 738.792L1693.91 738.79C1671.24 728.38 1653 720 1624 720C1599.77 720 1582.44 729.608 1561.54 741.195L1559.73 742.195C1559.25 742.463 1558.76 742.732 1558.27 743.002C1535.98 755.327 1510.38 768.5 1472 768.5C1469.85 768.5 1467.75 768.467 1465.69 768.402ZM1191.8 810.949C1190.73 811.117 1189.65 811.277 1188.56 811.43C1190.16 813.854 1191.7 816.197 1193.18 818.443L1193.19 818.451L1193.24 818.524C1194.88 821.013 1196.44 823.381 1197.91 825.605C1198.79 826.935 1199.53 828.342 1200.12 829.819C1200.35 829.776 1200.58 829.732 1200.82 829.689C1197.38 823.703 1194.36 817.443 1191.8 810.949ZM1446.02 831.669C1449.63 825.625 1452.8 819.29 1455.49 812.709C1460.57 813.222 1466.05 813.5 1472 813.5C1505.12 813.5 1527.02 802.423 1548.6 790.498C1549.94 789.759 1551.28 789.012 1552.63 788.263C1572.91 776.982 1594.44 765 1624 765C1657.6 765 1679.73 775.21 1702.46 785.696L1702.48 785.707C1705.68 787.183 1708.89 788.665 1712.15 790.124C1738.25 801.818 1769.72 813.5 1827 813.5V833.5C1766.28 833.5 1732 820.932 1703.97 808.376C1700.51 806.824 1697.18 805.295 1693.94 803.807L1693.94 803.806L1693.94 803.805L1693.91 803.794L1693.91 803.792L1693.91 803.79C1671.24 793.38 1653 785 1624 785C1599.77 785 1582.44 794.608 1561.54 806.195L1560.02 807.039C1559.44 807.358 1558.86 807.68 1558.27 808.002C1535.98 820.327 1510.38 833.5 1472 833.5C1462.38 833.5 1453.79 832.838 1446.02 831.669ZM1229.99 865.425C1218.5 870.069 1205.34 874.028 1189.22 876.336C1184.84 883.435 1179.45 890.734 1173.24 898.023C1206.14 896.04 1229.31 888.129 1248.37 879.208C1241.87 875.107 1235.72 870.494 1229.99 865.425ZM1398.67 879.805C1404.96 875.912 1410.91 871.543 1416.49 866.747C1429.02 872.994 1444.23 877.722 1466.33 878.413C1452.78 883.241 1440.44 888.111 1429.19 893.051C1417.13 889.622 1407.36 884.892 1398.67 879.805ZM1298.71 898.755C1306.92 900.23 1315.37 901 1324 901C1333.9 901 1343.55 899.988 1352.88 898.062C1367.11 901.606 1378.06 907.79 1388.11 914.267C1381.54 918.326 1375.54 922.453 1370.06 926.661C1358.17 919.78 1345.6 915 1326.5 915C1304.03 915 1288.98 923.026 1269.44 933.45L1269.42 933.459C1266.6 934.967 1263.68 936.525 1260.62 938.117C1236.45 950.722 1206.85 963.5 1157 963.5C1134.09 963.5 1114.94 961.711 1098.47 958.808C1107.5 953.781 1116.31 948.156 1124.74 942.118C1134.52 943.005 1145.21 943.5 1157 943.5C1202.65 943.5 1229.05 932.028 1251.38 920.383C1254.18 918.923 1256.96 917.43 1259.74 915.936L1259.74 915.935C1272 909.35 1284.31 902.737 1298.71 898.755ZM487 768.5C536.848 768.5 566.453 755.722 590.624 743.117C593.673 741.527 596.592 739.97 599.417 738.463L599.424 738.459L599.428 738.457L599.439 738.451L599.441 738.45C618.982 728.026 634.027 720 656.5 720C683.017 720 696.945 729.214 713.958 740.469C714.475 740.811 714.995 741.155 715.518 741.501C716.073 741.867 716.631 742.235 717.193 742.605C736.52 755.315 759.066 768.5 802 768.5C840.376 768.5 865.977 755.327 888.275 743.002C889.354 742.406 890.423 741.813 891.483 741.226L891.538 741.195C912.439 729.608 929.77 720 954 720C957.453 720 960.754 720.119 963.928 720.346C950.135 724.045 940.08 727.243 934.407 732.272C902.6 747.789 871.892 775.996 853.115 803.227C838.647 809.271 822.466 813.5 802 813.5C764.434 813.5 745.73 802.435 728.182 790.895C727.03 790.137 725.877 789.372 724.719 788.604C707.465 777.16 689.133 765 656.5 765C628.711 765 609.156 775.504 589.737 785.936L589.735 785.937L589.721 785.944C586.945 787.436 584.171 788.926 581.376 790.383C559.047 802.028 532.652 813.5 487 813.5V833.5C536.848 833.5 566.453 820.722 590.624 808.117C593.673 806.527 596.592 804.97 599.417 803.463L599.424 803.459L599.428 803.457L599.439 803.451L599.441 803.45C618.982 793.026 634.027 785 656.5 785C683.017 785 696.945 794.214 713.958 805.469L713.973 805.48C715.033 806.181 716.105 806.89 717.193 807.605C736.52 820.315 759.066 833.5 802 833.5C815.827 833.5 827.996 831.79 838.949 829.025C831.591 847.78 832.83 863.518 847.16 870.568C834.204 875.335 819.705 878.5 802 878.5C764.434 878.5 745.73 867.435 728.182 855.895C727.03 855.137 725.877 854.372 724.719 853.604C707.465 842.16 689.133 830 656.5 830C628.711 830 609.156 840.504 589.737 850.936C586.955 852.43 584.176 853.923 581.376 855.383C559.047 867.028 532.652 878.5 487 878.5V898.5C536.848 898.5 566.453 885.722 590.624 873.117C593.68 871.523 596.605 869.962 599.437 868.452L599.441 868.45C618.982 858.026 634.027 850 656.5 850C683.017 850 696.945 859.214 713.958 870.469L713.995 870.494C715.048 871.191 716.113 871.895 717.193 872.605C736.52 885.315 759.066 898.5 802 898.5C834.227 898.5 857.445 889.21 877.263 878.934C891.899 884.605 902.797 893.475 911.57 903.687C901.245 907.905 891.807 913.156 882.626 918.263C881.279 919.012 879.938 919.759 878.6 920.498C857.023 932.423 835.124 943.5 802 943.5C764.434 943.5 745.73 932.435 728.182 920.895C727.03 920.137 725.877 919.372 724.719 918.604C707.465 907.16 689.133 895 656.5 895C628.711 895 609.156 905.504 589.737 915.936C586.955 917.43 584.176 918.923 581.376 920.383C559.047 932.028 532.652 943.5 487 943.5V963.5C536.848 963.5 566.453 950.722 590.624 938.117C593.682 936.522 596.608 934.961 599.441 933.45C618.982 923.026 634.027 915 656.5 915C683.017 915 696.945 924.214 713.958 935.469L714.945 936.122C715.688 936.613 716.436 937.108 717.193 937.605C736.52 950.315 759.066 963.5 802 963.5C840.376 963.5 865.977 950.327 888.275 938.002C889.354 937.406 890.423 936.813 891.483 936.226L891.538 936.195C902.762 929.973 912.955 924.321 923.741 920.422C927.717 926.731 931.276 933.162 934.715 939.374L934.716 939.376C938.844 946.836 942.799 953.981 947.091 960.221C921.022 961.903 901.291 972.88 882.626 983.263C881.279 984.012 879.938 984.759 878.6 985.498C864.079 993.524 849.411 1001.17 831.275 1005.3C842.158 1007.86 852.771 1011.37 862.646 1015.91C871.901 1011.93 880.299 1007.41 888.275 1003C888.651 1002.79 889.025 1002.59 889.399 1002.38L891.535 1001.2L891.537 1001.2L891.538 1001.19C912.439 989.608 929.77 980 954 980C982.997 980 1001.24 988.38 1023.91 998.79L1023.91 998.791L1023.91 998.792L1023.91 998.793C1027.16 1000.28 1030.5 1001.82 1033.97 1003.38C1062 1015.93 1096.28 1028.5 1157 1028.5C1206.85 1028.5 1236.45 1015.72 1260.62 1003.12C1263.68 1001.53 1266.6 999.967 1269.42 998.459L1269.44 998.45C1288.98 988.026 1304.03 980 1326.5 980H1326.53C1329.58 973.267 1333.18 966.772 1337.45 960.484C1333.98 960.169 1330.34 960 1326.5 960C1298.71 960 1279.16 970.504 1259.74 980.936C1256.96 982.43 1254.18 983.923 1251.38 985.383C1229.05 997.028 1202.65 1008.5 1157 1008.5C1099.72 1008.5 1068.25 996.818 1042.15 985.124C1039.68 984.019 1037.24 982.901 1034.82 981.782C1029.25 982.58 1023.75 983 1018.34 983C1012.4 983 1007.28 981.862 1002.77 979.812C1088.59 962.547 1184.61 855.316 1157.41 817.673C1155.84 815.488 1154.17 813.16 1152.41 810.713L1152.41 810.705C1121.71 767.906 1064.89 688.681 1016.02 705.363C1012.23 706.658 1008.54 707.857 1004.96 708.975C990.385 703.72 974.283 700 954 700C924.443 700 902.905 711.982 882.626 723.263C881.279 724.012 879.938 724.759 878.6 725.498C857.023 737.423 835.124 748.5 802 748.5C764.434 748.5 745.73 737.435 728.182 725.895C727.03 725.137 725.877 724.372 724.719 723.604C707.465 712.16 689.133 700 656.5 700C628.711 700 609.156 710.504 589.737 720.936L589.735 720.937L589.721 720.944C586.945 722.436 584.171 723.926 581.376 725.383C559.047 737.028 532.652 748.5 487 748.5V768.5ZM758.459 1001.84C746.474 997.6 737.176 991.81 728.182 985.895C727.568 985.491 726.953 985.085 726.337 984.677C725.799 984.321 725.26 983.963 724.719 983.604C707.465 972.16 689.133 960 656.5 960C628.711 960 609.156 970.504 589.737 980.936C586.955 982.43 584.176 983.923 581.376 985.383C559.047 997.028 532.652 1008.5 487 1008.5V1028.5C536.848 1028.5 566.453 1015.72 590.624 1003.12C593.68 1001.52 596.605 999.962 599.437 998.452L599.441 998.45C618.982 988.026 634.027 980 656.5 980C683.017 980 696.945 989.214 713.958 1000.47L713.995 1000.49C714.695 1000.96 715.399 1001.42 716.11 1001.89C716.469 1002.13 716.83 1002.37 717.193 1002.61C720.863 1005.02 724.648 1007.45 728.668 1009.8C737.05 1006.17 747.223 1003.47 758.459 1001.84ZM656.5 1025C671.695 1025 683.789 1027.64 694.118 1031.61C750.172 1007.69 884.51 1025.48 884.51 1118.5C884.51 1213.08 976.239 1204.44 1048.5 1197.63C1068.51 1195.75 1087.02 1194 1101.69 1194.63C1169.31 1197.51 1241.34 1275.94 1191.31 1327.84C1186.89 1332.42 1182.19 1336.54 1177.29 1340.33C1183.01 1337.15 1188.72 1333.94 1194.31 1330.54C1218.6 1326.38 1235.96 1318.42 1251.38 1310.38C1254.18 1308.92 1256.96 1307.43 1259.74 1305.94C1279.16 1295.5 1298.71 1285 1326.5 1285C1333.73 1285 1340.25 1285.6 1346.22 1286.65C1343.63 1292.9 1340.25 1299.17 1336.33 1305.46C1333.25 1305.16 1329.98 1305 1326.5 1305C1304.03 1305 1288.98 1313.03 1269.44 1323.45L1269.44 1323.45L1269.43 1323.45C1266.6 1324.96 1263.68 1326.52 1260.62 1328.12C1236.57 1340.66 1207.13 1353.38 1157.72 1353.5C1151.6 1357.17 1145.37 1360.62 1139.14 1364.08L1139.13 1364.08C1096.61 1387.64 1054.39 1411.03 1054.39 1500.28C1054.39 1503.82 1053.76 1506.93 1052.58 1509.63C1076.81 1519.64 1107.12 1528.5 1157 1528.5C1202.65 1528.5 1229.05 1517.03 1251.38 1505.38C1254.18 1503.92 1256.96 1502.43 1259.74 1500.94L1259.74 1500.93C1267.93 1496.53 1276.15 1492.12 1285 1488.49C1289.88 1493.68 1294.99 1498.93 1300.3 1504.13C1290.02 1507.47 1280.45 1512.58 1269.44 1518.45L1269.44 1518.45L1269.44 1518.45C1266.61 1519.96 1263.68 1521.52 1260.62 1523.12C1236.45 1535.72 1206.85 1548.5 1157 1548.5C1096.28 1548.5 1062 1535.93 1033.97 1523.38L1032.82 1522.86C1009.81 1527.33 971.685 1518.29 934.94 1502.11C919.727 1505.57 906.554 1512.87 891.538 1521.19L891.484 1521.23L891.482 1521.23L891.451 1521.24C890.402 1521.83 889.343 1522.41 888.275 1523C865.977 1535.33 840.376 1548.5 802 1548.5C759.066 1548.5 736.52 1535.31 717.193 1522.61C716.113 1521.89 715.048 1521.19 713.996 1520.49L713.958 1520.47C696.945 1509.21 683.017 1500 656.5 1500C634.027 1500 618.982 1508.03 599.441 1518.45C596.608 1519.96 593.682 1521.52 590.624 1523.12C566.453 1535.72 536.848 1548.5 487 1548.5V1528.5C532.652 1528.5 559.047 1517.03 581.376 1505.38C584.175 1503.92 586.954 1502.43 589.735 1500.94L589.737 1500.94C609.156 1490.5 628.711 1480 656.5 1480C689.133 1480 707.465 1492.16 724.719 1503.6C725.556 1504.16 726.391 1504.71 727.224 1505.26C727.544 1505.47 727.863 1505.68 728.182 1505.89C745.73 1517.44 764.434 1528.5 802 1528.5C835.124 1528.5 857.023 1517.42 878.6 1505.5C879.59 1504.95 880.582 1504.4 881.576 1503.85L882.626 1503.26L882.628 1503.26L882.63 1503.26C891.17 1498.51 899.934 1493.63 909.426 1489.58C896.287 1482.42 883.882 1474.47 873.07 1466.06C854.166 1475.46 831.982 1483.5 802 1483.5C759.066 1483.5 736.52 1470.31 717.193 1457.61C716.809 1457.35 716.427 1457.1 716.047 1456.85C715.357 1456.4 714.674 1455.94 713.996 1455.49L713.958 1455.47L712.815 1454.71C675.004 1467.64 633.969 1475.43 594.822 1455.91C593.449 1456.64 592.051 1457.37 590.624 1458.12C566.453 1470.72 536.848 1483.5 487 1483.5V1463.5C528.488 1463.5 554.072 1454.03 575.154 1443.56C572.878 1441.81 570.611 1439.96 568.356 1437.99C559.516 1430.28 551.402 1421.4 544.361 1411.65C528.56 1415.8 509.92 1418.5 487 1418.5V1398.5C505.121 1398.5 520.209 1396.69 533.212 1393.78C526.191 1380.59 521.124 1366.34 518.669 1351.59C509.082 1352.81 498.588 1353.5 487 1353.5V1333.5C498.058 1333.5 507.986 1332.83 517 1331.64C517.001 1316.28 520.022 1300.66 526.759 1285.41C515.058 1287.35 501.938 1288.5 487 1288.5V1268.5C508.537 1268.5 525.788 1265.95 540.348 1262.03C554.108 1243.24 574.509 1225.54 603 1210.2C634.325 1205.53 651.324 1192.28 660.316 1175.07C659.073 1175.02 657.802 1175 656.5 1175C634.027 1175 618.982 1183.03 599.441 1193.45C596.608 1194.96 593.682 1196.52 590.624 1198.12C566.453 1210.72 536.848 1223.5 487 1223.5V1203.5C532.652 1203.5 559.047 1192.03 581.376 1180.38C584.175 1178.92 586.954 1177.43 589.735 1175.94L589.737 1175.94C609.156 1165.5 628.711 1155 656.5 1155C660.228 1155 663.77 1155.16 667.145 1155.46C670.151 1141.23 670.073 1125.74 669.384 1110.81C665.421 1110.28 661.154 1110 656.5 1110C634.027 1110 618.982 1118.03 599.441 1128.45C596.608 1129.96 593.682 1131.52 590.624 1133.12C566.453 1145.72 536.848 1158.5 487 1158.5V1138.5C532.652 1138.5 559.047 1127.03 581.376 1115.38C584.175 1113.92 586.954 1112.43 589.735 1110.94L589.737 1110.94C609.156 1100.5 628.711 1090 656.5 1090C660.648 1090 664.565 1090.2 668.279 1090.56C667.381 1073.12 667.315 1057.83 672.831 1048.15C673.142 1047.6 673.478 1047.06 673.837 1046.53C668.652 1045.54 662.948 1045 656.5 1045C634.027 1045 618.982 1053.03 599.441 1063.45C596.608 1064.96 593.682 1066.52 590.624 1068.12C566.453 1080.72 536.848 1093.5 487 1093.5V1073.5C532.652 1073.5 559.047 1062.03 581.376 1050.38C584.176 1048.92 586.955 1047.43 589.737 1045.94C609.156 1035.5 628.711 1025 656.5 1025ZM921.068 1116.43C920.046 1110.36 919.51 1103.73 919.51 1096.5C919.51 1096.38 919.51 1096.26 919.51 1096.13C919.509 1096 919.508 1095.86 919.507 1095.73C929.863 1092.26 941.177 1090 954 1090C987.603 1090 1009.73 1100.21 1032.46 1110.7L1032.48 1110.71C1035.68 1112.18 1038.89 1113.66 1042.15 1115.12C1068.25 1126.82 1099.72 1138.5 1157 1138.5C1202.65 1138.5 1229.05 1127.03 1251.38 1115.38C1254.18 1113.92 1256.96 1112.43 1259.74 1110.94C1274.4 1103.06 1289.15 1095.14 1307.46 1091.73C1307.46 1098.84 1307.83 1105.54 1308.5 1111.9C1294.9 1114.87 1283.3 1121.05 1269.44 1128.45L1269.44 1128.45L1269.44 1128.45C1266.61 1129.96 1263.68 1131.52 1260.62 1133.12C1236.45 1145.72 1206.85 1158.5 1157 1158.5C1096.28 1158.5 1062 1145.93 1033.97 1133.38C1030.5 1131.82 1027.16 1130.29 1023.91 1128.79L1023.91 1128.79C1001.24 1118.38 982.997 1110 954 1110C941.701 1110 931.181 1112.48 921.068 1116.43ZM1242.75 1271.75C1243.42 1264.74 1242.71 1257.65 1240.84 1250.65C1244.48 1248.93 1247.98 1247.16 1251.38 1245.38C1254.18 1243.92 1256.96 1242.43 1259.74 1240.94C1279.16 1230.5 1298.71 1220 1326.5 1220C1333.88 1220 1340.53 1220.62 1346.6 1221.72C1348.8 1228.64 1350.48 1235.79 1351.38 1243.37C1344.26 1241.24 1336.23 1240 1326.5 1240C1304.03 1240 1288.98 1248.03 1269.44 1258.45C1266.61 1259.96 1263.68 1261.52 1260.62 1263.12C1255.02 1266.04 1249.12 1268.97 1242.75 1271.75ZM1355.45 1548.74C1367.58 1556.4 1380.28 1562.93 1393.42 1567.74L1394.72 1568.6C1395.88 1569.37 1397.03 1570.14 1398.18 1570.89C1415.73 1582.44 1434.43 1593.5 1472 1593.5C1505.12 1593.5 1527.02 1582.42 1548.6 1570.5C1549.94 1569.76 1551.28 1569.01 1552.63 1568.26C1572.91 1556.98 1594.44 1545 1624 1545C1657.6 1545 1679.73 1555.21 1702.46 1565.7L1702.48 1565.71C1705.68 1567.18 1708.89 1568.66 1712.15 1570.12C1738.25 1581.82 1769.72 1593.5 1827 1593.5V1613.5C1766.28 1613.5 1732 1600.93 1703.97 1588.38C1700.5 1586.82 1697.16 1585.29 1693.91 1583.79L1693.91 1583.79C1671.24 1573.38 1653 1565 1624 1565C1599.77 1565 1582.44 1574.61 1561.54 1586.19C1560.46 1586.79 1559.37 1587.4 1558.27 1588C1535.98 1600.33 1510.38 1613.5 1472 1613.5C1429.07 1613.5 1406.52 1600.32 1387.19 1587.61C1386.1 1586.89 1385.02 1586.17 1383.96 1585.47C1366.94 1574.21 1353.02 1565 1326.5 1565C1304.03 1565 1288.98 1573.03 1269.44 1583.45C1266.61 1584.96 1263.68 1586.52 1260.62 1588.12C1236.45 1600.72 1206.85 1613.5 1157 1613.5C1096.28 1613.5 1062 1600.93 1033.97 1588.38C1030.5 1586.82 1027.16 1585.29 1023.91 1583.79L1023.91 1583.79C1001.24 1573.38 982.997 1565 954 1565C929.77 1565 912.439 1574.61 891.538 1586.19L891.484 1586.23L891.446 1586.25C890.398 1586.83 889.342 1587.41 888.275 1588C865.977 1600.33 840.376 1613.5 802 1613.5C759.066 1613.5 736.52 1600.32 717.193 1587.61C716.113 1586.89 715.048 1586.19 713.996 1585.49L713.958 1585.47C696.945 1574.21 683.017 1565 656.5 1565C634.027 1565 618.982 1573.03 599.441 1583.45C596.608 1584.96 593.682 1586.52 590.624 1588.12C566.453 1600.72 536.848 1613.5 487 1613.5V1593.5C532.652 1593.5 559.047 1582.03 581.376 1570.38C584.176 1568.92 586.955 1567.43 589.737 1565.94C609.156 1555.5 628.711 1545 656.5 1545C689.133 1545 707.465 1557.16 724.719 1568.6C725.877 1569.37 727.03 1570.14 728.182 1570.89C745.73 1582.44 764.434 1593.5 802 1593.5C835.124 1593.5 857.023 1582.42 878.6 1570.5C879.45 1570.03 880.302 1569.56 881.156 1569.08L882.608 1568.27L882.626 1568.26C902.905 1556.98 924.443 1545 954 1545C987.603 1545 1009.73 1555.21 1032.46 1565.7L1032.48 1565.71C1035.68 1567.18 1038.89 1568.66 1042.15 1570.12C1068.25 1581.82 1099.72 1593.5 1157 1593.5C1202.65 1593.5 1229.05 1582.03 1251.38 1570.38C1254.18 1568.92 1256.96 1567.43 1259.74 1565.94C1279.16 1555.5 1298.71 1545 1326.5 1545C1337.64 1545 1347.12 1546.42 1355.45 1548.74ZM1693.89 1518.78L1693.9 1518.79L1693.91 1518.79C1697.16 1520.28 1700.5 1521.82 1703.97 1523.38C1732 1535.93 1766.28 1548.5 1827 1548.5V1528.5C1772.87 1528.5 1741.78 1518.06 1716.5 1507.05C1729.09 1501.77 1741 1490.53 1750.96 1475.09C1771.06 1480.11 1795.46 1483.5 1827 1483.5V1463.5C1799.92 1463.5 1778.6 1460.89 1760.9 1456.9C1766.68 1444.35 1771.32 1430.12 1774.41 1414.79C1789.51 1417.11 1806.79 1418.5 1827 1418.5V1398.5C1807.85 1398.5 1791.59 1397.19 1777.44 1395.02C1778.97 1380.64 1779.13 1365.59 1777.63 1350.26C1791.95 1352.3 1808.21 1353.5 1827 1353.5V1333.5C1806.55 1333.5 1789.39 1332.01 1774.59 1329.56C1771.46 1313.65 1766.44 1297.65 1759.21 1282C1777.68 1285.95 1799.66 1288.5 1827 1288.5V1268.5C1791.97 1268.5 1766.59 1264.13 1746.18 1258.06C1742.15 1251.67 1737.69 1245.39 1732.79 1239.25C1691.37 1187.33 1653.3 1180.72 1625.94 1175.97C1624.16 1175.66 1622.43 1175.36 1620.75 1175.06C1621.82 1175.02 1622.9 1175 1624 1175C1653 1175 1671.24 1183.38 1693.91 1193.79L1693.91 1193.79C1697.16 1195.29 1700.5 1196.82 1703.97 1198.38C1732 1210.93 1766.28 1223.5 1827 1223.5V1203.5C1769.72 1203.5 1738.25 1191.82 1712.15 1180.12C1708.89 1178.66 1705.67 1177.18 1702.46 1175.7C1679.73 1165.21 1657.6 1155 1624 1155C1611.44 1155 1600.33 1157.16 1590.15 1160.52C1584.81 1152.73 1582.38 1140.34 1583.46 1119.69C1595.98 1113.88 1608.6 1110 1624 1110C1653 1110 1671.24 1118.38 1693.91 1128.79L1693.91 1128.79C1697.16 1130.29 1700.5 1131.82 1703.97 1133.38C1732 1145.93 1766.28 1158.5 1827 1158.5V1138.5C1769.72 1138.5 1738.25 1126.82 1712.15 1115.12C1708.89 1113.66 1705.68 1112.18 1702.48 1110.71L1702.46 1110.7C1679.73 1100.21 1657.6 1090 1624 1090C1609.96 1090 1597.73 1092.7 1586.58 1096.75C1593.85 1074.18 1615.39 1074.65 1637.82 1075.14C1652.47 1075.46 1667.5 1075.78 1679.17 1069.7C1683.53 1067.43 1687.24 1064.91 1690.38 1062.17C1691.54 1062.7 1692.72 1063.24 1693.91 1063.79L1693.91 1063.79L1693.91 1063.79L1693.91 1063.79C1697.16 1065.28 1700.5 1066.82 1703.97 1068.38C1732 1080.93 1766.28 1093.5 1827 1093.5V1073.5C1769.72 1073.5 1738.25 1061.82 1712.15 1050.12C1708.89 1048.66 1705.68 1047.18 1702.48 1045.7L1702.47 1045.7L1702.46 1045.7L1702.46 1045.7L1702.02 1045.49C1706.83 1032.39 1704.75 1016.98 1699.31 1001.27C1700.84 1001.96 1702.39 1002.67 1703.97 1003.38C1732 1015.93 1766.28 1028.5 1827 1028.5V1008.5C1769.72 1008.5 1738.25 996.818 1712.15 985.124C1708.9 983.666 1705.69 982.185 1702.49 980.71L1702.47 980.702L1702.46 980.696C1697.33 978.331 1692.24 975.981 1687.04 973.758C1680.71 961.788 1673.61 950.327 1667.39 940.299C1663.02 933.237 1659.08 926.886 1656.17 921.57C1655.61 920.558 1655.05 919.564 1654.49 918.587C1668.23 921.998 1680.27 927.526 1693.91 933.79L1693.91 933.792L1693.91 933.792C1697.16 935.285 1700.5 936.819 1703.97 938.376C1732 950.932 1766.28 963.5 1827 963.5V943.5C1769.72 943.5 1738.25 931.818 1712.15 920.124C1708.89 918.663 1705.68 917.18 1702.47 915.702L1702.46 915.696C1682.96 906.698 1663.9 897.904 1637.65 895.589C1592.83 847.938 1534.06 875.966 1527.42 882.627C1361.47 933.292 1350.54 987.404 1343.41 1081.44C1339.57 1132.15 1354.61 1163.26 1368.27 1191.5C1379.93 1215.63 1390.58 1237.65 1387.56 1268.01C1384.94 1294.45 1362.05 1321.49 1339.23 1348.44C1305.21 1388.63 1271.36 1428.61 1305.17 1466.11C1361.64 1528.73 1458.93 1616.15 1561.89 1540.52C1635.12 1486.73 1659.15 1496.55 1679.63 1504.91L1679.63 1504.91C1681.75 1505.78 1683.83 1506.63 1685.92 1507.39C1683.26 1509.07 1680.56 1510.48 1677.83 1511.6C1683.06 1513.81 1688.33 1516.23 1693.87 1518.77L1693.88 1518.78L1693.89 1518.78ZM1299.79 1353.46C1291.03 1364.15 1282.42 1374.82 1275.13 1385.43C1273.28 1386.4 1271.4 1387.4 1269.48 1388.43L1269.44 1388.45L1269.44 1388.45C1266.61 1389.96 1263.68 1391.52 1260.62 1393.12C1236.45 1405.72 1206.85 1418.5 1157 1418.5C1134.62 1418.5 1115.84 1416.79 1099.64 1414.01C1102.31 1407.09 1105.45 1400.87 1108.96 1395.25C1122.75 1397.29 1138.53 1398.5 1157 1398.5C1202.65 1398.5 1229.05 1387.03 1251.38 1375.38C1254.18 1373.92 1256.96 1372.43 1259.74 1370.94C1272.3 1364.19 1284.92 1357.41 1299.79 1353.46ZM1090.29 1456.76C1108.12 1460.83 1129.61 1463.5 1157 1463.5C1202.65 1463.5 1229.05 1452.03 1251.38 1440.38C1252.58 1439.76 1253.78 1439.12 1254.98 1438.48C1255.27 1445.15 1256.94 1451.75 1260.31 1458.28C1236.19 1470.83 1206.63 1483.5 1157 1483.5C1129.75 1483.5 1107.82 1480.97 1089.39 1477.04C1089.42 1469.86 1089.73 1463.11 1090.29 1456.76ZM1318.58 1155.29C1294.89 1157.05 1277.26 1166.52 1259.74 1175.94C1256.96 1177.43 1254.18 1178.92 1251.38 1180.38C1237.97 1187.37 1223.1 1194.3 1203.48 1198.72C1209.8 1203.63 1215.61 1209.07 1220.71 1214.87C1236.32 1210.18 1249.09 1204.13 1260.62 1198.12C1263.68 1196.52 1266.6 1194.96 1269.43 1193.45L1269.44 1193.45L1269.44 1193.45C1288.98 1183.03 1304.03 1175 1326.5 1175H1326.61C1323.8 1168.72 1321.07 1162.2 1318.58 1155.29ZM1039.77 1179.05C1001.16 1180.84 963.141 1177.77 940.5 1155.86C944.816 1155.3 949.307 1155 954 1155C987.603 1155 1009.73 1165.21 1032.46 1175.7L1032.47 1175.7L1032.48 1175.7L1032.5 1175.72C1034.91 1176.83 1037.33 1177.94 1039.77 1179.05ZM1313.44 1025.8C1292.29 1028.45 1275.97 1037.22 1259.74 1045.94C1256.96 1047.43 1254.18 1048.92 1251.38 1050.38C1229.05 1062.03 1202.65 1073.5 1157 1073.5C1099.72 1073.5 1068.25 1061.82 1042.15 1050.12C1038.89 1048.66 1035.68 1047.18 1032.48 1045.71L1032.46 1045.7C1009.73 1035.21 987.603 1025 954 1025C931.534 1025 913.7 1031.92 897.531 1040.2C902.187 1045.15 906.241 1050.6 909.555 1056.56C923.385 1049.73 936.993 1045 954 1045C982.997 1045 1001.24 1053.38 1023.91 1063.79L1023.91 1063.79L1023.91 1063.79L1023.96 1063.81C1027.19 1065.3 1030.51 1066.83 1033.97 1068.38C1062 1080.93 1096.28 1093.5 1157 1093.5C1206.85 1093.5 1236.45 1080.72 1260.62 1068.12C1263.68 1066.53 1266.6 1064.97 1269.42 1063.46L1269.43 1063.46L1269.44 1063.45C1284.03 1055.67 1296.12 1049.22 1310.66 1046.45C1311.44 1039.34 1312.34 1032.46 1313.44 1025.8ZM1576.59 863.057C1591.46 855.434 1605.78 850 1624 850C1653 850 1671.24 858.38 1693.91 868.79L1693.91 868.792L1693.91 868.792C1697.16 870.285 1700.5 871.819 1703.97 873.376C1732 885.932 1766.28 898.5 1827 898.5V878.5C1769.72 878.5 1738.25 866.818 1712.15 855.124C1708.9 853.666 1705.69 852.185 1702.49 850.71L1702.47 850.702L1702.46 850.696C1679.73 840.21 1657.6 830 1624 830C1594.44 830 1572.91 841.982 1552.63 853.263C1551.43 853.927 1550.24 854.589 1549.06 855.246C1557.98 856.078 1567.32 858.434 1576.59 863.057ZM487 1678.5C536.848 1678.5 566.453 1665.72 590.624 1653.12C593.673 1651.53 596.592 1649.97 599.417 1648.46L599.441 1648.45C618.982 1638.03 634.027 1630 656.5 1630C683.017 1630 696.945 1639.21 713.958 1650.47C715.023 1651.17 716.1 1651.89 717.193 1652.61C736.52 1665.32 759.066 1678.5 802 1678.5C840.376 1678.5 865.977 1665.33 888.275 1653C889.322 1652.42 890.36 1651.85 891.388 1651.28L891.538 1651.19C912.439 1639.61 929.77 1630 954 1630C982.997 1630 1001.24 1638.38 1023.91 1648.79C1027.16 1650.28 1030.5 1651.82 1033.97 1653.38C1062 1665.93 1096.28 1678.5 1157 1678.5C1206.85 1678.5 1236.45 1665.72 1260.62 1653.12C1263.67 1651.53 1266.6 1649.97 1269.42 1648.46L1269.44 1648.45C1288.98 1638.03 1304.03 1630 1326.5 1630C1353.02 1630 1366.94 1639.21 1383.96 1650.47L1383.97 1650.48C1385.03 1651.18 1386.11 1651.89 1387.19 1652.61C1406.52 1665.32 1429.07 1678.5 1472 1678.5C1510.38 1678.5 1535.98 1665.33 1558.27 1653C1559.37 1652.4 1560.46 1651.79 1561.54 1651.19C1582.44 1639.61 1599.77 1630 1624 1630C1653 1630 1671.24 1638.38 1693.91 1648.79C1697.16 1650.28 1700.5 1651.82 1703.97 1653.38C1732 1665.93 1766.28 1678.5 1827 1678.5V1658.5C1769.72 1658.5 1738.25 1646.82 1712.15 1635.12C1708.89 1633.66 1705.67 1632.18 1702.46 1630.7C1679.73 1620.21 1657.6 1610 1624 1610C1594.44 1610 1572.91 1621.98 1552.63 1633.26C1552.01 1633.6 1551.4 1633.94 1550.79 1634.28L1549.58 1634.96C1549.25 1635.14 1548.92 1635.32 1548.6 1635.5C1527.02 1647.42 1505.12 1658.5 1472 1658.5C1434.43 1658.5 1415.73 1647.43 1398.18 1635.89C1397.03 1635.14 1395.88 1634.37 1394.72 1633.6C1377.46 1622.16 1359.13 1610 1326.5 1610C1298.71 1610 1279.16 1620.5 1259.74 1630.94C1256.96 1632.43 1254.18 1633.92 1251.38 1635.38C1229.05 1647.03 1202.65 1658.5 1157 1658.5C1099.72 1658.5 1068.25 1646.82 1042.15 1635.12C1038.89 1633.66 1035.68 1632.18 1032.48 1630.71L1032.46 1630.7C1009.73 1620.21 987.603 1610 954 1610C924.443 1610 902.905 1621.98 882.626 1633.26C881.279 1634.01 879.938 1634.76 878.6 1635.5C857.023 1647.42 835.124 1658.5 802 1658.5C764.434 1658.5 745.73 1647.43 728.182 1635.89C727.038 1635.14 725.893 1634.38 724.743 1633.62L724.719 1633.6C707.465 1622.16 689.133 1610 656.5 1610C628.711 1610 609.156 1620.5 589.737 1630.94C586.955 1632.43 584.176 1633.92 581.376 1635.38C559.047 1647.03 532.652 1658.5 487 1658.5V1678.5ZM487 1743.5C536.848 1743.5 566.453 1730.72 590.624 1718.12C593.673 1716.53 596.592 1714.97 599.417 1713.46L599.441 1713.45C618.982 1703.03 634.027 1695 656.5 1695C683.017 1695 696.945 1704.21 713.958 1715.47L713.973 1715.48C715.033 1716.18 716.105 1716.89 717.193 1717.61C736.52 1730.32 759.066 1743.5 802 1743.5C840.376 1743.5 865.977 1730.33 888.275 1718C889.28 1717.45 890.277 1716.89 891.265 1716.35L891.538 1716.19C912.439 1704.61 929.77 1695 954 1695C982.997 1695 1001.24 1703.38 1023.91 1713.79C1027.16 1715.28 1030.5 1716.82 1033.97 1718.38C1062 1730.93 1096.28 1743.5 1157 1743.5C1206.85 1743.5 1236.45 1730.72 1260.62 1718.12C1263.67 1716.53 1266.6 1714.97 1269.42 1713.46L1269.44 1713.45C1288.98 1703.03 1304.03 1695 1326.5 1695C1353.02 1695 1366.94 1704.21 1383.96 1715.47L1383.97 1715.48L1384.02 1715.51L1384.07 1715.54C1385.1 1716.22 1386.14 1716.91 1387.19 1717.61C1406.52 1730.32 1429.07 1743.5 1472 1743.5C1510.38 1743.5 1535.98 1730.33 1558.27 1718C1559.37 1717.4 1560.46 1716.79 1561.54 1716.19C1582.44 1704.61 1599.77 1695 1624 1695C1653 1695 1671.24 1703.38 1693.91 1713.79C1697.16 1715.28 1700.5 1716.82 1703.97 1718.38C1732 1730.93 1766.28 1743.5 1827 1743.5V1723.5C1769.72 1723.5 1738.25 1711.82 1712.15 1700.12C1708.9 1698.67 1705.68 1697.18 1702.49 1695.71L1702.48 1695.71L1702.46 1695.7C1679.73 1685.21 1657.6 1675 1624 1675C1594.44 1675 1572.91 1686.98 1552.63 1698.26C1551.56 1698.86 1550.5 1699.45 1549.44 1700.03L1548.6 1700.5C1527.02 1712.42 1505.12 1723.5 1472 1723.5C1434.43 1723.5 1415.73 1712.43 1398.18 1700.89C1397.03 1700.14 1395.88 1699.37 1394.72 1698.6C1377.46 1687.16 1359.13 1675 1326.5 1675C1298.71 1675 1279.16 1685.5 1259.74 1695.94C1256.96 1697.43 1254.18 1698.92 1251.38 1700.38C1229.05 1712.03 1202.65 1723.5 1157 1723.5C1099.72 1723.5 1068.25 1711.82 1042.15 1700.12C1038.89 1698.66 1035.67 1697.18 1032.46 1695.7C1009.73 1685.21 987.603 1675 954 1675C924.443 1675 902.905 1686.98 882.626 1698.26C881.279 1699.01 879.938 1699.76 878.6 1700.5C857.023 1712.42 835.124 1723.5 802 1723.5C764.434 1723.5 745.73 1712.43 728.182 1700.89C727.038 1700.14 725.893 1699.38 724.743 1698.62L724.719 1698.6C707.465 1687.16 689.133 1675 656.5 1675C628.711 1675 609.156 1685.5 589.737 1695.94C586.955 1697.43 584.176 1698.92 581.376 1700.38C559.047 1712.03 532.652 1723.5 487 1723.5V1743.5ZM1455 758.5C1455 830.573 1396.57 889 1324.5 889C1252.43 889 1194 830.573 1194 758.5C1194 686.427 1252.43 628 1324.5 628C1396.57 628 1455 686.427 1455 758.5Z" fill="#d6cfb2"/></svg>
