<svg width="1315" height="1315"  viewBox="0 0 1315 1315" fill="none" xmlns="http://www.w3.org/2000/svg"><rect x="0" y="0" width="2000" height="2000" fill="white" /><path fill-rule="evenodd" clip-rule="evenodd" d="M1315 0H0V1315H1315V0ZM337 312V337.205C350.79 343.914 360.214 357.438 360.214 373.027C360.214 388.616 350.79 402.139 337 408.849V446.181C350.79 452.891 360.214 466.414 360.214 482.003C360.214 497.593 350.79 511.115 337 517.825V559.517C350.79 566.226 360.214 579.749 360.214 595.339C360.214 610.928 350.79 624.451 337 631.161V670.672C350.79 677.382 360.214 690.905 360.214 706.494C360.214 722.084 350.79 735.607 337 742.317V779.649C350.79 786.359 360.214 799.882 360.214 815.471C360.214 831.06 350.79 844.583 337 851.293V892.984C350.79 899.694 360.214 913.217 360.214 928.806C360.214 944.396 350.79 957.919 337 964.628V1004H367.907C374.834 990.461 389.575 981.115 406.643 981.115C423.709 981.115 438.451 990.461 445.377 1004H493.267C500.192 990.461 514.935 981.115 532.001 981.115C549.068 981.115 563.81 990.461 570.736 1004H618.624C625.551 990.461 640.292 981.115 657.359 981.115C674.426 981.115 689.168 990.461 696.094 1004H743.983C750.909 990.461 765.651 981.115 782.718 981.115C799.785 981.115 814.526 990.461 821.453 1004H869.341C876.268 990.461 891.009 981.115 908.076 981.115C925.143 981.115 939.885 990.461 946.811 1004H976.56V965.677C961.516 959.406 951.022 945.257 951.022 928.806C951.022 912.356 961.516 898.207 976.56 891.936V852.342C961.516 846.071 951.022 831.921 951.022 815.471C951.022 799.021 961.516 784.871 976.56 778.6V743.365C961.516 737.094 951.022 722.945 951.022 706.494C951.022 690.044 961.516 675.895 976.56 669.624V632.209C961.516 625.938 951.022 611.789 951.022 595.339C951.022 578.888 961.516 564.739 976.56 558.468V521.053C961.516 514.782 951.022 500.633 951.022 484.183C951.022 483.818 951.027 483.455 951.038 483.093C951.027 482.731 951.022 482.368 951.022 482.003C951.022 465.553 961.516 451.404 976.56 445.133V409.897C961.516 403.626 951.022 389.477 951.022 373.027C951.022 356.577 961.516 342.427 976.56 336.156V312H945.607C938.268 324.352 924.211 332.706 908.076 332.706C891.941 332.706 877.885 324.352 870.545 312H820.249C812.91 324.352 798.853 332.706 782.718 332.706C766.583 332.706 752.526 324.352 745.188 312H694.891C687.551 324.352 673.494 332.706 657.359 332.706C641.225 332.706 627.168 324.352 619.828 312H569.532C562.192 324.352 548.136 332.706 532.001 332.706C515.866 332.706 501.81 324.352 494.471 312H444.174C436.834 324.352 422.777 332.706 406.643 332.706C390.508 332.706 376.451 324.352 369.111 312H337ZM892.987 375.206H417.09V930.986H892.987V375.206ZM456.555 414.438H853.523V891.754H456.555V414.438Z"  fill="#d6cfb2"/></svg>