<svg width="1315" height="1315" viewBox="0 0 1315 1315" fill="none" xmlns="http://www.w3.org/2000/svg"><rect x="0" y="0" width="2000" height="2000" fill="white" /><path fill-rule="evenodd" clip-rule="evenodd" d="M1315 0H0V1315H1315V0ZM762.618 878.763C735.378 924.163 704.3 947.736 675.5 954.733V827H787.515C780.255 845.985 771.872 863.339 762.618 878.763ZM625.5 827V950.486C600.527 940.229 574.565 917.401 551.382 878.763C542.128 863.339 533.745 845.985 526.485 827H625.5ZM803.014 777H675.5V688H816.113C814.298 719.53 809.754 749.409 803.014 777ZM625.5 777V688H497.887C499.702 719.53 504.246 749.409 510.986 777H625.5ZM816.668 638H675.5V541H803.972C811.007 570.977 815.462 603.576 816.668 638ZM625.5 638V541H510.028C502.993 570.977 498.538 603.576 497.332 638H625.5ZM789.019 491H675.5V359.267C704.3 366.264 735.378 389.837 762.618 435.237C772.518 451.738 781.421 470.448 789.019 491ZM625.5 491V363.514C600.527 373.771 574.565 396.599 551.382 435.237C541.482 451.738 532.579 470.448 524.981 491H625.5ZM792.139 924.911C811.646 897.55 828.122 864.38 840.608 827H904.218C875.759 868.308 837.214 902.13 792.139 924.911ZM854.332 777H932.037C944.154 749.267 952.199 719.349 955.418 688H866.188C864.555 719.003 860.497 748.846 854.332 777ZM381.963 777H459.668C453.503 748.846 449.445 719.003 447.812 688H358.582C361.801 719.349 369.846 749.267 381.963 777ZM473.392 827H409.782C438.241 868.308 476.786 902.13 521.861 924.911C502.354 897.55 485.878 864.38 473.392 827ZM841.924 491C829.289 451.984 812.339 417.422 792.139 389.089C838.66 412.601 878.226 447.875 906.927 491H841.924ZM855.191 541H933.75C946.401 571.147 954.271 603.797 956.408 638H866.696C865.61 604.167 861.641 571.611 855.191 541ZM472.076 491C484.711 451.984 501.661 417.422 521.861 389.089C475.34 412.601 435.774 447.875 407.073 491H472.076ZM458.809 541H380.25C367.599 571.147 359.729 603.797 357.592 638H447.304C448.39 604.167 452.359 571.611 458.809 541ZM1007 657C1007 463.7 850.3 307 657 307C463.7 307 307 463.7 307 657C307 850.3 463.7 1007 657 1007C850.3 1007 1007 850.3 1007 657Z" fill="#d6cfb2"/></svg>