<svg   width="1315" height="1315"   viewBox="0 0 1338 1338" fill="none" xmlns="http://www.w3.org/2000/svg"><rect x="0" y="0" width="2000" height="2000" fill="white" /><path fill-rule="evenodd" clip-rule="evenodd" d="M1338 0H0V1338H1338V0ZM678.398 290.359C683.758 290.359 688.079 289.039 691.358 286.399C694.718 283.759 696.398 279.879 696.398 274.759C696.398 270.679 695.158 267.279 692.678 264.559C690.198 261.759 685.878 259.519 679.718 257.839L671.438 255.439C665.358 253.759 660.718 250.919 657.519 246.919C654.318 242.919 652.718 238.039 652.718 232.279C652.718 228.439 653.599 224.839 655.358 221.479C657.198 218.119 659.958 215.399 663.639 213.319C667.398 211.239 672.158 210.199 677.918 210.199C684.318 210.199 689.479 211.399 693.398 213.799C697.318 216.119 700.039 219.159 701.559 222.919C703.079 226.679 703.438 230.719 702.639 235.039L692.559 237.199C693.599 229.759 692.838 224.039 690.278 220.039C687.798 216.039 683.479 214.039 677.318 214.039C672.438 214.039 668.599 215.359 665.798 217.999C662.999 220.559 661.599 224.319 661.599 229.279C661.599 233.199 662.718 236.559 664.958 239.359C667.198 242.079 671.158 244.239 676.838 245.839L685.119 248.239C698.479 251.919 705.158 259.719 705.158 271.639C705.158 275.879 704.158 279.719 702.158 283.159C700.238 286.519 697.278 289.199 693.278 291.199C689.358 293.199 684.398 294.199 678.398 294.199C674.238 294.199 670.238 293.559 666.398 292.279C662.639 290.999 659.398 288.799 656.678 285.679C654.039 282.559 652.278 278.239 651.398 272.719L658.599 270.319C658.999 275.599 660.158 279.679 662.079 282.559C663.999 285.439 666.398 287.479 669.278 288.679C672.158 289.799 675.198 290.359 678.398 290.359ZM701.318 998.639V995.399H724.238V998.639L717.639 999.239C717.242 999.289 716.896 999.358 716.599 999.446C715.938 999.642 715.524 999.933 715.358 1000.32C715.119 1000.8 714.999 1002.4 714.999 1005.12V1077H709.119L665.438 1003.32V1067.28C665.438 1070 665.559 1071.64 665.798 1072.2C666.039 1072.68 666.798 1073 668.079 1073.16L674.678 1073.88V1077H651.758V1073.88L658.358 1073.16C659.639 1073 660.398 1072.68 660.639 1072.2C660.878 1071.64 660.999 1070 660.999 1067.28V1005.12C660.999 1002.4 660.878 1000.8 660.639 1000.32C660.398 999.759 659.639 999.399 658.358 999.239L651.758 998.639V995.399H672.519L710.559 1059.72V1005.12C710.559 1002.4 710.438 1000.8 710.198 1000.32C710.082 1000.05 709.843 999.823 709.482 999.646C709.099 999.457 708.577 999.322 707.918 999.239L701.318 998.639ZM655.329 351L720.562 398.041L736.392 574H1054V579H736.841L747.574 698.295L854.335 743.499L890.684 854H1054V859H892.329L904.867 897.117L884.715 914.935L903.213 933.316H953.746L970.1 987.707H953.746L937.575 951.507H885.021L866.636 930.92L827.139 965.841L668.008 909.796V866.43L639.159 909.796L481.682 866.43L482.142 859H309V854H482.452L490.869 718.141L566.76 680.104L532.397 660.258L581.527 579H309V574H584.55L590.28 564.522H629.971L610.125 535.489L668.008 383.524L655.329 351ZM543.056 446.736C543.056 486.721 510.642 519.135 470.657 519.135C430.672 519.135 398.258 486.721 398.258 446.736C398.258 406.751 430.672 374.336 470.657 374.336C510.642 374.336 543.056 406.751 543.056 446.736Z"  fill="#d6cfb2"/></svg>